G04*
G04 #@! TF.GenerationSoftware,Altium Limited,Altium Designer,24.1.2 (44)*
G04*
G04 Layer_Color=2752767*
%FSLAX25Y25*%
%MOIN*%
G70*
G04*
G04 #@! TF.SameCoordinates,9E04AB5A-7F44-4484-A11C-FDF8A6245F59*
G04*
G04*
G04 #@! TF.FilePolarity,Positive*
G04*
G01*
G75*
%ADD14C,0.00500*%
%ADD82C,0.00667*%
D14*
X56500Y92000D02*
X54500Y96000D01*
X58500D01*
X56500Y92000D01*
X66500D02*
X64500Y96000D01*
X68500D01*
X66500Y92000D01*
X76500D02*
X74500Y96000D01*
X78500D01*
X76500Y92000D01*
X86500D02*
X84500Y96000D01*
X88500D01*
X86500Y92000D01*
X96500D02*
X94500Y96000D01*
X98500D01*
X96500Y92000D01*
X106500D02*
X104500Y96000D01*
X108500D01*
X106500Y92000D01*
X116500D02*
X114500Y96000D01*
X118500D01*
X116500Y92000D01*
X126500D02*
X124500Y96000D01*
X128500D01*
X126500Y92000D01*
X136500D02*
X134500Y96000D01*
X138500D01*
X136500Y92000D01*
X146500D02*
X144500Y96000D01*
X148500D01*
X146500Y92000D01*
X258000Y94874D02*
X259000Y95874D01*
X260000D01*
X259000Y96874D01*
X260000Y97874D01*
X259000D01*
X258000Y98874D01*
X257000Y97874D01*
X256000D01*
X257000Y96874D01*
X256000Y95874D01*
X257000D01*
X258000Y94874D01*
X248000D02*
X249000Y95874D01*
X250000D01*
X249000Y96874D01*
X250000Y97874D01*
X249000D01*
X248000Y98874D01*
X247000Y97874D01*
X246000D01*
X247000Y96874D01*
X246000Y95874D01*
X247000D01*
X248000Y94874D01*
X238000D02*
X239000Y95874D01*
X240000D01*
X239000Y96874D01*
X240000Y97874D01*
X239000D01*
X238000Y98874D01*
X237000Y97874D01*
X236000D01*
X237000Y96874D01*
X236000Y95874D01*
X237000D01*
X238000Y94874D01*
X228000D02*
X229000Y95874D01*
X230000D01*
X229000Y96874D01*
X230000Y97874D01*
X229000D01*
X228000Y98874D01*
X227000Y97874D01*
X226000D01*
X227000Y96874D01*
X226000Y95874D01*
X227000D01*
X228000Y94874D01*
X218000D02*
X219000Y95874D01*
X220000D01*
X219000Y96874D01*
X220000Y97874D01*
X219000D01*
X218000Y98874D01*
X217000Y97874D01*
X216000D01*
X217000Y96874D01*
X216000Y95874D01*
X217000D01*
X218000Y94874D01*
X208000D02*
X209000Y95874D01*
X210000D01*
X209000Y96874D01*
X210000Y97874D01*
X209000D01*
X208000Y98874D01*
X207000Y97874D01*
X206000D01*
X207000Y96874D01*
X206000Y95874D01*
X207000D01*
X208000Y94874D01*
X41000Y347000D02*
X39000Y351000D01*
X43000D01*
X41000Y347000D01*
X51000D02*
X49000Y351000D01*
X53000D01*
X51000Y347000D01*
X228842Y343383D02*
Y347383D01*
X232842D01*
Y343383D01*
X228842D01*
X258842D02*
Y347383D01*
X262842D01*
Y343383D01*
X258842D01*
X221000Y239500D02*
X219000Y243500D01*
X223000D01*
X221000Y239500D01*
X211000D02*
X209000Y243500D01*
X213000D01*
X211000Y239500D01*
X191000D02*
X189000Y243500D01*
X193000D01*
X191000Y239500D01*
X201000D02*
X199000Y243500D01*
X203000D01*
X201000Y239500D01*
X287000Y209500D02*
X288000Y210500D01*
X289000D01*
X288000Y211500D01*
X289000Y212500D01*
X288000D01*
X287000Y213500D01*
X286000Y212500D01*
X285000D01*
X286000Y211500D01*
X285000Y210500D01*
X286000D01*
X287000Y209500D01*
Y169500D02*
X288000Y170500D01*
X289000D01*
X288000Y171500D01*
X289000Y172500D01*
X288000D01*
X287000Y173500D01*
X286000Y172500D01*
X285000D01*
X286000Y171500D01*
X285000Y170500D01*
X286000D01*
X287000Y169500D01*
Y149500D02*
X288000Y150500D01*
X289000D01*
X288000Y151500D01*
X289000Y152500D01*
X288000D01*
X287000Y153500D01*
X286000Y152500D01*
X285000D01*
X286000Y151500D01*
X285000Y150500D01*
X286000D01*
X287000Y149500D01*
Y159500D02*
X288000Y160500D01*
X289000D01*
X288000Y161500D01*
X289000Y162500D01*
X288000D01*
X287000Y163500D01*
X286000Y162500D01*
X285000D01*
X286000Y161500D01*
X285000Y160500D01*
X286000D01*
X287000Y159500D01*
Y179500D02*
X288000Y180500D01*
X289000D01*
X288000Y181500D01*
X289000Y182500D01*
X288000D01*
X287000Y183500D01*
X286000Y182500D01*
X285000D01*
X286000Y181500D01*
X285000Y180500D01*
X286000D01*
X287000Y179500D01*
Y189500D02*
X288000Y190500D01*
X289000D01*
X288000Y191500D01*
X289000Y192500D01*
X288000D01*
X287000Y193500D01*
X286000Y192500D01*
X285000D01*
X286000Y191500D01*
X285000Y190500D01*
X286000D01*
X287000Y189500D01*
Y199500D02*
X288000Y200500D01*
X289000D01*
X288000Y201500D01*
X289000Y202500D01*
X288000D01*
X287000Y203500D01*
X286000Y202500D01*
X285000D01*
X286000Y201500D01*
X285000Y200500D01*
X286000D01*
X287000Y199500D01*
Y219500D02*
X288000Y220500D01*
X289000D01*
X288000Y221500D01*
X289000Y222500D01*
X288000D01*
X287000Y223500D01*
X286000Y222500D01*
X285000D01*
X286000Y221500D01*
X285000Y220500D01*
X286000D01*
X287000Y219500D01*
Y229500D02*
X288000Y230500D01*
X289000D01*
X288000Y231500D01*
X289000Y232500D01*
X288000D01*
X287000Y233500D01*
X286000Y232500D01*
X285000D01*
X286000Y231500D01*
X285000Y230500D01*
X286000D01*
X287000Y229500D01*
Y239500D02*
X288000Y240500D01*
X289000D01*
X288000Y241500D01*
X289000Y242500D01*
X288000D01*
X287000Y243500D01*
X286000Y242500D01*
X285000D01*
X286000Y241500D01*
X285000Y240500D01*
X286000D01*
X287000Y239500D01*
X10500Y219000D02*
X11500Y220000D01*
X12500D01*
X11500Y221000D01*
X12500Y222000D01*
X11500D01*
X10500Y223000D01*
X9500Y222000D01*
X8500D01*
X9500Y221000D01*
X8500Y220000D01*
X9500D01*
X10500Y219000D01*
Y229000D02*
X11500Y230000D01*
X12500D01*
X11500Y231000D01*
X12500Y232000D01*
X11500D01*
X10500Y233000D01*
X9500Y232000D01*
X8500D01*
X9500Y231000D01*
X8500Y230000D01*
X9500D01*
X10500Y229000D01*
Y269000D02*
X11500Y270000D01*
X12500D01*
X11500Y271000D01*
X12500Y272000D01*
X11500D01*
X10500Y273000D01*
X9500Y272000D01*
X8500D01*
X9500Y271000D01*
X8500Y270000D01*
X9500D01*
X10500Y269000D01*
Y289000D02*
X11500Y290000D01*
X12500D01*
X11500Y291000D01*
X12500Y292000D01*
X11500D01*
X10500Y293000D01*
X9500Y292000D01*
X8500D01*
X9500Y291000D01*
X8500Y290000D01*
X9500D01*
X10500Y289000D01*
Y279000D02*
X11500Y280000D01*
X12500D01*
X11500Y281000D01*
X12500Y282000D01*
X11500D01*
X10500Y283000D01*
X9500Y282000D01*
X8500D01*
X9500Y281000D01*
X8500Y280000D01*
X9500D01*
X10500Y279000D01*
Y259000D02*
X11500Y260000D01*
X12500D01*
X11500Y261000D01*
X12500Y262000D01*
X11500D01*
X10500Y263000D01*
X9500Y262000D01*
X8500D01*
X9500Y261000D01*
X8500Y260000D01*
X9500D01*
X10500Y259000D01*
Y249000D02*
X11500Y250000D01*
X12500D01*
X11500Y251000D01*
X12500Y252000D01*
X11500D01*
X10500Y253000D01*
X9500Y252000D01*
X8500D01*
X9500Y251000D01*
X8500Y250000D01*
X9500D01*
X10500Y249000D01*
Y239000D02*
X11500Y240000D01*
X12500D01*
X11500Y241000D01*
X12500Y242000D01*
X11500D01*
X10500Y243000D01*
X9500Y242000D01*
X8500D01*
X9500Y241000D01*
X8500Y240000D01*
X9500D01*
X10500Y239000D01*
X288000Y108000D02*
X286000Y112000D01*
X290000D01*
X288000Y108000D01*
Y118000D02*
X286000Y122000D01*
X290000D01*
X288000Y118000D01*
Y128000D02*
X286000Y132000D01*
X290000D01*
X288000Y128000D01*
X27500Y317000D02*
X25500Y321000D01*
X29500D01*
X27500Y317000D01*
X17500D02*
X15500Y321000D01*
X19500D01*
X17500Y317000D01*
X7500D02*
X5500Y321000D01*
X9500D01*
X7500Y317000D01*
X41000Y361000D02*
X39000Y365000D01*
X43000D01*
X41000Y361000D01*
X51000D02*
X49000Y365000D01*
X53000D01*
X51000Y361000D01*
X237500Y79500D02*
Y78500D01*
X239500D01*
Y79500D01*
X240500D01*
Y81500D01*
X239500D01*
Y82500D01*
X237500D01*
Y81500D01*
X236500D01*
Y79500D01*
X237500D01*
X115500Y101500D02*
Y100500D01*
X117500D01*
Y101500D01*
X118500D01*
Y103500D01*
X117500D01*
Y104500D01*
X115500D01*
Y103500D01*
X114500D01*
Y101500D01*
X115500D01*
X271921Y363626D02*
Y362626D01*
X273921D01*
Y363626D01*
X274921D01*
Y365626D01*
X273921D01*
Y366626D01*
X271921D01*
Y365626D01*
X270921D01*
Y363626D01*
X271921D01*
Y324256D02*
Y323256D01*
X273921D01*
Y324256D01*
X274921D01*
Y326256D01*
X273921D01*
Y327256D01*
X271921D01*
Y326256D01*
X270921D01*
Y324256D01*
X271921D01*
Y245516D02*
Y244516D01*
X273921D01*
Y245516D01*
X274921D01*
Y247516D01*
X273921D01*
Y248516D01*
X271921D01*
Y247516D01*
X270921D01*
Y245516D01*
X271921D01*
X281764Y225831D02*
Y224831D01*
X283764D01*
Y225831D01*
X284764D01*
Y227831D01*
X283764D01*
Y228831D01*
X281764D01*
Y227831D01*
X280764D01*
Y225831D01*
X281764D01*
X271921Y166776D02*
Y165776D01*
X273921D01*
Y166776D01*
X274921D01*
Y168776D01*
X273921D01*
Y169776D01*
X271921D01*
Y168776D01*
X270921D01*
Y166776D01*
X271921D01*
X281764Y107720D02*
Y106720D01*
X283764D01*
Y107720D01*
X284764D01*
Y109721D01*
X283764D01*
Y110721D01*
X281764D01*
Y109721D01*
X280764D01*
Y107720D01*
X281764D01*
X271921Y88035D02*
Y87035D01*
X273921D01*
Y88035D01*
X274921D01*
Y90035D01*
X273921D01*
Y91035D01*
X271921D01*
Y90035D01*
X270921D01*
Y88035D01*
X271921D01*
X252236Y363626D02*
Y362626D01*
X254236D01*
Y363626D01*
X255236D01*
Y365626D01*
X254236D01*
Y366626D01*
X252236D01*
Y365626D01*
X251236D01*
Y363626D01*
X252236D01*
Y324256D02*
Y323256D01*
X254236D01*
Y324256D01*
X255236D01*
Y326256D01*
X254236D01*
Y327256D01*
X252236D01*
Y326256D01*
X251236D01*
Y324256D01*
X252236D01*
X262079Y304571D02*
Y303571D01*
X264079D01*
Y304571D01*
X265079D01*
Y306571D01*
X264079D01*
Y307571D01*
X262079D01*
Y306571D01*
X261079D01*
Y304571D01*
X262079D01*
Y225831D02*
Y224831D01*
X264079D01*
Y225831D01*
X265079D01*
Y227831D01*
X264079D01*
Y228831D01*
X262079D01*
Y227831D01*
X261079D01*
Y225831D01*
X262079D01*
Y186461D02*
Y185461D01*
X264079D01*
Y186461D01*
X265079D01*
Y188461D01*
X264079D01*
Y189461D01*
X262079D01*
Y188461D01*
X261079D01*
Y186461D01*
X262079D01*
X252236Y166776D02*
Y165776D01*
X254236D01*
Y166776D01*
X255236D01*
Y168776D01*
X254236D01*
Y169776D01*
X252236D01*
Y168776D01*
X251236D01*
Y166776D01*
X252236D01*
Y127406D02*
Y126406D01*
X254236D01*
Y127406D01*
X255236D01*
Y129405D01*
X254236D01*
Y130405D01*
X252236D01*
Y129405D01*
X251236D01*
Y127406D01*
X252236D01*
X262079Y107720D02*
Y106720D01*
X264079D01*
Y107720D01*
X265079D01*
Y109721D01*
X264079D01*
Y110721D01*
X262079D01*
Y109721D01*
X261079D01*
Y107720D01*
X262079D01*
X252236Y88035D02*
Y87035D01*
X254236D01*
Y88035D01*
X255236D01*
Y90035D01*
X254236D01*
Y91035D01*
X252236D01*
Y90035D01*
X251236D01*
Y88035D01*
X252236D01*
X232551Y363626D02*
Y362626D01*
X234551D01*
Y363626D01*
X235551D01*
Y365626D01*
X234551D01*
Y366626D01*
X232551D01*
Y365626D01*
X231551D01*
Y363626D01*
X232551D01*
X242394Y343941D02*
Y342941D01*
X244394D01*
Y343941D01*
X245394D01*
Y345941D01*
X244394D01*
Y346941D01*
X242394D01*
Y345941D01*
X241394D01*
Y343941D01*
X242394D01*
Y304571D02*
Y303571D01*
X244394D01*
Y304571D01*
X245394D01*
Y306571D01*
X244394D01*
Y307571D01*
X242394D01*
Y306571D01*
X241394D01*
Y304571D01*
X242394D01*
X232551Y284886D02*
Y283886D01*
X234551D01*
Y284886D01*
X235551D01*
Y286886D01*
X234551D01*
Y287886D01*
X232551D01*
Y286886D01*
X231551D01*
Y284886D01*
X232551D01*
X242394Y265201D02*
Y264201D01*
X244394D01*
Y265201D01*
X245394D01*
Y267201D01*
X244394D01*
Y268201D01*
X242394D01*
Y267201D01*
X241394D01*
Y265201D01*
X242394D01*
Y147091D02*
Y146091D01*
X244394D01*
Y147091D01*
X245394D01*
Y149091D01*
X244394D01*
Y150091D01*
X242394D01*
Y149091D01*
X241394D01*
Y147091D01*
X242394D01*
X232551Y127406D02*
Y126406D01*
X234551D01*
Y127406D01*
X235551D01*
Y129405D01*
X234551D01*
Y130405D01*
X232551D01*
Y129405D01*
X231551D01*
Y127406D01*
X232551D01*
X242394Y107720D02*
Y106720D01*
X244394D01*
Y107720D01*
X245394D01*
Y109721D01*
X244394D01*
Y110721D01*
X242394D01*
Y109721D01*
X241394D01*
Y107720D01*
X242394D01*
X232551Y88035D02*
Y87035D01*
X234551D01*
Y88035D01*
X235551D01*
Y90035D01*
X234551D01*
Y91035D01*
X232551D01*
Y90035D01*
X231551D01*
Y88035D01*
X232551D01*
X212866Y363626D02*
Y362626D01*
X214866D01*
Y363626D01*
X215866D01*
Y365626D01*
X214866D01*
Y366626D01*
X212866D01*
Y365626D01*
X211866D01*
Y363626D01*
X212866D01*
X222709Y343941D02*
Y342941D01*
X224709D01*
Y343941D01*
X225709D01*
Y345941D01*
X224709D01*
Y346941D01*
X222709D01*
Y345941D01*
X221709D01*
Y343941D01*
X222709D01*
X212866Y284886D02*
Y283886D01*
X214866D01*
Y284886D01*
X215866D01*
Y286886D01*
X214866D01*
Y287886D01*
X212866D01*
Y286886D01*
X211866D01*
Y284886D01*
X212866D01*
X222709Y265201D02*
Y264201D01*
X224709D01*
Y265201D01*
X225709D01*
Y267201D01*
X224709D01*
Y268201D01*
X222709D01*
Y267201D01*
X221709D01*
Y265201D01*
X222709D01*
Y225831D02*
Y224831D01*
X224709D01*
Y225831D01*
X225709D01*
Y227831D01*
X224709D01*
Y228831D01*
X222709D01*
Y227831D01*
X221709D01*
Y225831D01*
X222709D01*
X212866Y166776D02*
Y165776D01*
X214866D01*
Y166776D01*
X215866D01*
Y168776D01*
X214866D01*
Y169776D01*
X212866D01*
Y168776D01*
X211866D01*
Y166776D01*
X212866D01*
Y127406D02*
Y126406D01*
X214866D01*
Y127406D01*
X215866D01*
Y129405D01*
X214866D01*
Y130405D01*
X212866D01*
Y129405D01*
X211866D01*
Y127406D01*
X212866D01*
X222709Y107720D02*
Y106720D01*
X224709D01*
Y107720D01*
X225709D01*
Y109721D01*
X224709D01*
Y110721D01*
X222709D01*
Y109721D01*
X221709D01*
Y107720D01*
X222709D01*
X212866Y88035D02*
Y87035D01*
X214866D01*
Y88035D01*
X215866D01*
Y90035D01*
X214866D01*
Y91035D01*
X212866D01*
Y90035D01*
X211866D01*
Y88035D01*
X212866D01*
X203024Y225831D02*
Y224831D01*
X205024D01*
Y225831D01*
X206024D01*
Y227831D01*
X205024D01*
Y228831D01*
X203024D01*
Y227831D01*
X202024D01*
Y225831D01*
X203024D01*
Y186461D02*
Y185461D01*
X205024D01*
Y186461D01*
X206024D01*
Y188461D01*
X205024D01*
Y189461D01*
X203024D01*
Y188461D01*
X202024D01*
Y186461D01*
X203024D01*
Y147091D02*
Y146091D01*
X205024D01*
Y147091D01*
X206024D01*
Y149091D01*
X205024D01*
Y150091D01*
X203024D01*
Y149091D01*
X202024D01*
Y147091D01*
X203024D01*
X193181Y127406D02*
Y126406D01*
X195181D01*
Y127406D01*
X196181D01*
Y129405D01*
X195181D01*
Y130405D01*
X193181D01*
Y129405D01*
X192181D01*
Y127406D01*
X193181D01*
X203024Y107720D02*
Y106720D01*
X205024D01*
Y107720D01*
X206024D01*
Y109721D01*
X205024D01*
Y110721D01*
X203024D01*
Y109721D01*
X202024D01*
Y107720D01*
X203024D01*
X193181Y88035D02*
Y87035D01*
X195181D01*
Y88035D01*
X196181D01*
Y90035D01*
X195181D01*
Y91035D01*
X193181D01*
Y90035D01*
X192181D01*
Y88035D01*
X193181D01*
X183339Y304571D02*
Y303571D01*
X185339D01*
Y304571D01*
X186339D01*
Y306571D01*
X185339D01*
Y307571D01*
X183339D01*
Y306571D01*
X182339D01*
Y304571D01*
X183339D01*
X173496Y206146D02*
Y205146D01*
X175496D01*
Y206146D01*
X176496D01*
Y208146D01*
X175496D01*
Y209146D01*
X173496D01*
Y208146D01*
X172496D01*
Y206146D01*
X173496D01*
X183339Y186461D02*
Y185461D01*
X185339D01*
Y186461D01*
X186339D01*
Y188461D01*
X185339D01*
Y189461D01*
X183339D01*
Y188461D01*
X182339D01*
Y186461D01*
X183339D01*
X173496Y166776D02*
Y165776D01*
X175496D01*
Y166776D01*
X176496D01*
Y168776D01*
X175496D01*
Y169776D01*
X173496D01*
Y168776D01*
X172496D01*
Y166776D01*
X173496D01*
Y127406D02*
Y126406D01*
X175496D01*
Y127406D01*
X176496D01*
Y129405D01*
X175496D01*
Y130405D01*
X173496D01*
Y129405D01*
X172496D01*
Y127406D01*
X173496D01*
Y88035D02*
Y87035D01*
X175496D01*
Y88035D01*
X176496D01*
Y90035D01*
X175496D01*
Y91035D01*
X173496D01*
Y90035D01*
X172496D01*
Y88035D01*
X173496D01*
X153811Y245516D02*
Y244516D01*
X155811D01*
Y245516D01*
X156811D01*
Y247516D01*
X155811D01*
Y248516D01*
X153811D01*
Y247516D01*
X152811D01*
Y245516D01*
X153811D01*
Y206146D02*
Y205146D01*
X155811D01*
Y206146D01*
X156811D01*
Y208146D01*
X155811D01*
Y209146D01*
X153811D01*
Y208146D01*
X152811D01*
Y206146D01*
X153811D01*
X163654Y186461D02*
Y185461D01*
X165654D01*
Y186461D01*
X166654D01*
Y188461D01*
X165654D01*
Y189461D01*
X163654D01*
Y188461D01*
X162654D01*
Y186461D01*
X163654D01*
X153811Y166776D02*
Y165776D01*
X155811D01*
Y166776D01*
X156811D01*
Y168776D01*
X155811D01*
Y169776D01*
X153811D01*
Y168776D01*
X152811D01*
Y166776D01*
X153811D01*
X163654Y147091D02*
Y146091D01*
X165654D01*
Y147091D01*
X166654D01*
Y149091D01*
X165654D01*
Y150091D01*
X163654D01*
Y149091D01*
X162654D01*
Y147091D01*
X163654D01*
X153811Y127406D02*
Y126406D01*
X155811D01*
Y127406D01*
X156811D01*
Y129405D01*
X155811D01*
Y130405D01*
X153811D01*
Y129405D01*
X152811D01*
Y127406D01*
X153811D01*
X163654Y107720D02*
Y106720D01*
X165654D01*
Y107720D01*
X166654D01*
Y109721D01*
X165654D01*
Y110721D01*
X163654D01*
Y109721D01*
X162654D01*
Y107720D01*
X163654D01*
X153811Y88035D02*
Y87035D01*
X155811D01*
Y88035D01*
X156811D01*
Y90035D01*
X155811D01*
Y91035D01*
X153811D01*
Y90035D01*
X152811D01*
Y88035D01*
X153811D01*
X134126Y363626D02*
Y362626D01*
X136126D01*
Y363626D01*
X137126D01*
Y365626D01*
X136126D01*
Y366626D01*
X134126D01*
Y365626D01*
X133126D01*
Y363626D01*
X134126D01*
X143968Y225831D02*
Y224831D01*
X145968D01*
Y225831D01*
X146968D01*
Y227831D01*
X145968D01*
Y228831D01*
X143968D01*
Y227831D01*
X142968D01*
Y225831D01*
X143968D01*
X134126Y206146D02*
Y205146D01*
X136126D01*
Y206146D01*
X137126D01*
Y208146D01*
X136126D01*
Y209146D01*
X134126D01*
Y208146D01*
X133126D01*
Y206146D01*
X134126D01*
X143968Y186461D02*
Y185461D01*
X145968D01*
Y186461D01*
X146968D01*
Y188461D01*
X145968D01*
Y189461D01*
X143968D01*
Y188461D01*
X142968D01*
Y186461D01*
X143968D01*
X134126Y127406D02*
Y126406D01*
X136126D01*
Y127406D01*
X137126D01*
Y129405D01*
X136126D01*
Y130405D01*
X134126D01*
Y129405D01*
X133126D01*
Y127406D01*
X134126D01*
X114441Y324256D02*
Y323256D01*
X116441D01*
Y324256D01*
X117441D01*
Y326256D01*
X116441D01*
Y327256D01*
X114441D01*
Y326256D01*
X113441D01*
Y324256D01*
X114441D01*
Y284886D02*
Y283886D01*
X116441D01*
Y284886D01*
X117441D01*
Y286886D01*
X116441D01*
Y287886D01*
X114441D01*
Y286886D01*
X113441D01*
Y284886D01*
X114441D01*
Y127406D02*
Y126406D01*
X116441D01*
Y127406D01*
X117441D01*
Y129405D01*
X116441D01*
Y130405D01*
X114441D01*
Y129405D01*
X113441D01*
Y127406D01*
X114441D01*
X94756Y363626D02*
Y362626D01*
X96756D01*
Y363626D01*
X97756D01*
Y365626D01*
X96756D01*
Y366626D01*
X94756D01*
Y365626D01*
X93756D01*
Y363626D01*
X94756D01*
Y284886D02*
Y283886D01*
X96756D01*
Y284886D01*
X97756D01*
Y286886D01*
X96756D01*
Y287886D01*
X94756D01*
Y286886D01*
X93756D01*
Y284886D01*
X94756D01*
X104598Y265201D02*
Y264201D01*
X106598D01*
Y265201D01*
X107598D01*
Y267201D01*
X106598D01*
Y268201D01*
X104598D01*
Y267201D01*
X103598D01*
Y265201D01*
X104598D01*
Y147091D02*
Y146091D01*
X106598D01*
Y147091D01*
X107598D01*
Y149091D01*
X106598D01*
Y150091D01*
X104598D01*
Y149091D01*
X103598D01*
Y147091D01*
X104598D01*
X75071Y324256D02*
Y323256D01*
X77071D01*
Y324256D01*
X78071D01*
Y326256D01*
X77071D01*
Y327256D01*
X75071D01*
Y326256D01*
X74071D01*
Y324256D01*
X75071D01*
Y284886D02*
Y283886D01*
X77071D01*
Y284886D01*
X78071D01*
Y286886D01*
X77071D01*
Y287886D01*
X75071D01*
Y286886D01*
X74071D01*
Y284886D01*
X75071D01*
X84913Y186461D02*
Y185461D01*
X86913D01*
Y186461D01*
X87913D01*
Y188461D01*
X86913D01*
Y189461D01*
X84913D01*
Y188461D01*
X83913D01*
Y186461D01*
X84913D01*
Y147091D02*
Y146091D01*
X86913D01*
Y147091D01*
X87913D01*
Y149091D01*
X86913D01*
Y150091D01*
X84913D01*
Y149091D01*
X83913D01*
Y147091D01*
X84913D01*
X55386Y363626D02*
Y362626D01*
X57386D01*
Y363626D01*
X58386D01*
Y365626D01*
X57386D01*
Y366626D01*
X55386D01*
Y365626D01*
X54386D01*
Y363626D01*
X55386D01*
Y324256D02*
Y323256D01*
X57386D01*
Y324256D01*
X58386D01*
Y326256D01*
X57386D01*
Y327256D01*
X55386D01*
Y326256D01*
X54386D01*
Y324256D01*
X55386D01*
Y284886D02*
Y283886D01*
X57386D01*
Y284886D01*
X58386D01*
Y286886D01*
X57386D01*
Y287886D01*
X55386D01*
Y286886D01*
X54386D01*
Y284886D01*
X55386D01*
X65228Y265201D02*
Y264201D01*
X67228D01*
Y265201D01*
X68228D01*
Y267201D01*
X67228D01*
Y268201D01*
X65228D01*
Y267201D01*
X64228D01*
Y265201D01*
X65228D01*
X55386Y245516D02*
Y244516D01*
X57386D01*
Y245516D01*
X58386D01*
Y247516D01*
X57386D01*
Y248516D01*
X55386D01*
Y247516D01*
X54386D01*
Y245516D01*
X55386D01*
X65228Y147091D02*
Y146091D01*
X67228D01*
Y147091D01*
X68228D01*
Y149091D01*
X67228D01*
Y150091D01*
X65228D01*
Y149091D01*
X64228D01*
Y147091D01*
X65228D01*
X55386Y127406D02*
Y126406D01*
X57386D01*
Y127406D01*
X58386D01*
Y129405D01*
X57386D01*
Y130405D01*
X55386D01*
Y129405D01*
X54386D01*
Y127406D01*
X55386D01*
X65228Y107720D02*
Y106720D01*
X67228D01*
Y107720D01*
X68228D01*
Y109721D01*
X67228D01*
Y110721D01*
X65228D01*
Y109721D01*
X64228D01*
Y107720D01*
X65228D01*
X35701Y324256D02*
Y323256D01*
X37701D01*
Y324256D01*
X38701D01*
Y326256D01*
X37701D01*
Y327256D01*
X35701D01*
Y326256D01*
X34701D01*
Y324256D01*
X35701D01*
X45543Y265201D02*
Y264201D01*
X47543D01*
Y265201D01*
X48543D01*
Y267201D01*
X47543D01*
Y268201D01*
X45543D01*
Y267201D01*
X44543D01*
Y265201D01*
X45543D01*
X35701Y245516D02*
Y244516D01*
X37701D01*
Y245516D01*
X38701D01*
Y247516D01*
X37701D01*
Y248516D01*
X35701D01*
Y247516D01*
X34701D01*
Y245516D01*
X35701D01*
Y206146D02*
Y205146D01*
X37701D01*
Y206146D01*
X38701D01*
Y208146D01*
X37701D01*
Y209146D01*
X35701D01*
Y208146D01*
X34701D01*
Y206146D01*
X35701D01*
Y166776D02*
Y165776D01*
X37701D01*
Y166776D01*
X38701D01*
Y168776D01*
X37701D01*
Y169776D01*
X35701D01*
Y168776D01*
X34701D01*
Y166776D01*
X35701D01*
Y127406D02*
Y126406D01*
X37701D01*
Y127406D01*
X38701D01*
Y129405D01*
X37701D01*
Y130405D01*
X35701D01*
Y129405D01*
X34701D01*
Y127406D01*
X35701D01*
X45543Y107720D02*
Y106720D01*
X47543D01*
Y107720D01*
X48543D01*
Y109721D01*
X47543D01*
Y110721D01*
X45543D01*
Y109721D01*
X44543D01*
Y107720D01*
X45543D01*
X35701Y88035D02*
Y87035D01*
X37701D01*
Y88035D01*
X38701D01*
Y90035D01*
X37701D01*
Y91035D01*
X35701D01*
Y90035D01*
X34701D01*
Y88035D01*
X35701D01*
X25858Y343941D02*
Y342941D01*
X27858D01*
Y343941D01*
X28858D01*
Y345941D01*
X27858D01*
Y346941D01*
X25858D01*
Y345941D01*
X24858D01*
Y343941D01*
X25858D01*
Y265201D02*
Y264201D01*
X27858D01*
Y265201D01*
X28858D01*
Y267201D01*
X27858D01*
Y268201D01*
X25858D01*
Y267201D01*
X24858D01*
Y265201D01*
X25858D01*
X16016Y245516D02*
Y244516D01*
X18016D01*
Y245516D01*
X19016D01*
Y247516D01*
X18016D01*
Y248516D01*
X16016D01*
Y247516D01*
X15016D01*
Y245516D01*
X16016D01*
X25858Y225831D02*
Y224831D01*
X27858D01*
Y225831D01*
X28858D01*
Y227831D01*
X27858D01*
Y228831D01*
X25858D01*
Y227831D01*
X24858D01*
Y225831D01*
X25858D01*
X16016Y206146D02*
Y205146D01*
X18016D01*
Y206146D01*
X19016D01*
Y208146D01*
X18016D01*
Y209146D01*
X16016D01*
Y208146D01*
X15016D01*
Y206146D01*
X16016D01*
Y166776D02*
Y165776D01*
X18016D01*
Y166776D01*
X19016D01*
Y168776D01*
X18016D01*
Y169776D01*
X16016D01*
Y168776D01*
X15016D01*
Y166776D01*
X16016D01*
X25858Y147091D02*
Y146091D01*
X27858D01*
Y147091D01*
X28858D01*
Y149091D01*
X27858D01*
Y150091D01*
X25858D01*
Y149091D01*
X24858D01*
Y147091D01*
X25858D01*
X16016Y127406D02*
Y126406D01*
X18016D01*
Y127406D01*
X19016D01*
Y129405D01*
X18016D01*
Y130405D01*
X16016D01*
Y129405D01*
X15016D01*
Y127406D01*
X16016D01*
X25858Y107720D02*
Y106720D01*
X27858D01*
Y107720D01*
X28858D01*
Y109721D01*
X27858D01*
Y110721D01*
X25858D01*
Y109721D01*
X24858D01*
Y107720D01*
X25858D01*
X16016Y88035D02*
Y87035D01*
X18016D01*
Y88035D01*
X19016D01*
Y90035D01*
X18016D01*
Y91035D01*
X16016D01*
Y90035D01*
X15016D01*
Y88035D01*
X16016D01*
X95000Y111000D02*
Y110000D01*
X97000D01*
Y111000D01*
X98000D01*
Y113000D01*
X97000D01*
Y114000D01*
X95000D01*
Y113000D01*
X94000D01*
Y111000D01*
X95000D01*
X116000Y149000D02*
Y148000D01*
X118000D01*
Y149000D01*
X119000D01*
Y151000D01*
X118000D01*
Y152000D01*
X116000D01*
Y151000D01*
X115000D01*
Y149000D01*
X116000D01*
X129000Y135500D02*
Y134500D01*
X131000D01*
Y135500D01*
X132000D01*
Y137500D01*
X131000D01*
Y138500D01*
X129000D01*
Y137500D01*
X128000D01*
Y135500D01*
X129000D01*
X177776Y157276D02*
Y156276D01*
X179776D01*
Y157276D01*
X180776D01*
Y159276D01*
X179776D01*
Y160276D01*
X177776D01*
Y159276D01*
X176776D01*
Y157276D01*
X177776D01*
X226500Y157500D02*
Y156500D01*
X228500D01*
Y157500D01*
X229500D01*
Y159500D01*
X228500D01*
Y160500D01*
X226500D01*
Y159500D01*
X225500D01*
Y157500D01*
X226500D01*
X276500Y96500D02*
Y95500D01*
X278500D01*
Y96500D01*
X279500D01*
Y98500D01*
X278500D01*
Y99500D01*
X276500D01*
Y98500D01*
X275500D01*
Y96500D01*
X276500D01*
X85500Y135500D02*
Y134500D01*
X87500D01*
Y135500D01*
X88500D01*
Y137500D01*
X87500D01*
Y138500D01*
X85500D01*
Y137500D01*
X84500D01*
Y135500D01*
X85500D01*
X104500D02*
Y134500D01*
X106500D01*
Y135500D01*
X107500D01*
Y137500D01*
X106500D01*
Y138500D01*
X104500D01*
Y137500D01*
X103500D01*
Y135500D01*
X104500D01*
X63000Y180000D02*
Y179000D01*
X65000D01*
Y180000D01*
X66000D01*
Y182000D01*
X65000D01*
Y183000D01*
X63000D01*
Y182000D01*
X62000D01*
Y180000D01*
X63000D01*
X63500Y206000D02*
Y205000D01*
X65500D01*
Y206000D01*
X66500D01*
Y208000D01*
X65500D01*
Y209000D01*
X63500D01*
Y208000D01*
X62500D01*
Y206000D01*
X63500D01*
X62500Y190500D02*
Y189500D01*
X64500D01*
Y190500D01*
X65500D01*
Y192500D01*
X64500D01*
Y193500D01*
X62500D01*
Y192500D01*
X61500D01*
Y190500D01*
X62500D01*
X88000Y168000D02*
Y167000D01*
X90000D01*
Y168000D01*
X91000D01*
Y170000D01*
X90000D01*
Y171000D01*
X88000D01*
Y170000D01*
X87000D01*
Y168000D01*
X88000D01*
X82500Y162000D02*
Y161000D01*
X84500D01*
Y162000D01*
X85500D01*
Y164000D01*
X84500D01*
Y165000D01*
X82500D01*
Y164000D01*
X81500D01*
Y162000D01*
X82500D01*
X65500Y160500D02*
Y159500D01*
X67500D01*
Y160500D01*
X68500D01*
Y162500D01*
X67500D01*
Y163500D01*
X65500D01*
Y162500D01*
X64500D01*
Y160500D01*
X65500D01*
X74500Y223000D02*
Y222000D01*
X76500D01*
Y223000D01*
X77500D01*
Y225000D01*
X76500D01*
Y226000D01*
X74500D01*
Y225000D01*
X73500D01*
Y223000D01*
X74500D01*
X65500Y222000D02*
Y221000D01*
X67500D01*
Y222000D01*
X68500D01*
Y224000D01*
X67500D01*
Y225000D01*
X65500D01*
Y224000D01*
X64500D01*
Y222000D01*
X65500D01*
X84000Y220000D02*
Y219000D01*
X86000D01*
Y220000D01*
X87000D01*
Y222000D01*
X86000D01*
Y223000D01*
X84000D01*
Y222000D01*
X83000D01*
Y220000D01*
X84000D01*
X93500Y246000D02*
Y245000D01*
X95500D01*
Y246000D01*
X96500D01*
Y248000D01*
X95500D01*
Y249000D01*
X93500D01*
Y248000D01*
X92500D01*
Y246000D01*
X93500D01*
X136000Y185000D02*
Y184000D01*
X138000D01*
Y185000D01*
X139000D01*
Y187000D01*
X138000D01*
Y188000D01*
X136000D01*
Y187000D01*
X135000D01*
Y185000D01*
X136000D01*
X89500Y201500D02*
Y200500D01*
X91500D01*
Y201500D01*
X92500D01*
Y203500D01*
X91500D01*
Y204500D01*
X89500D01*
Y203500D01*
X88500D01*
Y201500D01*
X89500D01*
X96000Y321000D02*
Y320000D01*
X98000D01*
Y321000D01*
X99000D01*
Y323000D01*
X98000D01*
Y324000D01*
X96000D01*
Y323000D01*
X95000D01*
Y321000D01*
X96000D01*
X109500Y234500D02*
Y233500D01*
X111500D01*
Y234500D01*
X112500D01*
Y236500D01*
X111500D01*
Y237500D01*
X109500D01*
Y236500D01*
X108500D01*
Y234500D01*
X109500D01*
X71500Y256500D02*
Y255500D01*
X73500D01*
Y256500D01*
X74500D01*
Y258500D01*
X73500D01*
Y259500D01*
X71500D01*
Y258500D01*
X70500D01*
Y256500D01*
X71500D01*
X124000Y242000D02*
Y241000D01*
X126000D01*
Y242000D01*
X127000D01*
Y244000D01*
X126000D01*
Y245000D01*
X124000D01*
Y244000D01*
X123000D01*
Y242000D01*
X124000D01*
X128840Y293340D02*
Y292340D01*
X130840D01*
Y293340D01*
X131840D01*
Y295340D01*
X130840D01*
Y296340D01*
X128840D01*
Y295340D01*
X127840D01*
Y293340D01*
X128840D01*
X142000Y279000D02*
Y278000D01*
X144000D01*
Y279000D01*
X145000D01*
Y281000D01*
X144000D01*
Y282000D01*
X142000D01*
Y281000D01*
X141000D01*
Y279000D01*
X142000D01*
X213500Y274000D02*
Y273000D01*
X215500D01*
Y274000D01*
X216500D01*
Y276000D01*
X215500D01*
Y277000D01*
X213500D01*
Y276000D01*
X212500D01*
Y274000D01*
X213500D01*
X221000Y296500D02*
Y295500D01*
X223000D01*
Y296500D01*
X224000D01*
Y298500D01*
X223000D01*
Y299500D01*
X221000D01*
Y298500D01*
X220000D01*
Y296500D01*
X221000D01*
X47153Y228500D02*
Y227500D01*
X49154D01*
Y228500D01*
X50153D01*
Y230500D01*
X49154D01*
Y231500D01*
X47153D01*
Y230500D01*
X46154D01*
Y228500D01*
X47153D01*
X182000Y115000D02*
Y114000D01*
X184000D01*
Y115000D01*
X185000D01*
Y117000D01*
X184000D01*
Y118000D01*
X182000D01*
Y117000D01*
X181000D01*
Y115000D01*
X182000D01*
X67500Y252500D02*
Y251500D01*
X69500D01*
Y252500D01*
X70500D01*
Y254500D01*
X69500D01*
Y255500D01*
X67500D01*
Y254500D01*
X66500D01*
Y252500D01*
X67500D01*
X47000Y152500D02*
Y151500D01*
X49000D01*
Y152500D01*
X50000D01*
Y154500D01*
X49000D01*
Y155500D01*
X47000D01*
Y154500D01*
X46000D01*
Y152500D01*
X47000D01*
X240000Y175500D02*
Y174500D01*
X242000D01*
Y175500D01*
X243000D01*
Y177500D01*
X242000D01*
Y178500D01*
X240000D01*
Y177500D01*
X239000D01*
Y175500D01*
X240000D01*
X65000Y132500D02*
Y131500D01*
X67000D01*
Y132500D01*
X68000D01*
Y134500D01*
X67000D01*
Y135500D01*
X65000D01*
Y134500D01*
X64000D01*
Y132500D01*
X65000D01*
X47000Y162000D02*
Y161000D01*
X49000D01*
Y162000D01*
X50000D01*
Y164000D01*
X49000D01*
Y165000D01*
X47000D01*
Y164000D01*
X46000D01*
Y162000D01*
X47000D01*
X108500Y293500D02*
Y292500D01*
X110500D01*
Y293500D01*
X111500D01*
Y295500D01*
X110500D01*
Y296500D01*
X108500D01*
Y295500D01*
X107500D01*
Y293500D01*
X108500D01*
X90500Y275500D02*
Y274500D01*
X92500D01*
Y275500D01*
X93500D01*
Y277500D01*
X92500D01*
Y278500D01*
X90500D01*
Y277500D01*
X89500D01*
Y275500D01*
X90500D01*
X86000Y327500D02*
Y326500D01*
X88000D01*
Y327500D01*
X89000D01*
Y329500D01*
X88000D01*
Y330500D01*
X86000D01*
Y329500D01*
X85000D01*
Y327500D01*
X86000D01*
X108500Y297500D02*
Y296500D01*
X110500D01*
Y297500D01*
X111500D01*
Y299500D01*
X110500D01*
Y300500D01*
X108500D01*
Y299500D01*
X107500D01*
Y297500D01*
X108500D01*
X136346Y158653D02*
Y157653D01*
X138347D01*
Y158653D01*
X139347D01*
Y160653D01*
X138347D01*
Y161653D01*
X136346D01*
Y160653D01*
X135346D01*
Y158653D01*
X136346D01*
X117500Y219500D02*
Y218500D01*
X119500D01*
Y219500D01*
X120500D01*
Y221500D01*
X119500D01*
Y222500D01*
X117500D01*
Y221500D01*
X116500D01*
Y219500D01*
X117500D01*
X138000D02*
Y218500D01*
X140000D01*
Y219500D01*
X141000D01*
Y221500D01*
X140000D01*
Y222500D01*
X138000D01*
Y221500D01*
X137000D01*
Y219500D01*
X138000D01*
X196500Y204000D02*
Y203000D01*
X198500D01*
Y204000D01*
X199500D01*
Y206000D01*
X198500D01*
Y207000D01*
X196500D01*
Y206000D01*
X195500D01*
Y204000D01*
X196500D01*
X202000Y209000D02*
Y208000D01*
X204000D01*
Y209000D01*
X205000D01*
Y211000D01*
X204000D01*
Y212000D01*
X202000D01*
Y211000D01*
X201000D01*
Y209000D01*
X202000D01*
X181154Y204153D02*
Y203153D01*
X183153D01*
Y204153D01*
X184153D01*
Y206153D01*
X183153D01*
Y207154D01*
X181154D01*
Y206153D01*
X180154D01*
Y204153D01*
X181154D01*
X202000Y198500D02*
Y197500D01*
X204000D01*
Y198500D01*
X205000D01*
Y200500D01*
X204000D01*
Y201500D01*
X202000D01*
Y200500D01*
X201000D01*
Y198500D01*
X202000D01*
X195500Y221000D02*
Y220000D01*
X197500D01*
Y221000D01*
X198500D01*
Y223000D01*
X197500D01*
Y224000D01*
X195500D01*
Y223000D01*
X194500D01*
Y221000D01*
X195500D01*
X207500D02*
Y220000D01*
X209500D01*
Y221000D01*
X210500D01*
Y223000D01*
X209500D01*
Y224000D01*
X207500D01*
Y223000D01*
X206500D01*
Y221000D01*
X207500D01*
X268000Y234000D02*
Y233000D01*
X270000D01*
Y234000D01*
X271000D01*
Y236000D01*
X270000D01*
Y237000D01*
X268000D01*
Y236000D01*
X267000D01*
Y234000D01*
X268000D01*
X116000Y177000D02*
Y176000D01*
X118000D01*
Y177000D01*
X119000D01*
Y179000D01*
X118000D01*
Y180000D01*
X116000D01*
Y179000D01*
X115000D01*
Y177000D01*
X116000D01*
X94000Y150000D02*
Y149000D01*
X96000D01*
Y150000D01*
X97000D01*
Y152000D01*
X96000D01*
Y153000D01*
X94000D01*
Y152000D01*
X93000D01*
Y150000D01*
X94000D01*
X192559Y268323D02*
X193559Y270323D01*
X192559Y272323D01*
X194559Y271323D01*
X196559Y272323D01*
X195559Y270323D01*
X196559Y268323D01*
X194559Y269323D01*
X192559Y268323D01*
X187441D02*
X188441Y270323D01*
X187441Y272323D01*
X189441Y271323D01*
X191441Y272323D01*
X190441Y270323D01*
X191441Y268323D01*
X189441Y269323D01*
X187441Y268323D01*
X192559Y273441D02*
X193559Y275441D01*
X192559Y277441D01*
X194559Y276441D01*
X196559Y277441D01*
X195559Y275441D01*
X196559Y273441D01*
X194559Y274441D01*
X192559Y273441D01*
X187441D02*
X188441Y275441D01*
X187441Y277441D01*
X189441Y276441D01*
X191441Y277441D01*
X190441Y275441D01*
X191441Y273441D01*
X189441Y274441D01*
X187441Y273441D01*
X192559Y278559D02*
X193559Y280559D01*
X192559Y282559D01*
X194559Y281559D01*
X196559Y282559D01*
X195559Y280559D01*
X196559Y278559D01*
X194559Y279559D01*
X192559Y278559D01*
X187441D02*
X188441Y280559D01*
X187441Y282559D01*
X189441Y281559D01*
X191441Y282559D01*
X190441Y280559D01*
X191441Y278559D01*
X189441Y279559D01*
X187441Y278559D01*
X192559Y283677D02*
X193559Y285677D01*
X192559Y287677D01*
X194559Y286677D01*
X196559Y287677D01*
X195559Y285677D01*
X196559Y283677D01*
X194559Y284677D01*
X192559Y283677D01*
X187441D02*
X188441Y285677D01*
X187441Y287677D01*
X189441Y286677D01*
X191441Y287677D01*
X190441Y285677D01*
X191441Y283677D01*
X189441Y284677D01*
X187441Y283677D01*
D82*
X11500Y84000D02*
G03*
X11500Y84000I-2000J0D01*
G01*
X287500D02*
G03*
X287500Y84000I-2000J0D01*
G01*
Y367000D02*
G03*
X287500Y367000I-2000J0D01*
G01*
X11500D02*
G03*
X11500Y367000I-2000J0D01*
G01*
M02*
