G04*
G04 #@! TF.GenerationSoftware,Altium Limited,Altium Designer,24.1.2 (44)*
G04*
G04 Layer_Color=255*
%FSLAX25Y25*%
%MOIN*%
G70*
G04*
G04 #@! TF.SameCoordinates,9E04AB5A-7F44-4484-A11C-FDF8A6245F59*
G04*
G04*
G04 #@! TF.FilePolarity,Positive*
G04*
G01*
G75*
%ADD17R,0.07874X0.21654*%
%ADD18R,0.06299X0.10236*%
%ADD19R,0.05118X0.03543*%
%ADD20R,0.11417X0.21260*%
%ADD21R,0.03543X0.05118*%
%ADD22R,0.05339X0.04545*%
%ADD23R,0.06102X0.12638*%
%ADD24R,0.12795X0.08465*%
%ADD25R,0.03543X0.08465*%
%ADD26R,0.06102X0.02362*%
%ADD27R,0.13780X0.06299*%
%ADD28R,0.08268X0.06102*%
%ADD29R,0.05118X0.04331*%
%ADD30R,0.04724X0.04331*%
%ADD31R,0.04331X0.05118*%
%ADD32R,0.04724X0.01181*%
%ADD33R,0.01181X0.04724*%
%ADD34R,0.05512X0.06693*%
%ADD54C,0.06181*%
%ADD55R,0.06181X0.06181*%
%ADD64R,0.11614X0.19291*%
%ADD66C,0.13800*%
%ADD67O,0.06299X0.07874*%
%ADD68R,0.06299X0.07874*%
%ADD69C,0.06299*%
%ADD70R,0.06299X0.06299*%
G04:AMPARAMS|DCode=71|XSize=59.06mil|YSize=59.06mil|CornerRadius=14.76mil|HoleSize=0mil|Usage=FLASHONLY|Rotation=0.000|XOffset=0mil|YOffset=0mil|HoleType=Round|Shape=RoundedRectangle|*
%AMROUNDEDRECTD71*
21,1,0.05906,0.02953,0,0,0.0*
21,1,0.02953,0.05906,0,0,0.0*
1,1,0.02953,0.01476,-0.01476*
1,1,0.02953,-0.01476,-0.01476*
1,1,0.02953,-0.01476,0.01476*
1,1,0.02953,0.01476,0.01476*
%
%ADD71ROUNDEDRECTD71*%
%ADD72C,0.05906*%
%ADD73C,0.05984*%
%ADD74R,0.05984X0.05984*%
%ADD75R,0.06299X0.06299*%
D17*
X75000Y208701D02*
D03*
Y171299D02*
D03*
D18*
X262500Y287587D02*
D03*
Y273413D02*
D03*
X283500D02*
D03*
Y287587D02*
D03*
D19*
X90000Y183500D02*
D03*
Y176020D02*
D03*
X166500Y280020D02*
D03*
Y287500D02*
D03*
X225600Y273160D02*
D03*
Y280640D02*
D03*
X235600Y273160D02*
D03*
Y280640D02*
D03*
X245600Y273160D02*
D03*
Y280640D02*
D03*
X157500Y280000D02*
D03*
Y287480D02*
D03*
X149100Y280160D02*
D03*
Y287640D02*
D03*
X90400Y197840D02*
D03*
Y190360D02*
D03*
X174500Y136500D02*
D03*
Y143980D02*
D03*
X217100Y209660D02*
D03*
Y217140D02*
D03*
X107100Y159660D02*
D03*
Y167140D02*
D03*
X112400Y214840D02*
D03*
Y207360D02*
D03*
X208600Y209660D02*
D03*
Y217140D02*
D03*
X99000Y159500D02*
D03*
Y166980D02*
D03*
X104000Y214980D02*
D03*
Y207500D02*
D03*
X274500Y158980D02*
D03*
Y151500D02*
D03*
X266000Y158980D02*
D03*
Y151500D02*
D03*
X22600Y286160D02*
D03*
Y293640D02*
D03*
X33100Y286160D02*
D03*
Y293640D02*
D03*
D20*
X160024Y348000D02*
D03*
X199000D02*
D03*
D21*
X129840Y321900D02*
D03*
X122360D02*
D03*
X129840Y303500D02*
D03*
X122360D02*
D03*
X129840Y312700D02*
D03*
X122360D02*
D03*
X102160Y330900D02*
D03*
X109640D02*
D03*
X200840Y297600D02*
D03*
X193360D02*
D03*
X102160Y313633D02*
D03*
X109640D02*
D03*
X102020Y305000D02*
D03*
X109500D02*
D03*
X102020Y322267D02*
D03*
X109500D02*
D03*
X129840Y331100D02*
D03*
X122360D02*
D03*
X8500Y163000D02*
D03*
X15980D02*
D03*
X216340Y202100D02*
D03*
X208860D02*
D03*
X190340Y135100D02*
D03*
X182860D02*
D03*
X117020Y136500D02*
D03*
X124500D02*
D03*
X119020Y227000D02*
D03*
X126500D02*
D03*
X190340Y144600D02*
D03*
X182860D02*
D03*
X117160Y143900D02*
D03*
X124640D02*
D03*
X119160Y235400D02*
D03*
X126640D02*
D03*
D22*
X122500Y295661D02*
D03*
Y290339D02*
D03*
D23*
X252268Y315500D02*
D03*
X235732D02*
D03*
D24*
X113000Y368535D02*
D03*
D25*
X122016Y345465D02*
D03*
X113000D02*
D03*
X103984D02*
D03*
D26*
X202630Y285500D02*
D03*
Y280500D02*
D03*
Y275500D02*
D03*
Y270500D02*
D03*
X181370D02*
D03*
Y275500D02*
D03*
Y280500D02*
D03*
Y285500D02*
D03*
D27*
X144976Y307500D02*
D03*
X167024D02*
D03*
D28*
X263839Y316000D02*
D03*
X281161D02*
D03*
X218323Y312000D02*
D03*
X201000D02*
D03*
D29*
X166500Y265000D02*
D03*
Y271693D02*
D03*
X157000Y271847D02*
D03*
Y265154D02*
D03*
X87000Y358154D02*
D03*
Y364846D02*
D03*
X71500Y358154D02*
D03*
Y364846D02*
D03*
X138500Y227000D02*
D03*
Y233693D02*
D03*
X22500Y271000D02*
D03*
Y277693D02*
D03*
Y261846D02*
D03*
Y255153D02*
D03*
D30*
X71500Y349134D02*
D03*
Y340866D02*
D03*
X87000Y349134D02*
D03*
Y340866D02*
D03*
D31*
X31846Y163000D02*
D03*
X25153D02*
D03*
D32*
X128488Y207122D02*
D03*
Y205153D02*
D03*
Y203185D02*
D03*
Y201217D02*
D03*
Y199248D02*
D03*
Y197280D02*
D03*
Y195311D02*
D03*
Y193342D02*
D03*
Y191374D02*
D03*
Y189406D02*
D03*
Y187437D02*
D03*
Y185468D02*
D03*
Y183500D02*
D03*
Y181532D02*
D03*
Y179563D02*
D03*
Y177594D02*
D03*
Y175626D02*
D03*
Y173658D02*
D03*
Y171689D02*
D03*
Y169720D02*
D03*
Y167752D02*
D03*
Y165784D02*
D03*
Y163815D02*
D03*
Y161846D02*
D03*
Y159878D02*
D03*
X189512D02*
D03*
Y161846D02*
D03*
Y163815D02*
D03*
Y165784D02*
D03*
Y167752D02*
D03*
Y169720D02*
D03*
Y171689D02*
D03*
Y173658D02*
D03*
Y175626D02*
D03*
Y177594D02*
D03*
Y179563D02*
D03*
Y181532D02*
D03*
Y183500D02*
D03*
Y185468D02*
D03*
Y187437D02*
D03*
Y189406D02*
D03*
Y191374D02*
D03*
Y193342D02*
D03*
Y195311D02*
D03*
Y197280D02*
D03*
Y199248D02*
D03*
Y201217D02*
D03*
Y203185D02*
D03*
Y205153D02*
D03*
Y207122D02*
D03*
D33*
X135378Y152988D02*
D03*
X137346D02*
D03*
X139315D02*
D03*
X141284D02*
D03*
X143252D02*
D03*
X145220D02*
D03*
X147189D02*
D03*
X149158D02*
D03*
X151126D02*
D03*
X153094D02*
D03*
X155063D02*
D03*
X157032D02*
D03*
X159000D02*
D03*
X160968D02*
D03*
X162937D02*
D03*
X164906D02*
D03*
X166874D02*
D03*
X168842D02*
D03*
X170811D02*
D03*
X172780D02*
D03*
X174748D02*
D03*
X176716D02*
D03*
X178685D02*
D03*
X180654D02*
D03*
X182622D02*
D03*
Y214012D02*
D03*
X180654D02*
D03*
X178685D02*
D03*
X176716D02*
D03*
X174748D02*
D03*
X172780D02*
D03*
X170811D02*
D03*
X168842D02*
D03*
X166874D02*
D03*
X164906D02*
D03*
X162937D02*
D03*
X160968D02*
D03*
X159000D02*
D03*
X157032D02*
D03*
X155063D02*
D03*
X153094D02*
D03*
X151126D02*
D03*
X149158D02*
D03*
X147189D02*
D03*
X145220D02*
D03*
X143252D02*
D03*
X141284D02*
D03*
X139315D02*
D03*
X137346D02*
D03*
X135378D02*
D03*
D34*
X9126Y172811D02*
D03*
Y199189D02*
D03*
X24874Y172811D02*
D03*
Y199189D02*
D03*
D54*
X258000Y96874D02*
D03*
X248000D02*
D03*
X238000D02*
D03*
X228000D02*
D03*
X218000D02*
D03*
D55*
X208000D02*
D03*
D64*
X192000Y278000D02*
D03*
D66*
X9500Y84000D02*
D03*
X285500D02*
D03*
Y367000D02*
D03*
X9500D02*
D03*
D67*
X56500Y94000D02*
D03*
X66500D02*
D03*
X76500D02*
D03*
X86500D02*
D03*
X96500D02*
D03*
X106500D02*
D03*
X116500D02*
D03*
X126500D02*
D03*
X136500D02*
D03*
D68*
X146500D02*
D03*
D69*
X41000Y349000D02*
D03*
X221000Y241500D02*
D03*
X211000D02*
D03*
X201000D02*
D03*
X288000Y120000D02*
D03*
Y130000D02*
D03*
X17500Y319000D02*
D03*
X7500D02*
D03*
X41000Y363000D02*
D03*
D70*
X51000Y349000D02*
D03*
X191000Y241500D02*
D03*
X27500Y319000D02*
D03*
X51000Y363000D02*
D03*
D71*
X230842Y345383D02*
D03*
D72*
X260842D02*
D03*
D73*
X287000Y211500D02*
D03*
Y171500D02*
D03*
Y161500D02*
D03*
Y181500D02*
D03*
Y191500D02*
D03*
Y201500D02*
D03*
Y221500D02*
D03*
Y231500D02*
D03*
Y241500D02*
D03*
X10500Y221000D02*
D03*
Y231000D02*
D03*
Y271000D02*
D03*
Y281000D02*
D03*
Y261000D02*
D03*
Y251000D02*
D03*
Y241000D02*
D03*
D74*
X287000Y151500D02*
D03*
X10500Y291000D02*
D03*
D75*
X288000Y110000D02*
D03*
M02*
