G04*
G04 #@! TF.GenerationSoftware,Altium Limited,Altium Designer,24.1.2 (44)*
G04*
G04 Layer_Physical_Order=2*
G04 Layer_Color=16711680*
%FSLAX25Y25*%
%MOIN*%
G70*
G04*
G04 #@! TF.SameCoordinates,9E04AB5A-7F44-4484-A11C-FDF8A6245F59*
G04*
G04*
G04 #@! TF.FilePolarity,Positive*
G04*
G01*
G75*
%ADD15C,0.01000*%
%ADD54C,0.06181*%
%ADD55R,0.06181X0.06181*%
%ADD63C,0.01968*%
%ADD65C,0.03000*%
%ADD66C,0.13800*%
%ADD67O,0.06299X0.07874*%
%ADD68R,0.06299X0.07874*%
%ADD69C,0.06299*%
%ADD70R,0.06299X0.06299*%
G04:AMPARAMS|DCode=71|XSize=59.06mil|YSize=59.06mil|CornerRadius=14.76mil|HoleSize=0mil|Usage=FLASHONLY|Rotation=0.000|XOffset=0mil|YOffset=0mil|HoleType=Round|Shape=RoundedRectangle|*
%AMROUNDEDRECTD71*
21,1,0.05906,0.02953,0,0,0.0*
21,1,0.02953,0.05906,0,0,0.0*
1,1,0.02953,0.01476,-0.01476*
1,1,0.02953,-0.01476,-0.01476*
1,1,0.02953,-0.01476,0.01476*
1,1,0.02953,0.01476,0.01476*
%
%ADD71ROUNDEDRECTD71*%
%ADD72C,0.05906*%
%ADD73C,0.05984*%
%ADD74R,0.05984X0.05984*%
%ADD75R,0.06299X0.06299*%
%ADD76C,0.02756*%
%ADD77C,0.02800*%
G36*
X294378Y74122D02*
X1122D01*
Y375879D01*
X151707D01*
X152000Y375500D01*
X152000Y375378D01*
X152000Y321500D01*
X205000D01*
Y375378D01*
X205000Y375500D01*
X205293Y375879D01*
X294378D01*
X294378Y74122D01*
D02*
G37*
%LPC*%
G36*
X55886Y367017D02*
X55248Y366753D01*
X54750Y366750D01*
X54750Y366750D01*
X54750Y366750D01*
X47250D01*
Y359250D01*
X52574D01*
X52622Y359221D01*
X52674Y359233D01*
X52723Y359213D01*
X52814Y359250D01*
X53016D01*
X53055Y359228D01*
X53169Y359149D01*
X53497Y358871D01*
X53686Y358688D01*
X53751Y358663D01*
X84371Y328043D01*
X84371Y328043D01*
X84735Y327800D01*
X85029Y327741D01*
X85157Y327687D01*
X85196Y327686D01*
X85323Y327380D01*
X85880Y326823D01*
X86607Y326522D01*
X87393D01*
X88120Y326823D01*
X88677Y327380D01*
X88978Y328107D01*
Y328893D01*
X88677Y329620D01*
X88120Y330177D01*
X87393Y330478D01*
X86607D01*
X85880Y330177D01*
X85319Y330267D01*
X55344Y360243D01*
X55321Y360304D01*
X54969Y360683D01*
X54856Y360824D01*
X54772Y360945D01*
X54750Y360984D01*
Y361186D01*
X54787Y361277D01*
X54767Y361326D01*
X54779Y361378D01*
X54750Y361426D01*
Y362215D01*
X55250Y362499D01*
X55886Y362235D01*
Y364626D01*
Y367017D01*
D02*
G37*
G36*
X273421D02*
Y365126D01*
X275312D01*
X274956Y365985D01*
X274281Y366661D01*
X273421Y367017D01*
D02*
G37*
G36*
X272421D02*
X271562Y366661D01*
X270887Y365985D01*
X270531Y365126D01*
X272421D01*
Y367017D01*
D02*
G37*
G36*
X253736D02*
Y365126D01*
X255627D01*
X255271Y365985D01*
X254596Y366661D01*
X253736Y367017D01*
D02*
G37*
G36*
X252736D02*
X251877Y366661D01*
X251202Y365985D01*
X250846Y365126D01*
X252736D01*
Y367017D01*
D02*
G37*
G36*
X234051D02*
Y365126D01*
X235942D01*
X235586Y365985D01*
X234911Y366661D01*
X234051Y367017D01*
D02*
G37*
G36*
X233051D02*
X232192Y366661D01*
X231517Y365985D01*
X231161Y365126D01*
X233051D01*
Y367017D01*
D02*
G37*
G36*
X214366D02*
Y365126D01*
X216257D01*
X215901Y365985D01*
X215226Y366661D01*
X214366Y367017D01*
D02*
G37*
G36*
X213366D02*
X212507Y366661D01*
X211831Y365985D01*
X211475Y365126D01*
X213366D01*
Y367017D01*
D02*
G37*
G36*
X135626D02*
Y365126D01*
X137517D01*
X137161Y365985D01*
X136486Y366661D01*
X135626Y367017D01*
D02*
G37*
G36*
X134626D02*
X133766Y366661D01*
X133091Y365985D01*
X132735Y365126D01*
X134626D01*
Y367017D01*
D02*
G37*
G36*
X96256D02*
Y365126D01*
X98147D01*
X97790Y365985D01*
X97115Y366661D01*
X96256Y367017D01*
D02*
G37*
G36*
X95256D02*
X94396Y366661D01*
X93721Y365985D01*
X93365Y365126D01*
X95256D01*
Y367017D01*
D02*
G37*
G36*
X56886D02*
Y365126D01*
X58776D01*
X58420Y365985D01*
X57745Y366661D01*
X56886Y367017D01*
D02*
G37*
G36*
X41546Y367150D02*
X41500D01*
Y363500D01*
X45150D01*
Y363546D01*
X44867Y364602D01*
X44320Y365548D01*
X43548Y366320D01*
X42602Y366867D01*
X41546Y367150D01*
D02*
G37*
G36*
X40500D02*
X40454D01*
X39398Y366867D01*
X38452Y366320D01*
X37679Y365548D01*
X37133Y364602D01*
X36850Y363546D01*
Y363500D01*
X40500D01*
Y367150D01*
D02*
G37*
G36*
X275312Y364126D02*
X273421D01*
Y362235D01*
X274281Y362591D01*
X274956Y363266D01*
X275312Y364126D01*
D02*
G37*
G36*
X272421D02*
X270531D01*
X270887Y363266D01*
X271562Y362591D01*
X272421Y362235D01*
Y364126D01*
D02*
G37*
G36*
X255627D02*
X253736D01*
Y362235D01*
X254596Y362591D01*
X255271Y363266D01*
X255627Y364126D01*
D02*
G37*
G36*
X252736D02*
X250846D01*
X251202Y363266D01*
X251877Y362591D01*
X252736Y362235D01*
Y364126D01*
D02*
G37*
G36*
X235942D02*
X234051D01*
Y362235D01*
X234911Y362591D01*
X235586Y363266D01*
X235942Y364126D01*
D02*
G37*
G36*
X233051D02*
X231161D01*
X231517Y363266D01*
X232192Y362591D01*
X233051Y362235D01*
Y364126D01*
D02*
G37*
G36*
X216257D02*
X214366D01*
Y362235D01*
X215226Y362591D01*
X215901Y363266D01*
X216257Y364126D01*
D02*
G37*
G36*
X213366D02*
X211475D01*
X211831Y363266D01*
X212507Y362591D01*
X213366Y362235D01*
Y364126D01*
D02*
G37*
G36*
X137517D02*
X135626D01*
Y362235D01*
X136486Y362591D01*
X137161Y363266D01*
X137517Y364126D01*
D02*
G37*
G36*
X134626D02*
X132735D01*
X133091Y363266D01*
X133766Y362591D01*
X134626Y362235D01*
Y364126D01*
D02*
G37*
G36*
X98147D02*
X96256D01*
Y362235D01*
X97115Y362591D01*
X97790Y363266D01*
X98147Y364126D01*
D02*
G37*
G36*
X95256D02*
X93365D01*
X93721Y363266D01*
X94396Y362591D01*
X95256Y362235D01*
Y364126D01*
D02*
G37*
G36*
X58776D02*
X56886D01*
Y362235D01*
X57745Y362591D01*
X58420Y363266D01*
X58776Y364126D01*
D02*
G37*
G36*
X286239Y374500D02*
X284761D01*
X283312Y374212D01*
X281947Y373646D01*
X280719Y372826D01*
X279674Y371781D01*
X278854Y370553D01*
X278288Y369188D01*
X278000Y367739D01*
Y366261D01*
X278288Y364812D01*
X278854Y363447D01*
X279674Y362219D01*
X280719Y361174D01*
X281947Y360354D01*
X283312Y359788D01*
X284761Y359500D01*
X286239D01*
X287688Y359788D01*
X289053Y360354D01*
X290281Y361174D01*
X291326Y362219D01*
X292146Y363447D01*
X292712Y364812D01*
X293000Y366261D01*
Y367739D01*
X292712Y369188D01*
X292146Y370553D01*
X291326Y371781D01*
X290281Y372826D01*
X289053Y373646D01*
X287688Y374212D01*
X286239Y374500D01*
D02*
G37*
G36*
X10239D02*
X8761D01*
X7312Y374212D01*
X5947Y373646D01*
X4719Y372826D01*
X3674Y371781D01*
X2854Y370553D01*
X2288Y369188D01*
X2000Y367739D01*
Y366261D01*
X2288Y364812D01*
X2854Y363447D01*
X3674Y362219D01*
X4719Y361174D01*
X5947Y360354D01*
X7312Y359788D01*
X8761Y359500D01*
X10239D01*
X11688Y359788D01*
X13053Y360354D01*
X14281Y361174D01*
X15326Y362219D01*
X16146Y363447D01*
X16712Y364812D01*
X17000Y366261D01*
Y367739D01*
X16712Y369188D01*
X16146Y370553D01*
X15326Y371781D01*
X14281Y372826D01*
X13053Y373646D01*
X11688Y374212D01*
X10239Y374500D01*
D02*
G37*
G36*
X45150Y362500D02*
X41500D01*
Y358850D01*
X41546D01*
X42602Y359133D01*
X43548Y359680D01*
X44320Y360452D01*
X44867Y361398D01*
X45150Y362454D01*
Y362500D01*
D02*
G37*
G36*
X40500D02*
X36850D01*
Y362454D01*
X37133Y361398D01*
X37679Y360452D01*
X38452Y359680D01*
X39398Y359133D01*
X40454Y358850D01*
X40500D01*
Y362500D01*
D02*
G37*
G36*
X41546Y353150D02*
X41500D01*
Y349500D01*
X45150D01*
Y349546D01*
X44867Y350602D01*
X44320Y351548D01*
X43548Y352321D01*
X42602Y352867D01*
X41546Y353150D01*
D02*
G37*
G36*
X40500D02*
X40454D01*
X39398Y352867D01*
X38452Y352321D01*
X37679Y351548D01*
X37133Y350602D01*
X36850Y349546D01*
Y349500D01*
X40500D01*
Y353150D01*
D02*
G37*
G36*
X261363Y349335D02*
X261342D01*
Y345883D01*
X264795D01*
Y345903D01*
X264526Y346908D01*
X264005Y347810D01*
X263269Y348546D01*
X262368Y349066D01*
X261363Y349335D01*
D02*
G37*
G36*
X260342D02*
X260322D01*
X259317Y349066D01*
X258415Y348546D01*
X257679Y347810D01*
X257159Y346908D01*
X256890Y345903D01*
Y345883D01*
X260342D01*
Y349335D01*
D02*
G37*
G36*
X243894Y347332D02*
Y345441D01*
X245784D01*
X245428Y346301D01*
X244753Y346976D01*
X243894Y347332D01*
D02*
G37*
G36*
X242894D02*
X242034Y346976D01*
X241359Y346301D01*
X241003Y345441D01*
X242894D01*
Y347332D01*
D02*
G37*
G36*
X224209D02*
Y345441D01*
X226099D01*
X225743Y346301D01*
X225068Y346976D01*
X224209Y347332D01*
D02*
G37*
G36*
X223209D02*
X222349Y346976D01*
X221674Y346301D01*
X221318Y345441D01*
X223209D01*
Y347332D01*
D02*
G37*
G36*
X27358D02*
Y345441D01*
X29249D01*
X28893Y346301D01*
X28218Y346976D01*
X27358Y347332D01*
D02*
G37*
G36*
X26358D02*
X25499Y346976D01*
X24824Y346301D01*
X24468Y345441D01*
X26358D01*
Y347332D01*
D02*
G37*
G36*
X54750Y352750D02*
X47250D01*
Y345250D01*
X54750D01*
Y352750D01*
D02*
G37*
G36*
X45150Y348500D02*
X41500D01*
Y344850D01*
X41546D01*
X42602Y345133D01*
X43548Y345679D01*
X44320Y346452D01*
X44867Y347398D01*
X45150Y348454D01*
Y348500D01*
D02*
G37*
G36*
X40500D02*
X36850D01*
Y348454D01*
X37133Y347398D01*
X37679Y346452D01*
X38452Y345679D01*
X39398Y345133D01*
X40454Y344850D01*
X40500D01*
Y348500D01*
D02*
G37*
G36*
X245784Y344441D02*
X243894D01*
Y342550D01*
X244753Y342906D01*
X245428Y343582D01*
X245784Y344441D01*
D02*
G37*
G36*
X242894D02*
X241003D01*
X241359Y343582D01*
X242034Y342906D01*
X242894Y342550D01*
Y344441D01*
D02*
G37*
G36*
X226099D02*
X224209D01*
Y342550D01*
X225068Y342906D01*
X225743Y343582D01*
X226099Y344441D01*
D02*
G37*
G36*
X223209D02*
X221318D01*
X221674Y343582D01*
X222349Y342906D01*
X223209Y342550D01*
Y344441D01*
D02*
G37*
G36*
X29249D02*
X27358D01*
Y342550D01*
X28218Y342906D01*
X28893Y343582D01*
X29249Y344441D01*
D02*
G37*
G36*
X26358D02*
X24468D01*
X24824Y343582D01*
X25499Y342906D01*
X26358Y342550D01*
Y344441D01*
D02*
G37*
G36*
X232319Y348976D02*
X229366D01*
X228556Y348815D01*
X227869Y348356D01*
X227410Y347669D01*
X227249Y346859D01*
Y343906D01*
X227410Y343096D01*
X227869Y342409D01*
X228556Y341950D01*
X229366Y341789D01*
X232319D01*
X233129Y341950D01*
X233816Y342409D01*
X234275Y343096D01*
X234436Y343906D01*
Y346859D01*
X234275Y347669D01*
X233816Y348356D01*
X233129Y348815D01*
X232319Y348976D01*
D02*
G37*
G36*
X264795Y344883D02*
X261342D01*
Y341430D01*
X261363D01*
X262368Y341699D01*
X263269Y342220D01*
X264005Y342955D01*
X264526Y343857D01*
X264795Y344862D01*
Y344883D01*
D02*
G37*
G36*
X260342D02*
X256890D01*
Y344862D01*
X257159Y343857D01*
X257679Y342955D01*
X258415Y342220D01*
X259317Y341699D01*
X260322Y341430D01*
X260342D01*
Y344883D01*
D02*
G37*
G36*
X273421Y327646D02*
Y325756D01*
X275312D01*
X274956Y326615D01*
X274281Y327291D01*
X273421Y327646D01*
D02*
G37*
G36*
X272421D02*
X271562Y327291D01*
X270887Y326615D01*
X270531Y325756D01*
X272421D01*
Y327646D01*
D02*
G37*
G36*
X253736D02*
Y325756D01*
X255627D01*
X255271Y326615D01*
X254596Y327291D01*
X253736Y327646D01*
D02*
G37*
G36*
X252736D02*
X251877Y327291D01*
X251202Y326615D01*
X250846Y325756D01*
X252736D01*
Y327646D01*
D02*
G37*
G36*
X115941D02*
Y325756D01*
X117832D01*
X117476Y326615D01*
X116800Y327291D01*
X115941Y327646D01*
D02*
G37*
G36*
X114941D02*
X114082Y327291D01*
X113406Y326615D01*
X113050Y325756D01*
X114941D01*
Y327646D01*
D02*
G37*
G36*
X76571D02*
Y325756D01*
X78461D01*
X78105Y326615D01*
X77430Y327291D01*
X76571Y327646D01*
D02*
G37*
G36*
X75571D02*
X74711Y327291D01*
X74036Y326615D01*
X73680Y325756D01*
X75571D01*
Y327646D01*
D02*
G37*
G36*
X56886D02*
Y325756D01*
X58776D01*
X58420Y326615D01*
X57745Y327291D01*
X56886Y327646D01*
D02*
G37*
G36*
X55886D02*
X55026Y327291D01*
X54351Y326615D01*
X53995Y325756D01*
X55886D01*
Y327646D01*
D02*
G37*
G36*
X37201D02*
Y325756D01*
X39091D01*
X38735Y326615D01*
X38060Y327291D01*
X37201Y327646D01*
D02*
G37*
G36*
X36201D02*
X35341Y327291D01*
X34666Y326615D01*
X34310Y325756D01*
X36201D01*
Y327646D01*
D02*
G37*
G36*
X275312Y324756D02*
X273421D01*
Y322865D01*
X274281Y323221D01*
X274956Y323896D01*
X275312Y324756D01*
D02*
G37*
G36*
X272421D02*
X270531D01*
X270887Y323896D01*
X271562Y323221D01*
X272421Y322865D01*
Y324756D01*
D02*
G37*
G36*
X255627D02*
X253736D01*
Y322865D01*
X254596Y323221D01*
X255271Y323896D01*
X255627Y324756D01*
D02*
G37*
G36*
X252736D02*
X250846D01*
X251202Y323896D01*
X251877Y323221D01*
X252736Y322865D01*
Y324756D01*
D02*
G37*
G36*
X117832D02*
X115941D01*
Y322865D01*
X116800Y323221D01*
X117476Y323896D01*
X117832Y324756D01*
D02*
G37*
G36*
X114941D02*
X113050D01*
X113406Y323896D01*
X114082Y323221D01*
X114941Y322865D01*
Y324756D01*
D02*
G37*
G36*
X78461D02*
X76571D01*
Y322865D01*
X77430Y323221D01*
X78105Y323896D01*
X78461Y324756D01*
D02*
G37*
G36*
X75571D02*
X73680D01*
X74036Y323896D01*
X74711Y323221D01*
X75571Y322865D01*
Y324756D01*
D02*
G37*
G36*
X58776D02*
X56886D01*
Y322865D01*
X57745Y323221D01*
X58420Y323896D01*
X58776Y324756D01*
D02*
G37*
G36*
X55886D02*
X53995D01*
X54351Y323896D01*
X55026Y323221D01*
X55886Y322865D01*
Y324756D01*
D02*
G37*
G36*
X39091D02*
X37201D01*
Y322865D01*
X38060Y323221D01*
X38735Y323896D01*
X39091Y324756D01*
D02*
G37*
G36*
X36201D02*
X34310D01*
X34666Y323896D01*
X35341Y323221D01*
X36201Y322865D01*
Y324756D01*
D02*
G37*
G36*
X97500Y324367D02*
Y322500D01*
X99367D01*
X99016Y323347D01*
X98347Y324016D01*
X97500Y324367D01*
D02*
G37*
G36*
X96500D02*
X95653Y324016D01*
X94984Y323347D01*
X94633Y322500D01*
X96500D01*
Y324367D01*
D02*
G37*
G36*
X97892Y321500D02*
X97500D01*
Y321108D01*
X97892Y321500D01*
D02*
G37*
G36*
X99367D02*
X98448D01*
X98450Y321494D01*
X98492Y321380D01*
X98543Y321269D01*
X98605Y321162D01*
X98676Y321058D01*
X98756Y320958D01*
X98846Y320861D01*
X98139Y320154D01*
X98042Y320244D01*
X97942Y320324D01*
X97838Y320395D01*
X97731Y320457D01*
X97620Y320508D01*
X97506Y320550D01*
X97500Y320552D01*
Y319633D01*
X97670Y319704D01*
X97696Y319679D01*
X97758Y319656D01*
X123867Y293547D01*
X124231Y293304D01*
X124660Y293219D01*
X124660Y293219D01*
X127646D01*
X127707Y293191D01*
X127743Y293190D01*
X127824Y292993D01*
X128493Y292324D01*
X129340Y291973D01*
Y294340D01*
Y296707D01*
X128493Y296356D01*
X127824Y295687D01*
X127743Y295491D01*
X127707Y295489D01*
X127646Y295462D01*
X125124D01*
X99344Y321242D01*
X99321Y321304D01*
X99296Y321330D01*
X99367Y321500D01*
D02*
G37*
G36*
X96500D02*
X94633D01*
X94984Y320653D01*
X95653Y319984D01*
X96500Y319633D01*
Y321500D01*
D02*
G37*
G36*
X8046Y323150D02*
X8000D01*
Y319500D01*
X11650D01*
Y319546D01*
X11367Y320602D01*
X10820Y321548D01*
X10048Y322321D01*
X9102Y322867D01*
X8046Y323150D01*
D02*
G37*
G36*
X7000D02*
X6954D01*
X5898Y322867D01*
X4952Y322321D01*
X4180Y321548D01*
X3633Y320602D01*
X3350Y319546D01*
Y319500D01*
X7000D01*
Y323150D01*
D02*
G37*
G36*
X31250Y322750D02*
X23750D01*
Y315250D01*
X31250D01*
Y322750D01*
D02*
G37*
G36*
X17994D02*
X17006D01*
X16053Y322494D01*
X15198Y322000D01*
X14500Y321302D01*
X14006Y320447D01*
X13750Y319494D01*
Y318506D01*
X14006Y317553D01*
X14500Y316698D01*
X15198Y316000D01*
X16053Y315506D01*
X17006Y315250D01*
X17994D01*
X18947Y315506D01*
X19802Y316000D01*
X20500Y316698D01*
X20994Y317553D01*
X21250Y318506D01*
Y319494D01*
X20994Y320447D01*
X20500Y321302D01*
X19802Y322000D01*
X18947Y322494D01*
X17994Y322750D01*
D02*
G37*
G36*
X11650Y318500D02*
X8000D01*
Y314850D01*
X8046D01*
X9102Y315133D01*
X10048Y315680D01*
X10820Y316452D01*
X11367Y317398D01*
X11650Y318454D01*
Y318500D01*
D02*
G37*
G36*
X7000D02*
X3350D01*
Y318454D01*
X3633Y317398D01*
X4180Y316452D01*
X4952Y315680D01*
X5898Y315133D01*
X6954Y314850D01*
X7000D01*
Y318500D01*
D02*
G37*
G36*
X263579Y307962D02*
Y306071D01*
X265469D01*
X265113Y306930D01*
X264438Y307606D01*
X263579Y307962D01*
D02*
G37*
G36*
X262579D02*
X261719Y307606D01*
X261044Y306930D01*
X260688Y306071D01*
X262579D01*
Y307962D01*
D02*
G37*
G36*
X243894D02*
Y306071D01*
X245784D01*
X245428Y306930D01*
X244753Y307606D01*
X243894Y307962D01*
D02*
G37*
G36*
X242894D02*
X242034Y307606D01*
X241359Y306930D01*
X241003Y306071D01*
X242894D01*
Y307962D01*
D02*
G37*
G36*
X184839D02*
Y306071D01*
X186729D01*
X186373Y306930D01*
X185698Y307606D01*
X184839Y307962D01*
D02*
G37*
G36*
X183839D02*
X182979Y307606D01*
X182304Y306930D01*
X181948Y306071D01*
X183839D01*
Y307962D01*
D02*
G37*
G36*
X265469Y305071D02*
X263579D01*
Y303180D01*
X264438Y303536D01*
X265113Y304211D01*
X265469Y305071D01*
D02*
G37*
G36*
X262579D02*
X260688D01*
X261044Y304211D01*
X261719Y303536D01*
X262579Y303180D01*
Y305071D01*
D02*
G37*
G36*
X245784D02*
X243894D01*
Y303180D01*
X244753Y303536D01*
X245428Y304211D01*
X245784Y305071D01*
D02*
G37*
G36*
X242894D02*
X241003D01*
X241359Y304211D01*
X242034Y303536D01*
X242894Y303180D01*
Y305071D01*
D02*
G37*
G36*
X186729D02*
X184839D01*
Y303180D01*
X185698Y303536D01*
X186373Y304211D01*
X186729Y305071D01*
D02*
G37*
G36*
X183839D02*
X181948D01*
X182304Y304211D01*
X182979Y303536D01*
X183839Y303180D01*
Y305071D01*
D02*
G37*
G36*
X222500Y299867D02*
Y298000D01*
X224367D01*
X224016Y298847D01*
X223347Y299516D01*
X222500Y299867D01*
D02*
G37*
G36*
X221500D02*
X220653Y299516D01*
X219984Y298847D01*
X219633Y298000D01*
X221500D01*
Y299867D01*
D02*
G37*
G36*
X130340Y296707D02*
Y294840D01*
X132207D01*
X131856Y295687D01*
X131187Y296356D01*
X130340Y296707D01*
D02*
G37*
G36*
X130732Y293840D02*
X130340D01*
Y293448D01*
X130732Y293840D01*
D02*
G37*
G36*
X132207D02*
X131288D01*
X131290Y293834D01*
X131332Y293720D01*
X131384Y293609D01*
X131445Y293502D01*
X131516Y293398D01*
X131596Y293298D01*
X131686Y293201D01*
X130979Y292494D01*
X130883Y292584D01*
X130782Y292665D01*
X130678Y292736D01*
X130571Y292797D01*
X130461Y292848D01*
X130346Y292891D01*
X130340Y292892D01*
Y291973D01*
X130510Y292044D01*
X130536Y292019D01*
X130598Y291996D01*
X141116Y281479D01*
X140984Y281347D01*
X140633Y280500D01*
X145367D01*
X145016Y281347D01*
X144347Y282016D01*
X143473Y282378D01*
X143388D01*
X132185Y293582D01*
X132161Y293644D01*
X132137Y293671D01*
X132207Y293840D01*
D02*
G37*
G36*
X14092Y294592D02*
X6908D01*
Y287408D01*
X14092D01*
Y294592D01*
D02*
G37*
G36*
X109500Y300641D02*
X108681Y300478D01*
X107986Y300014D01*
X107522Y299319D01*
X107359Y298500D01*
Y295144D01*
X98618Y286403D01*
X98072Y286565D01*
X97790Y287245D01*
X97115Y287920D01*
X96256Y288277D01*
Y285886D01*
X95756D01*
Y285386D01*
X93365D01*
X93721Y284526D01*
X94396Y283851D01*
X95077Y283569D01*
X95239Y283024D01*
X90575Y278360D01*
X90559Y278357D01*
X89865Y277893D01*
X70986Y259014D01*
X70986Y259014D01*
X66986Y255014D01*
X66986Y255014D01*
X59221Y247249D01*
X58631Y247366D01*
X58420Y247875D01*
X57745Y248550D01*
X56886Y248906D01*
Y246516D01*
X56386D01*
Y246016D01*
X53995D01*
X54351Y245156D01*
X55026Y244481D01*
X55535Y244270D01*
X55652Y243681D01*
X46486Y234514D01*
X46022Y233819D01*
X45859Y233000D01*
Y163000D01*
Y153500D01*
Y151500D01*
X46022Y150681D01*
X46486Y149986D01*
X64486Y131986D01*
X64486Y131986D01*
X81986Y114486D01*
X82681Y114022D01*
X83500Y113859D01*
X94354D01*
X94562Y113359D01*
X94323Y113120D01*
X94022Y112393D01*
Y111607D01*
X94323Y110880D01*
X94880Y110323D01*
X95128Y110220D01*
Y98278D01*
X94609Y98063D01*
X93826Y97462D01*
X93225Y96678D01*
X92847Y95766D01*
X92718Y94787D01*
Y93213D01*
X92847Y92234D01*
X93225Y91322D01*
X93826Y90538D01*
X94609Y89937D01*
X95521Y89560D01*
X96500Y89431D01*
X97018Y89499D01*
X97071Y89464D01*
X97500Y89378D01*
X97929Y89464D01*
X98293Y89707D01*
X98543Y89957D01*
X98676Y90156D01*
X99174Y90538D01*
X99775Y91322D01*
X100153Y92234D01*
X100282Y93213D01*
Y94787D01*
X100153Y95766D01*
X99775Y96678D01*
X99174Y97462D01*
X98391Y98063D01*
X97479Y98440D01*
X97372Y98455D01*
Y110574D01*
X97677Y110880D01*
X97978Y111607D01*
Y112393D01*
X97677Y113120D01*
X97438Y113359D01*
X97645Y113859D01*
X105878D01*
Y98488D01*
X105521Y98440D01*
X104609Y98063D01*
X103826Y97462D01*
X103225Y96678D01*
X102847Y95766D01*
X102718Y94787D01*
Y93213D01*
X102847Y92234D01*
X103225Y91322D01*
X103826Y90538D01*
X104609Y89937D01*
X105521Y89560D01*
X106500Y89431D01*
X107479Y89560D01*
X108391Y89937D01*
X109174Y90538D01*
X109775Y91322D01*
X110153Y92234D01*
X110282Y93213D01*
Y94787D01*
X110153Y95766D01*
X109775Y96678D01*
X109174Y97462D01*
X108391Y98063D01*
X108122Y98174D01*
Y113859D01*
X194500D01*
X195319Y114022D01*
X196014Y114486D01*
X211288Y129760D01*
X211712Y129477D01*
X211475Y128905D01*
X213366D01*
Y130796D01*
X212794Y130559D01*
X212511Y130983D01*
X242514Y160986D01*
X242978Y161681D01*
X243141Y162500D01*
Y176500D01*
Y221500D01*
X242978Y222319D01*
X242514Y223014D01*
X225831Y239697D01*
X225824Y239716D01*
X225604Y239946D01*
X225418Y240158D01*
X225259Y240361D01*
X225125Y240554D01*
X225016Y240736D01*
X224932Y240906D01*
X224870Y241064D01*
X224829Y241208D01*
X224806Y241340D01*
X224798Y241502D01*
X224750Y241604D01*
Y241994D01*
X224494Y242947D01*
X224000Y243802D01*
X223302Y244500D01*
X222447Y244994D01*
X221494Y245250D01*
X220506D01*
X219553Y244994D01*
X218698Y244500D01*
X218000Y243802D01*
X217506Y242947D01*
X217250Y241994D01*
Y241006D01*
X217506Y240053D01*
X218000Y239198D01*
X218698Y238500D01*
X219553Y238006D01*
X220506Y237750D01*
X220896D01*
X220998Y237702D01*
X221160Y237694D01*
X221292Y237671D01*
X221436Y237630D01*
X221594Y237568D01*
X221764Y237484D01*
X221946Y237375D01*
X222132Y237246D01*
X222560Y236891D01*
X222784Y236676D01*
X222803Y236669D01*
X238859Y220613D01*
Y176500D01*
Y163387D01*
X193613Y118141D01*
X131122D01*
Y134306D01*
X131149Y134366D01*
X131153Y134475D01*
X131161Y134554D01*
X131175Y134627D01*
X131194Y134695D01*
X131217Y134759D01*
X131245Y134820D01*
X131279Y134879D01*
X131318Y134937D01*
X131365Y134994D01*
X131436Y135069D01*
X131479Y135182D01*
X131677Y135380D01*
X131978Y136107D01*
Y136893D01*
X131677Y137620D01*
X131120Y138177D01*
X130393Y138478D01*
X129607D01*
X128880Y138177D01*
X128323Y137620D01*
X128022Y136893D01*
Y136107D01*
X128323Y135380D01*
X128521Y135182D01*
X128564Y135069D01*
X128635Y134994D01*
X128682Y134937D01*
X128721Y134879D01*
X128755Y134820D01*
X128783Y134759D01*
X128806Y134695D01*
X128825Y134627D01*
X128839Y134554D01*
X128847Y134475D01*
X128851Y134366D01*
X128878Y134306D01*
Y118141D01*
X84387D01*
X67514Y135014D01*
X67514Y135014D01*
X50141Y152387D01*
Y153500D01*
Y163000D01*
Y232113D01*
X70014Y251986D01*
X70014Y251986D01*
X74014Y255986D01*
X74014Y255986D01*
X92426Y274397D01*
X92441Y274400D01*
X93135Y274865D01*
X111014Y292743D01*
X111478Y293438D01*
X111641Y294257D01*
Y298500D01*
X111478Y299319D01*
X111014Y300014D01*
X110319Y300478D01*
X109500Y300641D01*
D02*
G37*
G36*
X234051Y288277D02*
Y286386D01*
X235942D01*
X235586Y287245D01*
X234911Y287920D01*
X234051Y288277D01*
D02*
G37*
G36*
X233051D02*
X232192Y287920D01*
X231517Y287245D01*
X231161Y286386D01*
X233051D01*
Y288277D01*
D02*
G37*
G36*
X214366D02*
Y286386D01*
X216257D01*
X215901Y287245D01*
X215226Y287920D01*
X214366Y288277D01*
D02*
G37*
G36*
X213366D02*
X212507Y287920D01*
X211831Y287245D01*
X211475Y286386D01*
X213366D01*
Y288277D01*
D02*
G37*
G36*
X115941D02*
Y286386D01*
X117832D01*
X117476Y287245D01*
X116800Y287920D01*
X115941Y288277D01*
D02*
G37*
G36*
X114941D02*
X114082Y287920D01*
X113406Y287245D01*
X113050Y286386D01*
X114941D01*
Y288277D01*
D02*
G37*
G36*
X95256D02*
X94396Y287920D01*
X93721Y287245D01*
X93365Y286386D01*
X95256D01*
Y288277D01*
D02*
G37*
G36*
X76571D02*
Y286386D01*
X78461D01*
X78105Y287245D01*
X77430Y287920D01*
X76571Y288277D01*
D02*
G37*
G36*
X75571D02*
X74711Y287920D01*
X74036Y287245D01*
X73680Y286386D01*
X75571D01*
Y288277D01*
D02*
G37*
G36*
X56886D02*
Y286386D01*
X58776D01*
X58420Y287245D01*
X57745Y287920D01*
X56886Y288277D01*
D02*
G37*
G36*
X55886D02*
X55026Y287920D01*
X54351Y287245D01*
X53995Y286386D01*
X55886D01*
Y288277D01*
D02*
G37*
G36*
X195059Y287618D02*
Y286177D01*
X196500D01*
X196241Y286801D01*
X195683Y287359D01*
X195059Y287618D01*
D02*
G37*
G36*
X194059D02*
X193435Y287359D01*
X192877Y286801D01*
X192618Y286177D01*
X194059D01*
Y287618D01*
D02*
G37*
G36*
X189941D02*
Y286177D01*
X191382D01*
X191123Y286801D01*
X190565Y287359D01*
X189941Y287618D01*
D02*
G37*
G36*
X188941D02*
X188317Y287359D01*
X187759Y286801D01*
X187500Y286177D01*
X188941D01*
Y287618D01*
D02*
G37*
G36*
X196500Y285177D02*
X195059D01*
Y283736D01*
X195683Y283995D01*
X196241Y284553D01*
X196500Y285177D01*
D02*
G37*
G36*
X194059D02*
X192618D01*
X192877Y284553D01*
X193435Y283995D01*
X194059Y283736D01*
Y285177D01*
D02*
G37*
G36*
X191382D02*
X189941D01*
Y283736D01*
X190565Y283995D01*
X191123Y284553D01*
X191382Y285177D01*
D02*
G37*
G36*
X188941D02*
X187500D01*
X187759Y284553D01*
X188317Y283995D01*
X188941Y283736D01*
Y285177D01*
D02*
G37*
G36*
X235942Y285386D02*
X234051D01*
Y283495D01*
X234911Y283851D01*
X235586Y284526D01*
X235942Y285386D01*
D02*
G37*
G36*
X233051D02*
X231161D01*
X231517Y284526D01*
X232192Y283851D01*
X233051Y283495D01*
Y285386D01*
D02*
G37*
G36*
X216257D02*
X214366D01*
Y283495D01*
X215226Y283851D01*
X215901Y284526D01*
X216257Y285386D01*
D02*
G37*
G36*
X213366D02*
X211475D01*
X211831Y284526D01*
X212507Y283851D01*
X213366Y283495D01*
Y285386D01*
D02*
G37*
G36*
X117832D02*
X115941D01*
Y283495D01*
X116800Y283851D01*
X117476Y284526D01*
X117832Y285386D01*
D02*
G37*
G36*
X114941D02*
X113050D01*
X113406Y284526D01*
X114082Y283851D01*
X114941Y283495D01*
Y285386D01*
D02*
G37*
G36*
X78461D02*
X76571D01*
Y283495D01*
X77430Y283851D01*
X78105Y284526D01*
X78461Y285386D01*
D02*
G37*
G36*
X75571D02*
X73680D01*
X74036Y284526D01*
X74711Y283851D01*
X75571Y283495D01*
Y285386D01*
D02*
G37*
G36*
X58776D02*
X56886D01*
Y283495D01*
X57745Y283851D01*
X58420Y284526D01*
X58776Y285386D01*
D02*
G37*
G36*
X55886D02*
X53995D01*
X54351Y284526D01*
X55026Y283851D01*
X55886Y283495D01*
Y285386D01*
D02*
G37*
G36*
X11026Y284992D02*
X11000D01*
Y281500D01*
X14492D01*
Y281526D01*
X14220Y282541D01*
X13694Y283451D01*
X12951Y284194D01*
X12041Y284720D01*
X11026Y284992D01*
D02*
G37*
G36*
X10000D02*
X9974D01*
X8959Y284720D01*
X8049Y284194D01*
X7305Y283451D01*
X6780Y282541D01*
X6508Y281526D01*
Y281500D01*
X10000D01*
Y284992D01*
D02*
G37*
G36*
X195059Y282500D02*
Y281059D01*
X196500D01*
X196241Y281683D01*
X195683Y282241D01*
X195059Y282500D01*
D02*
G37*
G36*
X194059D02*
X193435Y282241D01*
X192877Y281683D01*
X192618Y281059D01*
X194059D01*
Y282500D01*
D02*
G37*
G36*
X189941D02*
Y281059D01*
X191382D01*
X191123Y281683D01*
X190565Y282241D01*
X189941Y282500D01*
D02*
G37*
G36*
X188941D02*
X188317Y282241D01*
X187759Y281683D01*
X187500Y281059D01*
X188941D01*
Y282500D01*
D02*
G37*
G36*
X196500Y280059D02*
X195059D01*
Y278618D01*
X195683Y278877D01*
X196241Y279435D01*
X196500Y280059D01*
D02*
G37*
G36*
X194059D02*
X192618D01*
X192877Y279435D01*
X193435Y278877D01*
X194059Y278618D01*
Y280059D01*
D02*
G37*
G36*
X191382D02*
X189941D01*
Y278618D01*
X190565Y278877D01*
X191123Y279435D01*
X191382Y280059D01*
D02*
G37*
G36*
X188941D02*
X187500D01*
X187759Y279435D01*
X188317Y278877D01*
X188941Y278618D01*
Y280059D01*
D02*
G37*
G36*
X224367Y297000D02*
X219633D01*
X219984Y296153D01*
X220653Y295484D01*
X220850Y295403D01*
X220851Y295366D01*
X220879Y295306D01*
Y282965D01*
X215258Y277344D01*
X215196Y277321D01*
X215170Y277296D01*
X215000Y277367D01*
Y276448D01*
X215006Y276450D01*
X215120Y276492D01*
X215231Y276543D01*
X215338Y276605D01*
X215442Y276676D01*
X215542Y276756D01*
X215639Y276846D01*
X216346Y276139D01*
X216256Y276042D01*
X216176Y275942D01*
X216105Y275838D01*
X216043Y275731D01*
X215992Y275620D01*
X215950Y275506D01*
X215948Y275500D01*
X216867D01*
X216796Y275670D01*
X216821Y275696D01*
X216844Y275758D01*
X222793Y281707D01*
X222793Y281707D01*
X223036Y282071D01*
X223122Y282500D01*
Y295306D01*
X223149Y295366D01*
X223150Y295403D01*
X223347Y295484D01*
X224016Y296153D01*
X224367Y297000D01*
D02*
G37*
G36*
X14492Y280500D02*
X11000D01*
Y277008D01*
X11026D01*
X12041Y277280D01*
X12951Y277805D01*
X13694Y278549D01*
X14220Y279459D01*
X14492Y280474D01*
Y280500D01*
D02*
G37*
G36*
X10000D02*
X6508D01*
Y280474D01*
X6780Y279459D01*
X7305Y278549D01*
X8049Y277805D01*
X8959Y277280D01*
X9974Y277008D01*
X10000D01*
Y280500D01*
D02*
G37*
G36*
X195059Y277382D02*
Y275941D01*
X196500D01*
X196241Y276565D01*
X195683Y277123D01*
X195059Y277382D01*
D02*
G37*
G36*
X194059D02*
X193435Y277123D01*
X192877Y276565D01*
X192618Y275941D01*
X194059D01*
Y277382D01*
D02*
G37*
G36*
X189941D02*
Y275941D01*
X191382D01*
X191123Y276565D01*
X190565Y277123D01*
X189941Y277382D01*
D02*
G37*
G36*
X188941D02*
X188317Y277123D01*
X187759Y276565D01*
X187500Y275941D01*
X188941D01*
Y277382D01*
D02*
G37*
G36*
X215000Y275892D02*
Y275500D01*
X215392D01*
X215000Y275892D01*
D02*
G37*
G36*
X214000Y277367D02*
X213153Y277016D01*
X212484Y276347D01*
X212133Y275500D01*
X214000D01*
Y277367D01*
D02*
G37*
G36*
Y274500D02*
X213608D01*
X214000Y274108D01*
Y274500D01*
D02*
G37*
G36*
X196500Y274941D02*
X195059D01*
Y273500D01*
X195683Y273759D01*
X196241Y274317D01*
X196500Y274941D01*
D02*
G37*
G36*
X194059D02*
X192618D01*
X192877Y274317D01*
X193435Y273759D01*
X194059Y273500D01*
Y274941D01*
D02*
G37*
G36*
X191382D02*
X189941D01*
Y273500D01*
X190565Y273759D01*
X191123Y274317D01*
X191382Y274941D01*
D02*
G37*
G36*
X188941D02*
X187500D01*
X187759Y274317D01*
X188317Y273759D01*
X188941Y273500D01*
Y274941D01*
D02*
G37*
G36*
X216867Y274500D02*
X215000D01*
Y272633D01*
X215847Y272984D01*
X216516Y273653D01*
X216867Y274500D01*
D02*
G37*
G36*
X145367Y279500D02*
X140633D01*
X140984Y278653D01*
X141653Y277984D01*
X141850Y277903D01*
X141851Y277866D01*
X141878Y277806D01*
Y273000D01*
X141878Y273000D01*
X141964Y272571D01*
X142207Y272207D01*
X147040Y267374D01*
X147045Y267347D01*
X147062Y267336D01*
X147208Y266845D01*
X147204Y266839D01*
X147103Y266727D01*
X147082Y266668D01*
X145410Y264996D01*
X145337Y264962D01*
X144921Y264507D01*
X143493Y263079D01*
X143038Y262663D01*
X143004Y262590D01*
X125758Y245344D01*
X125696Y245321D01*
X125670Y245297D01*
X125500Y245367D01*
Y244448D01*
X125506Y244450D01*
X125620Y244492D01*
X125731Y244543D01*
X125838Y244605D01*
X125942Y244675D01*
X126042Y244756D01*
X126139Y244846D01*
X126846Y244139D01*
X126756Y244042D01*
X126675Y243942D01*
X126605Y243838D01*
X126543Y243731D01*
X126492Y243620D01*
X126450Y243506D01*
X126448Y243500D01*
X127367D01*
X127296Y243670D01*
X127321Y243696D01*
X127344Y243758D01*
X144359Y260773D01*
X144382Y260777D01*
X144417Y260828D01*
X144476Y260851D01*
X144550Y260921D01*
X144600Y260962D01*
X144625Y260979D01*
X144672Y260971D01*
X144902Y260924D01*
X144905Y260923D01*
X144916Y260930D01*
X144928Y260928D01*
X145122Y261065D01*
X145320Y261196D01*
X145321Y261198D01*
X145323Y261208D01*
X145334Y261216D01*
X145334Y261219D01*
X145373Y261450D01*
X145422Y261683D01*
X145397Y261811D01*
X146189Y262603D01*
X146318Y262579D01*
X146550Y262627D01*
X146781Y262666D01*
X146784Y262667D01*
X146792Y262677D01*
X146804Y262680D01*
X146934Y262877D01*
X147072Y263072D01*
X147072Y263074D01*
X147070Y263084D01*
X147077Y263095D01*
X147029Y263328D01*
X147021Y263375D01*
X147038Y263400D01*
X147079Y263450D01*
X147149Y263524D01*
X147172Y263583D01*
X147223Y263618D01*
X147227Y263641D01*
X148668Y265082D01*
X148727Y265103D01*
X148839Y265204D01*
X148845Y265208D01*
X149336Y265062D01*
X149347Y265045D01*
X149374Y265040D01*
X152707Y261707D01*
X152707Y261707D01*
X153071Y261464D01*
X153500Y261378D01*
X153500Y261379D01*
X188642D01*
X188704Y261351D01*
X188805Y261348D01*
X188879Y261342D01*
X188944Y261332D01*
X189000Y261319D01*
X189048Y261305D01*
X189087Y261289D01*
X189120Y261273D01*
X189147Y261256D01*
X189171Y261238D01*
X189215Y261197D01*
X189437Y261115D01*
X189656Y261024D01*
X189669Y261029D01*
X189681Y261024D01*
X189897Y261123D01*
X190116Y261214D01*
X190121Y261226D01*
X190133Y261232D01*
X190187Y261379D01*
X190813D01*
X190867Y261232D01*
X190879Y261226D01*
X190883Y261216D01*
X190884Y261214D01*
X191104Y261123D01*
X191319Y261024D01*
X191331Y261029D01*
X191343Y261024D01*
X191345Y261025D01*
X191563Y261115D01*
X191785Y261197D01*
X191829Y261238D01*
X191852Y261256D01*
X191880Y261273D01*
X191913Y261289D01*
X191952Y261305D01*
X192000Y261319D01*
X192056Y261332D01*
X192121Y261342D01*
X192195Y261348D01*
X192296Y261351D01*
X192358Y261379D01*
X202000D01*
X202000Y261378D01*
X202429Y261464D01*
X202793Y261707D01*
X203407Y262321D01*
X203407Y262321D01*
X203748Y262496D01*
X204098Y262316D01*
X204182Y262245D01*
X204185Y262245D01*
X204201Y262247D01*
X204217Y262235D01*
X204220Y262236D01*
X204446Y262269D01*
X204629Y262285D01*
X205285Y261629D01*
X205269Y261446D01*
X205236Y261220D01*
X205235Y261217D01*
X205247Y261201D01*
X205245Y261182D01*
X205394Y261004D01*
X205533Y260818D01*
X205535Y260818D01*
X205552Y260816D01*
X205564Y260801D01*
X205567Y260801D01*
X205795Y260781D01*
X206025Y260747D01*
X206061Y260756D01*
X206069Y260754D01*
X206089Y260746D01*
X206120Y260729D01*
X206160Y260701D01*
X206210Y260660D01*
X206282Y260593D01*
X206345Y260569D01*
X209878Y257035D01*
Y246600D01*
X209853Y246549D01*
X209839Y246372D01*
X209806Y246221D01*
X209744Y246042D01*
X209649Y245839D01*
X209521Y245614D01*
X209357Y245368D01*
X209323Y245323D01*
X208452Y244820D01*
X207680Y244048D01*
X207133Y243102D01*
X206850Y242046D01*
Y242000D01*
X215150D01*
Y242046D01*
X214867Y243102D01*
X214320Y244048D01*
X213548Y244820D01*
X212677Y245323D01*
X212643Y245368D01*
X212479Y245614D01*
X212350Y245839D01*
X212256Y246042D01*
X212194Y246221D01*
X212161Y246372D01*
X212147Y246549D01*
X212122Y246600D01*
Y257500D01*
X212036Y257929D01*
X211793Y258293D01*
X211793Y258293D01*
X207674Y262412D01*
X207648Y262477D01*
X207576Y262552D01*
X207450Y262695D01*
X207411Y262747D01*
X207326Y262871D01*
X207302Y262914D01*
X207280Y262958D01*
X207264Y262997D01*
X207245Y263053D01*
X207085Y263233D01*
X206931Y263418D01*
X206922Y263419D01*
X206916Y263425D01*
X206676Y263441D01*
X206643Y263444D01*
X206444Y263643D01*
X206441Y263675D01*
X206425Y263916D01*
X206419Y263922D01*
X206418Y263931D01*
X206233Y264086D01*
X206053Y264245D01*
X205981Y264361D01*
X205947Y264451D01*
X205921Y264550D01*
X205909Y264636D01*
X205946Y264841D01*
X205955Y264847D01*
X205960Y264874D01*
X213742Y272656D01*
X213804Y272679D01*
X213830Y272704D01*
X214000Y272633D01*
Y273552D01*
X213994Y273550D01*
X213880Y273508D01*
X213769Y273457D01*
X213662Y273395D01*
X213558Y273324D01*
X213458Y273244D01*
X213361Y273154D01*
X212654Y273861D01*
X212744Y273958D01*
X212825Y274058D01*
X212895Y274162D01*
X212957Y274269D01*
X213008Y274380D01*
X213050Y274494D01*
X213052Y274500D01*
X212133D01*
X212204Y274330D01*
X212179Y274304D01*
X212156Y274242D01*
X203313Y265399D01*
X203286Y265394D01*
X203242Y265329D01*
X203207Y265293D01*
X203207Y265293D01*
X203171Y265258D01*
X203106Y265214D01*
X203101Y265187D01*
X201535Y263621D01*
X192358D01*
X192296Y263649D01*
X192195Y263652D01*
X192121Y263658D01*
X192056Y263668D01*
X192000Y263681D01*
X191952Y263695D01*
X191913Y263711D01*
X191880Y263727D01*
X191852Y263744D01*
X191829Y263762D01*
X191785Y263803D01*
X191563Y263885D01*
X191346Y263975D01*
X191343Y263976D01*
X191331Y263971D01*
X191319Y263976D01*
X191104Y263877D01*
X190884Y263786D01*
X190884Y263785D01*
X190879Y263774D01*
X190867Y263768D01*
X190866Y263766D01*
X190813Y263621D01*
X190187D01*
X190133Y263768D01*
X190121Y263774D01*
X190117Y263784D01*
X190116Y263786D01*
X189896Y263877D01*
X189681Y263976D01*
X189669Y263971D01*
X189656Y263976D01*
X189655Y263975D01*
X189437Y263885D01*
X189215Y263803D01*
X189171Y263762D01*
X189147Y263744D01*
X189120Y263727D01*
X189087Y263711D01*
X189048Y263695D01*
X189000Y263681D01*
X188944Y263668D01*
X188879Y263658D01*
X188805Y263652D01*
X188704Y263649D01*
X188642Y263621D01*
X153965D01*
X149899Y267687D01*
X149894Y267714D01*
X149829Y267758D01*
X149793Y267793D01*
X149793Y267793D01*
X149758Y267828D01*
X149714Y267894D01*
X149687Y267899D01*
X144122Y273465D01*
Y277806D01*
X144149Y277866D01*
X144150Y277903D01*
X144347Y277984D01*
X145016Y278653D01*
X145367Y279500D01*
D02*
G37*
G36*
X195059Y272264D02*
Y270823D01*
X196500D01*
X196241Y271447D01*
X195683Y272005D01*
X195059Y272264D01*
D02*
G37*
G36*
X194059D02*
X193435Y272005D01*
X192877Y271447D01*
X192618Y270823D01*
X194059D01*
Y272264D01*
D02*
G37*
G36*
X189941D02*
Y270823D01*
X191382D01*
X191123Y271447D01*
X190565Y272005D01*
X189941Y272264D01*
D02*
G37*
G36*
X188941D02*
X188317Y272005D01*
X187759Y271447D01*
X187500Y270823D01*
X188941D01*
Y272264D01*
D02*
G37*
G36*
X196500Y269823D02*
X195059D01*
Y268382D01*
X195683Y268641D01*
X196241Y269199D01*
X196500Y269823D01*
D02*
G37*
G36*
X194059D02*
X192618D01*
X192877Y269199D01*
X193435Y268641D01*
X194059Y268382D01*
Y269823D01*
D02*
G37*
G36*
X191382D02*
X189941D01*
Y268382D01*
X190565Y268641D01*
X191123Y269199D01*
X191382Y269823D01*
D02*
G37*
G36*
X188941D02*
X187500D01*
X187759Y269199D01*
X188317Y268641D01*
X188941Y268382D01*
Y269823D01*
D02*
G37*
G36*
X10973Y274592D02*
X10027D01*
X9114Y274347D01*
X8294Y273874D01*
X7626Y273206D01*
X7153Y272387D01*
X6908Y271473D01*
Y270527D01*
X7153Y269614D01*
X7626Y268794D01*
X8294Y268126D01*
X9114Y267653D01*
X10027Y267408D01*
X10973D01*
X11886Y267653D01*
X12706Y268126D01*
X13374Y268794D01*
X13847Y269614D01*
X14092Y270527D01*
Y271473D01*
X13847Y272387D01*
X13374Y273206D01*
X12706Y273874D01*
X11886Y274347D01*
X10973Y274592D01*
D02*
G37*
G36*
X243894Y268591D02*
Y266701D01*
X245784D01*
X245428Y267560D01*
X244753Y268235D01*
X243894Y268591D01*
D02*
G37*
G36*
X242894D02*
X242034Y268235D01*
X241359Y267560D01*
X241003Y266701D01*
X242894D01*
Y268591D01*
D02*
G37*
G36*
X224209D02*
Y266701D01*
X226099D01*
X225743Y267560D01*
X225068Y268235D01*
X224209Y268591D01*
D02*
G37*
G36*
X223209D02*
X222349Y268235D01*
X221674Y267560D01*
X221318Y266701D01*
X223209D01*
Y268591D01*
D02*
G37*
G36*
X106098D02*
Y266701D01*
X107989D01*
X107633Y267560D01*
X106958Y268235D01*
X106098Y268591D01*
D02*
G37*
G36*
X105098D02*
X104239Y268235D01*
X103564Y267560D01*
X103208Y266701D01*
X105098D01*
Y268591D01*
D02*
G37*
G36*
X66728D02*
Y266701D01*
X68619D01*
X68263Y267560D01*
X67588Y268235D01*
X66728Y268591D01*
D02*
G37*
G36*
X65728D02*
X64869Y268235D01*
X64194Y267560D01*
X63838Y266701D01*
X65728D01*
Y268591D01*
D02*
G37*
G36*
X47043D02*
Y266701D01*
X48934D01*
X48578Y267560D01*
X47903Y268235D01*
X47043Y268591D01*
D02*
G37*
G36*
X46043D02*
X45184Y268235D01*
X44509Y267560D01*
X44153Y266701D01*
X46043D01*
Y268591D01*
D02*
G37*
G36*
X27358D02*
Y266701D01*
X29249D01*
X28893Y267560D01*
X28218Y268235D01*
X27358Y268591D01*
D02*
G37*
G36*
X26358D02*
X25499Y268235D01*
X24824Y267560D01*
X24468Y266701D01*
X26358D01*
Y268591D01*
D02*
G37*
G36*
X245784Y265701D02*
X243894D01*
Y263810D01*
X244753Y264166D01*
X245428Y264841D01*
X245784Y265701D01*
D02*
G37*
G36*
X242894D02*
X241003D01*
X241359Y264841D01*
X242034Y264166D01*
X242894Y263810D01*
Y265701D01*
D02*
G37*
G36*
X226099D02*
X224209D01*
Y263810D01*
X225068Y264166D01*
X225743Y264841D01*
X226099Y265701D01*
D02*
G37*
G36*
X223209D02*
X221318D01*
X221674Y264841D01*
X222349Y264166D01*
X223209Y263810D01*
Y265701D01*
D02*
G37*
G36*
X107989D02*
X106098D01*
Y263810D01*
X106958Y264166D01*
X107633Y264841D01*
X107989Y265701D01*
D02*
G37*
G36*
X105098D02*
X103208D01*
X103564Y264841D01*
X104239Y264166D01*
X105098Y263810D01*
Y265701D01*
D02*
G37*
G36*
X68619D02*
X66728D01*
Y263810D01*
X67588Y264166D01*
X68263Y264841D01*
X68619Y265701D01*
D02*
G37*
G36*
X65728D02*
X63838D01*
X64194Y264841D01*
X64869Y264166D01*
X65728Y263810D01*
Y265701D01*
D02*
G37*
G36*
X48934D02*
X47043D01*
Y263810D01*
X47903Y264166D01*
X48578Y264841D01*
X48934Y265701D01*
D02*
G37*
G36*
X46043D02*
X44153D01*
X44509Y264841D01*
X45184Y264166D01*
X46043Y263810D01*
Y265701D01*
D02*
G37*
G36*
X29249D02*
X27358D01*
Y263810D01*
X28218Y264166D01*
X28893Y264841D01*
X29249Y265701D01*
D02*
G37*
G36*
X26358D02*
X24468D01*
X24824Y264841D01*
X25499Y264166D01*
X26358Y263810D01*
Y265701D01*
D02*
G37*
G36*
X10973Y264592D02*
X10027D01*
X9114Y264347D01*
X8294Y263874D01*
X7626Y263206D01*
X7153Y262386D01*
X6908Y261473D01*
Y260527D01*
X7153Y259613D01*
X7626Y258794D01*
X8294Y258126D01*
X9114Y257653D01*
X10027Y257408D01*
X10973D01*
X11886Y257653D01*
X12706Y258126D01*
X13374Y258794D01*
X13847Y259613D01*
X14092Y260527D01*
Y261473D01*
X13847Y262386D01*
X13374Y263206D01*
X12706Y263874D01*
X11886Y264347D01*
X10973Y264592D01*
D02*
G37*
G36*
X95000Y249367D02*
Y247500D01*
X96867D01*
X96516Y248347D01*
X95847Y249016D01*
X95000Y249367D01*
D02*
G37*
G36*
X94000D02*
X93153Y249016D01*
X92484Y248347D01*
X92133Y247500D01*
X94000D01*
Y249367D01*
D02*
G37*
G36*
X10973Y254592D02*
X10027D01*
X9114Y254347D01*
X8294Y253874D01*
X7626Y253206D01*
X7153Y252386D01*
X6908Y251473D01*
Y250527D01*
X7153Y249613D01*
X7626Y248794D01*
X8294Y248126D01*
X9114Y247653D01*
X10027Y247408D01*
X10973D01*
X11886Y247653D01*
X12706Y248126D01*
X13374Y248794D01*
X13847Y249613D01*
X14092Y250527D01*
Y251473D01*
X13847Y252386D01*
X13374Y253206D01*
X12706Y253874D01*
X11886Y254347D01*
X10973Y254592D01*
D02*
G37*
G36*
X273421Y248906D02*
Y247016D01*
X275312D01*
X274956Y247875D01*
X274281Y248550D01*
X273421Y248906D01*
D02*
G37*
G36*
X272421D02*
X271562Y248550D01*
X270887Y247875D01*
X270531Y247016D01*
X272421D01*
Y248906D01*
D02*
G37*
G36*
X155311D02*
Y247016D01*
X157202D01*
X156846Y247875D01*
X156170Y248550D01*
X155311Y248906D01*
D02*
G37*
G36*
X154311D02*
X153452Y248550D01*
X152776Y247875D01*
X152420Y247016D01*
X154311D01*
Y248906D01*
D02*
G37*
G36*
X55886D02*
X55026Y248550D01*
X54351Y247875D01*
X53995Y247016D01*
X55886D01*
Y248906D01*
D02*
G37*
G36*
X37201D02*
Y247016D01*
X39091D01*
X38735Y247875D01*
X38060Y248550D01*
X37201Y248906D01*
D02*
G37*
G36*
X36201D02*
X35341Y248550D01*
X34666Y247875D01*
X34310Y247016D01*
X36201D01*
Y248906D01*
D02*
G37*
G36*
X17516D02*
Y247016D01*
X19406D01*
X19050Y247875D01*
X18375Y248550D01*
X17516Y248906D01*
D02*
G37*
G36*
X16516D02*
X15656Y248550D01*
X14981Y247875D01*
X14625Y247016D01*
X16516D01*
Y248906D01*
D02*
G37*
G36*
X96867Y246500D02*
X95000D01*
Y244633D01*
X95847Y244984D01*
X96516Y245653D01*
X96867Y246500D01*
D02*
G37*
G36*
X94000D02*
X92133D01*
X92484Y245653D01*
X93153Y244984D01*
X94000Y244633D01*
Y246500D01*
D02*
G37*
G36*
X275312Y246016D02*
X273421D01*
Y244125D01*
X274281Y244481D01*
X274956Y245156D01*
X275312Y246016D01*
D02*
G37*
G36*
X272421D02*
X270531D01*
X270887Y245156D01*
X271562Y244481D01*
X272421Y244125D01*
Y246016D01*
D02*
G37*
G36*
X157202D02*
X155311D01*
Y244125D01*
X156170Y244481D01*
X156846Y245156D01*
X157202Y246016D01*
D02*
G37*
G36*
X154311D02*
X152420D01*
X152776Y245156D01*
X153452Y244481D01*
X154311Y244125D01*
Y246016D01*
D02*
G37*
G36*
X39091D02*
X37201D01*
Y244125D01*
X38060Y244481D01*
X38735Y245156D01*
X39091Y246016D01*
D02*
G37*
G36*
X36201D02*
X34310D01*
X34666Y245156D01*
X35341Y244481D01*
X36201Y244125D01*
Y246016D01*
D02*
G37*
G36*
X19406D02*
X17516D01*
Y244125D01*
X18375Y244481D01*
X19050Y245156D01*
X19406Y246016D01*
D02*
G37*
G36*
X16516D02*
X14625D01*
X14981Y245156D01*
X15656Y244481D01*
X16516Y244125D01*
Y246016D01*
D02*
G37*
G36*
X125500Y243892D02*
Y243500D01*
X125892D01*
X125500Y243892D01*
D02*
G37*
G36*
X127367Y242500D02*
X125500D01*
Y240633D01*
X126347Y240984D01*
X127016Y241653D01*
X127367Y242500D01*
D02*
G37*
G36*
X124500Y245367D02*
X123653Y245016D01*
X122984Y244347D01*
X122903Y244150D01*
X122866Y244149D01*
X122806Y244122D01*
X111086D01*
X110657Y244036D01*
X110293Y243793D01*
X110293Y243793D01*
X109707Y243207D01*
X109464Y242843D01*
X109378Y242414D01*
X109378Y242414D01*
Y237694D01*
X109351Y237634D01*
X109350Y237597D01*
X109153Y237516D01*
X108484Y236847D01*
X108133Y236000D01*
X112867D01*
X112516Y236847D01*
X111847Y237516D01*
X111650Y237597D01*
X111649Y237634D01*
X111622Y237694D01*
Y241879D01*
X122806D01*
X122866Y241851D01*
X122903Y241850D01*
X122984Y241653D01*
X123653Y240984D01*
X124500Y240633D01*
Y243000D01*
Y245367D01*
D02*
G37*
G36*
X287473Y245092D02*
X286527D01*
X285613Y244847D01*
X284794Y244374D01*
X284126Y243706D01*
X283653Y242886D01*
X283408Y241973D01*
Y241027D01*
X283653Y240113D01*
X284126Y239294D01*
X284794Y238626D01*
X285613Y238153D01*
X286527Y237908D01*
X287473D01*
X288387Y238153D01*
X289206Y238626D01*
X289874Y239294D01*
X290347Y240113D01*
X290592Y241027D01*
Y241973D01*
X290347Y242886D01*
X289874Y243706D01*
X289206Y244374D01*
X288387Y244847D01*
X287473Y245092D01*
D02*
G37*
G36*
X201494Y245250D02*
X200506D01*
X199553Y244994D01*
X198698Y244500D01*
X198000Y243802D01*
X197506Y242947D01*
X197250Y241994D01*
Y241006D01*
X197506Y240053D01*
X198000Y239198D01*
X198698Y238500D01*
X199553Y238006D01*
X200506Y237750D01*
X201494D01*
X202447Y238006D01*
X203302Y238500D01*
X204000Y239198D01*
X204494Y240053D01*
X204750Y241006D01*
Y241994D01*
X204494Y242947D01*
X204000Y243802D01*
X203302Y244500D01*
X202447Y244994D01*
X201494Y245250D01*
D02*
G37*
G36*
X194750D02*
X187250D01*
Y237750D01*
X194750D01*
Y245250D01*
D02*
G37*
G36*
X10973Y244592D02*
X10027D01*
X9114Y244347D01*
X8294Y243874D01*
X7626Y243206D01*
X7153Y242387D01*
X6908Y241473D01*
Y240527D01*
X7153Y239614D01*
X7626Y238794D01*
X8294Y238126D01*
X9114Y237653D01*
X10027Y237408D01*
X10973D01*
X11886Y237653D01*
X12706Y238126D01*
X13374Y238794D01*
X13847Y239614D01*
X14092Y240527D01*
Y241473D01*
X13847Y242387D01*
X13374Y243206D01*
X12706Y243874D01*
X11886Y244347D01*
X10973Y244592D01*
D02*
G37*
G36*
X215150Y241000D02*
X211500D01*
Y237350D01*
X211546D01*
X212602Y237633D01*
X213548Y238179D01*
X214320Y238952D01*
X214867Y239898D01*
X215150Y240954D01*
Y241000D01*
D02*
G37*
G36*
X210500D02*
X206850D01*
Y240954D01*
X207133Y239898D01*
X207680Y238952D01*
X208452Y238179D01*
X209398Y237633D01*
X210454Y237350D01*
X210500D01*
Y241000D01*
D02*
G37*
G36*
X112867Y235000D02*
X111000D01*
Y233133D01*
X111847Y233484D01*
X112516Y234153D01*
X112867Y235000D01*
D02*
G37*
G36*
X110000D02*
X108133D01*
X108484Y234153D01*
X109153Y233484D01*
X110000Y233133D01*
Y235000D01*
D02*
G37*
G36*
X287473Y235092D02*
X286527D01*
X285613Y234847D01*
X284794Y234374D01*
X284126Y233706D01*
X283653Y232887D01*
X283408Y231973D01*
Y231027D01*
X283653Y230114D01*
X284041Y229440D01*
X283694Y229043D01*
X283264Y229221D01*
Y227331D01*
X285154D01*
X284877Y228000D01*
X285274Y228349D01*
X285613Y228153D01*
X286527Y227908D01*
X287473D01*
X288387Y228153D01*
X289206Y228626D01*
X289874Y229294D01*
X290347Y230114D01*
X290592Y231027D01*
Y231973D01*
X290347Y232887D01*
X289874Y233706D01*
X289206Y234374D01*
X288387Y234847D01*
X287473Y235092D01*
D02*
G37*
G36*
X10973Y234592D02*
X10027D01*
X9114Y234347D01*
X8294Y233874D01*
X7626Y233206D01*
X7153Y232386D01*
X6908Y231473D01*
Y230527D01*
X7153Y229613D01*
X7626Y228794D01*
X8294Y228126D01*
X9114Y227653D01*
X10027Y227408D01*
X10973D01*
X11886Y227653D01*
X12706Y228126D01*
X13374Y228794D01*
X13847Y229613D01*
X14092Y230527D01*
Y231473D01*
X13847Y232386D01*
X13374Y233206D01*
X12706Y233874D01*
X11886Y234347D01*
X10973Y234592D01*
D02*
G37*
G36*
X282264Y229221D02*
X281404Y228865D01*
X280729Y228190D01*
X280373Y227331D01*
X282264D01*
Y229221D01*
D02*
G37*
G36*
X263579D02*
Y227331D01*
X265469D01*
X265113Y228190D01*
X264438Y228865D01*
X263579Y229221D01*
D02*
G37*
G36*
X262579D02*
X261719Y228865D01*
X261044Y228190D01*
X260688Y227331D01*
X262579D01*
Y229221D01*
D02*
G37*
G36*
X224209D02*
Y227331D01*
X226099D01*
X225743Y228190D01*
X225068Y228865D01*
X224209Y229221D01*
D02*
G37*
G36*
X223209D02*
X222349Y228865D01*
X221674Y228190D01*
X221318Y227331D01*
X223209D01*
Y229221D01*
D02*
G37*
G36*
X204524D02*
Y227331D01*
X206414D01*
X206058Y228190D01*
X205383Y228865D01*
X204524Y229221D01*
D02*
G37*
G36*
X203524D02*
X202664Y228865D01*
X201989Y228190D01*
X201633Y227331D01*
X203524D01*
Y229221D01*
D02*
G37*
G36*
X145468D02*
Y227331D01*
X147359D01*
X147003Y228190D01*
X146328Y228865D01*
X145468Y229221D01*
D02*
G37*
G36*
X144468D02*
X143609Y228865D01*
X142934Y228190D01*
X142578Y227331D01*
X144468D01*
Y229221D01*
D02*
G37*
G36*
X27358D02*
Y227331D01*
X29249D01*
X28893Y228190D01*
X28218Y228865D01*
X27358Y229221D01*
D02*
G37*
G36*
X26358D02*
X25499Y228865D01*
X24824Y228190D01*
X24468Y227331D01*
X26358D01*
Y229221D01*
D02*
G37*
G36*
X76000Y226367D02*
Y224500D01*
X77867D01*
X77516Y225347D01*
X76847Y226016D01*
X76000Y226367D01*
D02*
G37*
G36*
X75000D02*
X74153Y226016D01*
X73484Y225347D01*
X73133Y224500D01*
X75000D01*
Y226367D01*
D02*
G37*
G36*
X285154Y226331D02*
X283264D01*
Y224440D01*
X284123Y224796D01*
X284798Y225471D01*
X285154Y226331D01*
D02*
G37*
G36*
X282264D02*
X280373D01*
X280729Y225471D01*
X281404Y224796D01*
X282264Y224440D01*
Y226331D01*
D02*
G37*
G36*
X265469D02*
X263579D01*
Y224440D01*
X264438Y224796D01*
X265113Y225471D01*
X265469Y226331D01*
D02*
G37*
G36*
X262579D02*
X260688D01*
X261044Y225471D01*
X261719Y224796D01*
X262579Y224440D01*
Y226331D01*
D02*
G37*
G36*
X226099D02*
X224209D01*
Y224440D01*
X225068Y224796D01*
X225743Y225471D01*
X226099Y226331D01*
D02*
G37*
G36*
X223209D02*
X221318D01*
X221674Y225471D01*
X222349Y224796D01*
X223209Y224440D01*
Y226331D01*
D02*
G37*
G36*
X206414D02*
X204524D01*
Y224440D01*
X205383Y224796D01*
X206058Y225471D01*
X206414Y226331D01*
D02*
G37*
G36*
X203524D02*
X201633D01*
X201989Y225471D01*
X202664Y224796D01*
X203524Y224440D01*
Y226331D01*
D02*
G37*
G36*
X147359D02*
X145468D01*
Y224440D01*
X146328Y224796D01*
X147003Y225471D01*
X147359Y226331D01*
D02*
G37*
G36*
X144468D02*
X142578D01*
X142934Y225471D01*
X143609Y224796D01*
X144468Y224440D01*
Y226331D01*
D02*
G37*
G36*
X29249D02*
X27358D01*
Y224440D01*
X28218Y224796D01*
X28893Y225471D01*
X29249Y226331D01*
D02*
G37*
G36*
X26358D02*
X24468D01*
X24824Y225471D01*
X25499Y224796D01*
X26358Y224440D01*
Y226331D01*
D02*
G37*
G36*
X67000Y225367D02*
Y223500D01*
X68867D01*
X68516Y224347D01*
X67847Y225016D01*
X67000Y225367D01*
D02*
G37*
G36*
X66000D02*
X65153Y225016D01*
X64484Y224347D01*
X64133Y223500D01*
X66000D01*
Y225367D01*
D02*
G37*
G36*
X208893Y223978D02*
X208107D01*
X207380Y223677D01*
X207182Y223479D01*
X207069Y223436D01*
X206994Y223365D01*
X206937Y223319D01*
X206879Y223279D01*
X206820Y223245D01*
X206759Y223217D01*
X206695Y223194D01*
X206627Y223175D01*
X206554Y223162D01*
X206475Y223153D01*
X206366Y223149D01*
X206306Y223122D01*
X198694D01*
X198634Y223149D01*
X198525Y223153D01*
X198446Y223162D01*
X198373Y223175D01*
X198305Y223194D01*
X198241Y223217D01*
X198180Y223245D01*
X198121Y223279D01*
X198063Y223319D01*
X198005Y223365D01*
X197931Y223436D01*
X197818Y223479D01*
X197620Y223677D01*
X196893Y223978D01*
X196107D01*
X195380Y223677D01*
X194823Y223120D01*
X194522Y222393D01*
Y221607D01*
X194823Y220880D01*
X195380Y220323D01*
X196107Y220022D01*
X196893D01*
X197620Y220323D01*
X197818Y220521D01*
X197931Y220564D01*
X198006Y220635D01*
X198063Y220682D01*
X198121Y220721D01*
X198180Y220755D01*
X198241Y220783D01*
X198305Y220806D01*
X198373Y220825D01*
X198446Y220838D01*
X198525Y220847D01*
X198634Y220851D01*
X198694Y220879D01*
X206306D01*
X206366Y220851D01*
X206475Y220847D01*
X206554Y220838D01*
X206627Y220825D01*
X206695Y220806D01*
X206759Y220783D01*
X206820Y220755D01*
X206879Y220721D01*
X206937Y220682D01*
X206995Y220635D01*
X207069Y220564D01*
X207182Y220521D01*
X207380Y220323D01*
X208107Y220022D01*
X208893D01*
X209620Y220323D01*
X210177Y220880D01*
X210478Y221607D01*
Y222393D01*
X210177Y223120D01*
X209620Y223677D01*
X208893Y223978D01*
D02*
G37*
G36*
X77867Y223500D02*
X76000D01*
Y221633D01*
X76847Y221984D01*
X77516Y222653D01*
X77867Y223500D01*
D02*
G37*
G36*
X75000D02*
X73133D01*
X73484Y222653D01*
X74153Y221984D01*
X75000Y221633D01*
Y223500D01*
D02*
G37*
G36*
X138500Y222867D02*
X137653Y222516D01*
X136984Y221847D01*
X136903Y221650D01*
X136866Y221649D01*
X136806Y221621D01*
X120694D01*
X120634Y221649D01*
X120597Y221650D01*
X120516Y221847D01*
X119847Y222516D01*
X119000Y222867D01*
Y220500D01*
Y218133D01*
X119847Y218484D01*
X120516Y219153D01*
X120597Y219350D01*
X120634Y219351D01*
X120694Y219378D01*
X136806D01*
X136866Y219351D01*
X136903Y219350D01*
X136984Y219153D01*
X137653Y218484D01*
X138500Y218133D01*
Y220500D01*
Y222867D01*
D02*
G37*
G36*
X85500Y223367D02*
Y221500D01*
X87367D01*
X87016Y222347D01*
X86347Y223016D01*
X85500Y223367D01*
D02*
G37*
G36*
X84500D02*
X83653Y223016D01*
X82984Y222347D01*
X82633Y221500D01*
X84500D01*
Y223367D01*
D02*
G37*
G36*
X139500Y222867D02*
Y221000D01*
X141367D01*
X141016Y221847D01*
X140347Y222516D01*
X139500Y222867D01*
D02*
G37*
G36*
X118000D02*
X117153Y222516D01*
X116484Y221847D01*
X116133Y221000D01*
X118000D01*
Y222867D01*
D02*
G37*
G36*
X68867Y222500D02*
X67000D01*
Y220633D01*
X67847Y220984D01*
X68516Y221653D01*
X68867Y222500D01*
D02*
G37*
G36*
X66000D02*
X64133D01*
X64484Y221653D01*
X65153Y220984D01*
X66000Y220633D01*
Y222500D01*
D02*
G37*
G36*
X87367Y220500D02*
X85500D01*
Y218633D01*
X86347Y218984D01*
X87016Y219653D01*
X87367Y220500D01*
D02*
G37*
G36*
X84500D02*
X82633D01*
X82984Y219653D01*
X83653Y218984D01*
X84500Y218633D01*
Y220500D01*
D02*
G37*
G36*
X141367Y220000D02*
X139500D01*
Y218133D01*
X140347Y218484D01*
X141016Y219153D01*
X141367Y220000D01*
D02*
G37*
G36*
X118000D02*
X116133D01*
X116484Y219153D01*
X117153Y218484D01*
X118000Y218133D01*
Y220000D01*
D02*
G37*
G36*
X287473Y225092D02*
X286527D01*
X285613Y224847D01*
X284794Y224374D01*
X284126Y223706D01*
X283653Y222886D01*
X283408Y221973D01*
Y221027D01*
X283653Y220113D01*
X284126Y219294D01*
X284794Y218626D01*
X285613Y218153D01*
X286527Y217908D01*
X287473D01*
X288387Y218153D01*
X289206Y218626D01*
X289874Y219294D01*
X290347Y220113D01*
X290592Y221027D01*
Y221973D01*
X290347Y222886D01*
X289874Y223706D01*
X289206Y224374D01*
X288387Y224847D01*
X287473Y225092D01*
D02*
G37*
G36*
X10973Y224592D02*
X10027D01*
X9114Y224347D01*
X8294Y223874D01*
X7626Y223206D01*
X7153Y222387D01*
X6908Y221473D01*
Y220527D01*
X7153Y219614D01*
X7626Y218794D01*
X8294Y218126D01*
X9114Y217653D01*
X10027Y217408D01*
X10973D01*
X11886Y217653D01*
X12706Y218126D01*
X13374Y218794D01*
X13847Y219614D01*
X14092Y220527D01*
Y221473D01*
X13847Y222387D01*
X13374Y223206D01*
X12706Y223874D01*
X11886Y224347D01*
X10973Y224592D01*
D02*
G37*
G36*
X202500Y212367D02*
X201653Y212016D01*
X200984Y211347D01*
X200903Y211150D01*
X200866Y211149D01*
X200806Y211122D01*
X187000D01*
X187000Y211122D01*
X186571Y211036D01*
X186207Y210793D01*
X182912Y207498D01*
X182850Y207475D01*
X182823Y207450D01*
X182653Y207520D01*
Y206602D01*
X182660Y206603D01*
X182774Y206645D01*
X182885Y206697D01*
X182992Y206758D01*
X183096Y206829D01*
X183196Y206909D01*
X183293Y207000D01*
X184000Y206293D01*
X183909Y206196D01*
X183829Y206096D01*
X183758Y205992D01*
X183697Y205885D01*
X183645Y205774D01*
X183603Y205660D01*
X183601Y205654D01*
X184520D01*
X184450Y205823D01*
X184475Y205850D01*
X184498Y205912D01*
X187465Y208878D01*
X200806D01*
X200866Y208851D01*
X200903Y208850D01*
X200984Y208653D01*
X201653Y207984D01*
X202500Y207633D01*
Y210000D01*
Y212367D01*
D02*
G37*
G36*
X203500D02*
Y210500D01*
X205367D01*
X205016Y211347D01*
X204347Y212016D01*
X203500Y212367D01*
D02*
G37*
G36*
X287473Y215092D02*
X286527D01*
X285613Y214847D01*
X284794Y214374D01*
X284126Y213706D01*
X283653Y212887D01*
X283408Y211973D01*
Y211027D01*
X283653Y210114D01*
X284126Y209294D01*
X284794Y208626D01*
X285613Y208153D01*
X286527Y207908D01*
X287473D01*
X288387Y208153D01*
X289206Y208626D01*
X289874Y209294D01*
X290347Y210114D01*
X290592Y211027D01*
Y211973D01*
X290347Y212887D01*
X289874Y213706D01*
X289206Y214374D01*
X288387Y214847D01*
X287473Y215092D01*
D02*
G37*
G36*
X174996Y209536D02*
Y207646D01*
X176887D01*
X176531Y208505D01*
X175856Y209180D01*
X174996Y209536D01*
D02*
G37*
G36*
X173996D02*
X173137Y209180D01*
X172461Y208505D01*
X172105Y207646D01*
X173996D01*
Y209536D01*
D02*
G37*
G36*
X155311D02*
Y207646D01*
X157202D01*
X156846Y208505D01*
X156170Y209180D01*
X155311Y209536D01*
D02*
G37*
G36*
X154311D02*
X153452Y209180D01*
X152776Y208505D01*
X152420Y207646D01*
X154311D01*
Y209536D01*
D02*
G37*
G36*
X135626D02*
Y207646D01*
X137517D01*
X137161Y208505D01*
X136486Y209180D01*
X135626Y209536D01*
D02*
G37*
G36*
X134626D02*
X133766Y209180D01*
X133091Y208505D01*
X132735Y207646D01*
X134626D01*
Y209536D01*
D02*
G37*
G36*
X37201D02*
Y207646D01*
X39091D01*
X38735Y208505D01*
X38060Y209180D01*
X37201Y209536D01*
D02*
G37*
G36*
X36201D02*
X35341Y209180D01*
X34666Y208505D01*
X34310Y207646D01*
X36201D01*
Y209536D01*
D02*
G37*
G36*
X17516D02*
Y207646D01*
X19406D01*
X19050Y208505D01*
X18375Y209180D01*
X17516Y209536D01*
D02*
G37*
G36*
X16516D02*
X15656Y209180D01*
X14981Y208505D01*
X14625Y207646D01*
X16516D01*
Y209536D01*
D02*
G37*
G36*
X205367Y209500D02*
X203500D01*
Y207633D01*
X204347Y207984D01*
X205016Y208653D01*
X205367Y209500D01*
D02*
G37*
G36*
X65000Y209367D02*
Y207500D01*
X66867D01*
X66516Y208347D01*
X65847Y209016D01*
X65000Y209367D01*
D02*
G37*
G36*
X64000D02*
X63153Y209016D01*
X62484Y208347D01*
X62133Y207500D01*
X64000D01*
Y209367D01*
D02*
G37*
G36*
X182653Y206045D02*
Y205654D01*
X183045D01*
X182653Y206045D01*
D02*
G37*
G36*
X181653Y207520D02*
X180807Y207170D01*
X180138Y206501D01*
X179787Y205654D01*
X181653D01*
Y207520D01*
D02*
G37*
G36*
X176887Y206646D02*
X174996D01*
Y204755D01*
X175856Y205111D01*
X176531Y205786D01*
X176887Y206646D01*
D02*
G37*
G36*
X173996D02*
X172105D01*
X172461Y205786D01*
X173137Y205111D01*
X173996Y204755D01*
Y206646D01*
D02*
G37*
G36*
X157202D02*
X155311D01*
Y204755D01*
X156170Y205111D01*
X156846Y205786D01*
X157202Y206646D01*
D02*
G37*
G36*
X154311D02*
X152420D01*
X152776Y205786D01*
X153452Y205111D01*
X154311Y204755D01*
Y206646D01*
D02*
G37*
G36*
X137517D02*
X135626D01*
Y204755D01*
X136486Y205111D01*
X137161Y205786D01*
X137517Y206646D01*
D02*
G37*
G36*
X134626D02*
X132735D01*
X133091Y205786D01*
X133766Y205111D01*
X134626Y204755D01*
Y206646D01*
D02*
G37*
G36*
X39091D02*
X37201D01*
Y204755D01*
X38060Y205111D01*
X38735Y205786D01*
X39091Y206646D01*
D02*
G37*
G36*
X36201D02*
X34310D01*
X34666Y205786D01*
X35341Y205111D01*
X36201Y204755D01*
Y206646D01*
D02*
G37*
G36*
X19406D02*
X17516D01*
Y204755D01*
X18375Y205111D01*
X19050Y205786D01*
X19406Y206646D01*
D02*
G37*
G36*
X16516D02*
X14625D01*
X14981Y205786D01*
X15656Y205111D01*
X16516Y204755D01*
Y206646D01*
D02*
G37*
G36*
X66867Y206500D02*
X65000D01*
Y204633D01*
X65847Y204984D01*
X66516Y205653D01*
X66867Y206500D01*
D02*
G37*
G36*
X64000D02*
X62133D01*
X62484Y205653D01*
X63153Y204984D01*
X64000Y204633D01*
Y206500D01*
D02*
G37*
G36*
X91000Y204867D02*
Y203000D01*
X92867D01*
X92516Y203847D01*
X91847Y204516D01*
X91000Y204867D01*
D02*
G37*
G36*
X90000D02*
X89153Y204516D01*
X88484Y203847D01*
X88133Y203000D01*
X90000D01*
Y204867D01*
D02*
G37*
G36*
X184520Y204654D02*
X182653D01*
Y202787D01*
X183501Y203138D01*
X184169Y203806D01*
X184520Y204654D01*
D02*
G37*
G36*
X181653D02*
X179787D01*
X180138Y203806D01*
X180807Y203138D01*
X181653Y202787D01*
Y204654D01*
D02*
G37*
G36*
X287473Y205092D02*
X286527D01*
X285613Y204847D01*
X284794Y204374D01*
X284126Y203706D01*
X283653Y202887D01*
X283408Y201973D01*
Y201027D01*
X283653Y200114D01*
X284126Y199294D01*
X284794Y198626D01*
X285613Y198153D01*
X286527Y197908D01*
X287473D01*
X288387Y198153D01*
X289206Y198626D01*
X289874Y199294D01*
X290347Y200114D01*
X290592Y201027D01*
Y201973D01*
X290347Y202887D01*
X289874Y203706D01*
X289206Y204374D01*
X288387Y204847D01*
X287473Y205092D01*
D02*
G37*
G36*
X197893Y206978D02*
X197107D01*
X196380Y206677D01*
X195823Y206120D01*
X195522Y205393D01*
Y204607D01*
X195823Y203880D01*
X196380Y203323D01*
X197107Y203022D01*
X197386D01*
X197496Y202973D01*
X197599Y202970D01*
X197673Y202962D01*
X197742Y202949D01*
X197808Y202931D01*
X197871Y202908D01*
X197932Y202879D01*
X197994Y202844D01*
X198055Y202802D01*
X198117Y202753D01*
X198196Y202679D01*
X198258Y202656D01*
X200656Y200258D01*
X200679Y200196D01*
X200753Y200117D01*
X200802Y200055D01*
X200844Y199994D01*
X200879Y199932D01*
X200908Y199871D01*
X200931Y199808D01*
X200949Y199742D01*
X200962Y199673D01*
X200970Y199599D01*
X200973Y199496D01*
X201022Y199386D01*
Y199107D01*
X201323Y198380D01*
X201880Y197823D01*
X202607Y197522D01*
X203393D01*
X204120Y197823D01*
X204677Y198380D01*
X204978Y199107D01*
Y199893D01*
X204677Y200620D01*
X204120Y201177D01*
X203393Y201478D01*
X203114D01*
X203004Y201527D01*
X202901Y201530D01*
X202827Y201538D01*
X202758Y201551D01*
X202693Y201569D01*
X202629Y201592D01*
X202568Y201621D01*
X202506Y201656D01*
X202445Y201697D01*
X202383Y201747D01*
X202304Y201821D01*
X202242Y201844D01*
X199844Y204242D01*
X199821Y204304D01*
X199747Y204383D01*
X199698Y204445D01*
X199656Y204506D01*
X199621Y204568D01*
X199592Y204629D01*
X199569Y204693D01*
X199551Y204758D01*
X199538Y204827D01*
X199530Y204901D01*
X199527Y205004D01*
X199478Y205114D01*
Y205393D01*
X199177Y206120D01*
X198620Y206677D01*
X197893Y206978D01*
D02*
G37*
G36*
X64000Y193867D02*
Y192000D01*
X65867D01*
X65516Y192847D01*
X64847Y193516D01*
X64000Y193867D01*
D02*
G37*
G36*
X87750Y229500D02*
X57250D01*
Y154500D01*
X85250D01*
X94750Y164000D01*
Y170250D01*
X104500Y180000D01*
X115496D01*
X115703Y179500D01*
X115323Y179120D01*
X115022Y178393D01*
Y177607D01*
X115323Y176880D01*
X115521Y176682D01*
X115564Y176569D01*
X115635Y176494D01*
X115682Y176437D01*
X115721Y176379D01*
X115755Y176320D01*
X115783Y176259D01*
X115806Y176195D01*
X115825Y176127D01*
X115839Y176054D01*
X115847Y175975D01*
X115851Y175866D01*
X115878Y175806D01*
Y173465D01*
X95758Y153344D01*
X95696Y153321D01*
X95617Y153247D01*
X95555Y153198D01*
X95494Y153156D01*
X95432Y153121D01*
X95371Y153092D01*
X95308Y153069D01*
X95242Y153051D01*
X95173Y153038D01*
X95099Y153030D01*
X94996Y153027D01*
X94886Y152978D01*
X94607D01*
X93880Y152677D01*
X93323Y152120D01*
X93022Y151393D01*
Y150607D01*
X93323Y149880D01*
X93880Y149323D01*
X94607Y149022D01*
X95393D01*
X96120Y149323D01*
X96677Y149880D01*
X96978Y150607D01*
Y150886D01*
X97027Y150996D01*
X97030Y151099D01*
X97038Y151173D01*
X97051Y151242D01*
X97069Y151307D01*
X97092Y151371D01*
X97121Y151432D01*
X97156Y151494D01*
X97198Y151555D01*
X97247Y151617D01*
X97321Y151696D01*
X97344Y151758D01*
X117793Y172207D01*
X117793Y172207D01*
X118036Y172571D01*
X118122Y173000D01*
X118122Y173000D01*
Y175806D01*
X118149Y175866D01*
X118153Y175975D01*
X118161Y176054D01*
X118175Y176127D01*
X118194Y176195D01*
X118217Y176259D01*
X118245Y176320D01*
X118279Y176379D01*
X118318Y176437D01*
X118365Y176495D01*
X118436Y176569D01*
X118479Y176682D01*
X118677Y176880D01*
X118978Y177607D01*
Y178393D01*
X118677Y179120D01*
X118120Y179677D01*
X117393Y179978D01*
X117241D01*
X116750Y180000D01*
X116750Y182500D01*
X103500Y182500D01*
X91750Y170750D01*
Y169881D01*
X91250Y169782D01*
X91016Y170347D01*
X90347Y171016D01*
X89500Y171367D01*
Y169000D01*
Y166633D01*
X90347Y166984D01*
X91016Y167653D01*
X91250Y168218D01*
X91750Y168119D01*
Y164000D01*
X84750Y157000D01*
X61250D01*
Y180119D01*
X61750Y180218D01*
X61984Y179653D01*
X62653Y178984D01*
X63500Y178633D01*
Y181000D01*
Y183367D01*
X62653Y183016D01*
X61984Y182347D01*
X61750Y181782D01*
X61250Y181881D01*
Y189680D01*
X61750Y189887D01*
X62153Y189484D01*
X63000Y189133D01*
Y191500D01*
Y193867D01*
X62153Y193516D01*
X61750Y193113D01*
X61250Y193320D01*
Y227000D01*
X85250D01*
X88750Y223500D01*
Y212000D01*
X96750Y204000D01*
Y191489D01*
X96288Y191298D01*
X91622Y195965D01*
Y200306D01*
X91649Y200366D01*
X91650Y200403D01*
X91847Y200484D01*
X92516Y201153D01*
X92867Y202000D01*
X88133D01*
X88484Y201153D01*
X89153Y200484D01*
X89350Y200403D01*
X89351Y200366D01*
X89378Y200306D01*
Y195500D01*
X89378Y195500D01*
X89464Y195071D01*
X89707Y194707D01*
X99207Y185207D01*
X99207Y185207D01*
X99571Y184964D01*
X100000Y184878D01*
X100000Y184878D01*
X134806D01*
X134866Y184851D01*
X134903Y184850D01*
X134984Y184653D01*
X135653Y183984D01*
X136500Y183633D01*
Y186000D01*
Y188367D01*
X135653Y188016D01*
X134984Y187347D01*
X134903Y187150D01*
X134866Y187149D01*
X134806Y187122D01*
X116750D01*
Y189000D01*
X103250Y189000D01*
X99750Y192500D01*
Y205000D01*
X91750Y213000D01*
Y225500D01*
X87750Y229500D01*
D02*
G37*
G36*
X65867Y191000D02*
X64000D01*
Y189133D01*
X64847Y189484D01*
X65516Y190153D01*
X65867Y191000D01*
D02*
G37*
G36*
X263579Y189851D02*
Y187961D01*
X265469D01*
X265113Y188820D01*
X264438Y189495D01*
X263579Y189851D01*
D02*
G37*
G36*
X262579D02*
X261719Y189495D01*
X261044Y188820D01*
X260688Y187961D01*
X262579D01*
Y189851D01*
D02*
G37*
G36*
X204524D02*
Y187961D01*
X206414D01*
X206058Y188820D01*
X205383Y189495D01*
X204524Y189851D01*
D02*
G37*
G36*
X203524D02*
X202664Y189495D01*
X201989Y188820D01*
X201633Y187961D01*
X203524D01*
Y189851D01*
D02*
G37*
G36*
X184839D02*
Y187961D01*
X186729D01*
X186373Y188820D01*
X185698Y189495D01*
X184839Y189851D01*
D02*
G37*
G36*
X183839D02*
X182979Y189495D01*
X182304Y188820D01*
X181948Y187961D01*
X183839D01*
Y189851D01*
D02*
G37*
G36*
X165154D02*
Y187961D01*
X167044D01*
X166688Y188820D01*
X166013Y189495D01*
X165154Y189851D01*
D02*
G37*
G36*
X164154D02*
X163294Y189495D01*
X162619Y188820D01*
X162263Y187961D01*
X164154D01*
Y189851D01*
D02*
G37*
G36*
X145468D02*
Y187961D01*
X147359D01*
X147003Y188820D01*
X146328Y189495D01*
X145468Y189851D01*
D02*
G37*
G36*
X144468D02*
X143609Y189495D01*
X142934Y188820D01*
X142578Y187961D01*
X144468D01*
Y189851D01*
D02*
G37*
G36*
X86413D02*
Y187961D01*
X88304D01*
X87948Y188820D01*
X87273Y189495D01*
X86413Y189851D01*
D02*
G37*
G36*
X85413D02*
X84554Y189495D01*
X83879Y188820D01*
X83523Y187961D01*
X85413D01*
Y189851D01*
D02*
G37*
G36*
X287473Y195092D02*
X286527D01*
X285613Y194847D01*
X284794Y194374D01*
X284126Y193706D01*
X283653Y192886D01*
X283408Y191973D01*
Y191027D01*
X283653Y190113D01*
X284126Y189294D01*
X284794Y188626D01*
X285613Y188153D01*
X286527Y187908D01*
X287473D01*
X288387Y188153D01*
X289206Y188626D01*
X289874Y189294D01*
X290347Y190113D01*
X290592Y191027D01*
Y191973D01*
X290347Y192886D01*
X289874Y193706D01*
X289206Y194374D01*
X288387Y194847D01*
X287473Y195092D01*
D02*
G37*
G36*
X137500Y188367D02*
Y186500D01*
X139367D01*
X139016Y187347D01*
X138347Y188016D01*
X137500Y188367D01*
D02*
G37*
G36*
X265469Y186961D02*
X263579D01*
Y185070D01*
X264438Y185426D01*
X265113Y186101D01*
X265469Y186961D01*
D02*
G37*
G36*
X262579D02*
X260688D01*
X261044Y186101D01*
X261719Y185426D01*
X262579Y185070D01*
Y186961D01*
D02*
G37*
G36*
X206414D02*
X204524D01*
Y185070D01*
X205383Y185426D01*
X206058Y186101D01*
X206414Y186961D01*
D02*
G37*
G36*
X203524D02*
X201633D01*
X201989Y186101D01*
X202664Y185426D01*
X203524Y185070D01*
Y186961D01*
D02*
G37*
G36*
X186729D02*
X184839D01*
Y185070D01*
X185698Y185426D01*
X186373Y186101D01*
X186729Y186961D01*
D02*
G37*
G36*
X183839D02*
X181948D01*
X182304Y186101D01*
X182979Y185426D01*
X183839Y185070D01*
Y186961D01*
D02*
G37*
G36*
X167044D02*
X165154D01*
Y185070D01*
X166013Y185426D01*
X166688Y186101D01*
X167044Y186961D01*
D02*
G37*
G36*
X164154D02*
X162263D01*
X162619Y186101D01*
X163294Y185426D01*
X164154Y185070D01*
Y186961D01*
D02*
G37*
G36*
X147359D02*
X145468D01*
Y185070D01*
X146328Y185426D01*
X147003Y186101D01*
X147359Y186961D01*
D02*
G37*
G36*
X144468D02*
X142578D01*
X142934Y186101D01*
X143609Y185426D01*
X144468Y185070D01*
Y186961D01*
D02*
G37*
G36*
X88304D02*
X86413D01*
Y185070D01*
X87273Y185426D01*
X87948Y186101D01*
X88304Y186961D01*
D02*
G37*
G36*
X85413D02*
X83523D01*
X83879Y186101D01*
X84554Y185426D01*
X85413Y185070D01*
Y186961D01*
D02*
G37*
G36*
X139367Y185500D02*
X137500D01*
Y183633D01*
X138347Y183984D01*
X139016Y184653D01*
X139367Y185500D01*
D02*
G37*
G36*
X64500Y183367D02*
Y181500D01*
X66367D01*
X66016Y182347D01*
X65347Y183016D01*
X64500Y183367D01*
D02*
G37*
G36*
X66367Y180500D02*
X64500D01*
Y178633D01*
X65347Y178984D01*
X66016Y179653D01*
X66367Y180500D01*
D02*
G37*
G36*
X269393Y236978D02*
X268607D01*
X267880Y236677D01*
X267323Y236120D01*
X267022Y235393D01*
Y234607D01*
X267323Y233880D01*
X267880Y233323D01*
X268607Y233022D01*
X268886D01*
X268996Y232973D01*
X269099Y232970D01*
X269173Y232962D01*
X269242Y232949D01*
X269307Y232931D01*
X269371Y232908D01*
X269432Y232879D01*
X269494Y232844D01*
X269555Y232803D01*
X269617Y232753D01*
X269696Y232679D01*
X269758Y232656D01*
X272879Y229535D01*
Y194500D01*
X272878Y194500D01*
X272964Y194071D01*
X273207Y193707D01*
X282781Y184133D01*
X282799Y184078D01*
X282910Y183949D01*
X282991Y183825D01*
X283069Y183666D01*
X283143Y183469D01*
X283208Y183236D01*
X283264Y182966D01*
X283307Y182667D01*
X283356Y181937D01*
X283359Y181525D01*
X283408Y181409D01*
Y181027D01*
X283653Y180113D01*
X284126Y179294D01*
X284794Y178626D01*
X285613Y178153D01*
X286527Y177908D01*
X287473D01*
X288387Y178153D01*
X289206Y178626D01*
X289874Y179294D01*
X290347Y180113D01*
X290592Y181027D01*
Y181973D01*
X290347Y182887D01*
X289874Y183706D01*
X289206Y184374D01*
X288387Y184847D01*
X287473Y185092D01*
X287091D01*
X286975Y185141D01*
X286563Y185144D01*
X285833Y185194D01*
X285534Y185236D01*
X285264Y185292D01*
X285031Y185357D01*
X284834Y185431D01*
X284675Y185509D01*
X284551Y185590D01*
X284422Y185701D01*
X284367Y185719D01*
X275121Y194965D01*
Y230000D01*
X275122Y230000D01*
X275036Y230429D01*
X274793Y230793D01*
X274793Y230793D01*
X271344Y234242D01*
X271321Y234304D01*
X271247Y234383D01*
X271198Y234445D01*
X271156Y234506D01*
X271121Y234568D01*
X271092Y234629D01*
X271069Y234693D01*
X271051Y234758D01*
X271038Y234827D01*
X271030Y234901D01*
X271027Y235004D01*
X270978Y235114D01*
Y235393D01*
X270677Y236120D01*
X270120Y236677D01*
X269393Y236978D01*
D02*
G37*
G36*
X88500Y171367D02*
X87653Y171016D01*
X86984Y170347D01*
X86633Y169500D01*
X88500D01*
Y171367D01*
D02*
G37*
G36*
X273421Y170166D02*
Y168276D01*
X275312D01*
X274956Y169135D01*
X274281Y169810D01*
X273421Y170166D01*
D02*
G37*
G36*
X272421D02*
X271562Y169810D01*
X270887Y169135D01*
X270531Y168276D01*
X272421D01*
Y170166D01*
D02*
G37*
G36*
X253736D02*
Y168276D01*
X255627D01*
X255271Y169135D01*
X254596Y169810D01*
X253736Y170166D01*
D02*
G37*
G36*
X252736D02*
X251877Y169810D01*
X251202Y169135D01*
X250846Y168276D01*
X252736D01*
Y170166D01*
D02*
G37*
G36*
X214366D02*
Y168276D01*
X216257D01*
X215901Y169135D01*
X215226Y169810D01*
X214366Y170166D01*
D02*
G37*
G36*
X213366D02*
X212507Y169810D01*
X211831Y169135D01*
X211475Y168276D01*
X213366D01*
Y170166D01*
D02*
G37*
G36*
X174996D02*
Y168276D01*
X176887D01*
X176531Y169135D01*
X175856Y169810D01*
X174996Y170166D01*
D02*
G37*
G36*
X173996D02*
X173137Y169810D01*
X172461Y169135D01*
X172105Y168276D01*
X173996D01*
Y170166D01*
D02*
G37*
G36*
X155311D02*
Y168276D01*
X157202D01*
X156846Y169135D01*
X156170Y169810D01*
X155311Y170166D01*
D02*
G37*
G36*
X154311D02*
X153452Y169810D01*
X152776Y169135D01*
X152420Y168276D01*
X154311D01*
Y170166D01*
D02*
G37*
G36*
X37201D02*
Y168276D01*
X39091D01*
X38735Y169135D01*
X38060Y169810D01*
X37201Y170166D01*
D02*
G37*
G36*
X36201D02*
X35341Y169810D01*
X34666Y169135D01*
X34310Y168276D01*
X36201D01*
Y170166D01*
D02*
G37*
G36*
X17516D02*
Y168276D01*
X19406D01*
X19050Y169135D01*
X18375Y169810D01*
X17516Y170166D01*
D02*
G37*
G36*
X16516D02*
X15656Y169810D01*
X14981Y169135D01*
X14625Y168276D01*
X16516D01*
Y170166D01*
D02*
G37*
G36*
X287473Y175092D02*
X286527D01*
X285613Y174847D01*
X284794Y174374D01*
X284126Y173706D01*
X283653Y172887D01*
X283408Y171973D01*
Y171027D01*
X283653Y170114D01*
X284126Y169294D01*
X284794Y168626D01*
X285613Y168153D01*
X286527Y167908D01*
X287473D01*
X288387Y168153D01*
X289206Y168626D01*
X289874Y169294D01*
X290347Y170114D01*
X290592Y171027D01*
Y171973D01*
X290347Y172887D01*
X289874Y173706D01*
X289206Y174374D01*
X288387Y174847D01*
X287473Y175092D01*
D02*
G37*
G36*
X88500Y168500D02*
X86633D01*
X86984Y167653D01*
X87653Y166984D01*
X88500Y166633D01*
Y168500D01*
D02*
G37*
G36*
X275312Y167276D02*
X273421D01*
Y165385D01*
X274281Y165741D01*
X274956Y166416D01*
X275312Y167276D01*
D02*
G37*
G36*
X272421D02*
X270531D01*
X270887Y166416D01*
X271562Y165741D01*
X272421Y165385D01*
Y167276D01*
D02*
G37*
G36*
X255627D02*
X253736D01*
Y165385D01*
X254596Y165741D01*
X255271Y166416D01*
X255627Y167276D01*
D02*
G37*
G36*
X252736D02*
X250846D01*
X251202Y166416D01*
X251877Y165741D01*
X252736Y165385D01*
Y167276D01*
D02*
G37*
G36*
X216257D02*
X214366D01*
Y165385D01*
X215226Y165741D01*
X215901Y166416D01*
X216257Y167276D01*
D02*
G37*
G36*
X213366D02*
X211475D01*
X211831Y166416D01*
X212507Y165741D01*
X213366Y165385D01*
Y167276D01*
D02*
G37*
G36*
X176887D02*
X174996D01*
Y165385D01*
X175856Y165741D01*
X176531Y166416D01*
X176887Y167276D01*
D02*
G37*
G36*
X173996D02*
X172105D01*
X172461Y166416D01*
X173137Y165741D01*
X173996Y165385D01*
Y167276D01*
D02*
G37*
G36*
X157202D02*
X155311D01*
Y165385D01*
X156170Y165741D01*
X156846Y166416D01*
X157202Y167276D01*
D02*
G37*
G36*
X154311D02*
X152420D01*
X152776Y166416D01*
X153452Y165741D01*
X154311Y165385D01*
Y167276D01*
D02*
G37*
G36*
X39091D02*
X37201D01*
Y165385D01*
X38060Y165741D01*
X38735Y166416D01*
X39091Y167276D01*
D02*
G37*
G36*
X36201D02*
X34310D01*
X34666Y166416D01*
X35341Y165741D01*
X36201Y165385D01*
Y167276D01*
D02*
G37*
G36*
X19406D02*
X17516D01*
Y165385D01*
X18375Y165741D01*
X19050Y166416D01*
X19406Y167276D01*
D02*
G37*
G36*
X16516D02*
X14625D01*
X14981Y166416D01*
X15656Y165741D01*
X16516Y165385D01*
Y167276D01*
D02*
G37*
G36*
X84000Y165367D02*
Y163500D01*
X85867D01*
X85516Y164347D01*
X84847Y165016D01*
X84000Y165367D01*
D02*
G37*
G36*
X83000D02*
X82153Y165016D01*
X81484Y164347D01*
X81133Y163500D01*
X83000D01*
Y165367D01*
D02*
G37*
G36*
X287526Y165492D02*
X287500D01*
Y162000D01*
X290992D01*
Y162026D01*
X290720Y163041D01*
X290195Y163951D01*
X289451Y164694D01*
X288541Y165220D01*
X287526Y165492D01*
D02*
G37*
G36*
X67000Y163867D02*
Y162000D01*
X68867D01*
X68516Y162847D01*
X67847Y163516D01*
X67000Y163867D01*
D02*
G37*
G36*
X66000D02*
X65153Y163516D01*
X64484Y162847D01*
X64133Y162000D01*
X66000D01*
Y163867D01*
D02*
G37*
G36*
X286500Y165492D02*
X286474D01*
X285459Y165220D01*
X284549Y164694D01*
X283805Y163951D01*
X283280Y163041D01*
X283008Y162026D01*
Y162000D01*
X286500D01*
Y165492D01*
D02*
G37*
G36*
X85867Y162500D02*
X84000D01*
Y160633D01*
X84847Y160984D01*
X85516Y161653D01*
X85867Y162500D01*
D02*
G37*
G36*
X83000D02*
X81133D01*
X81484Y161653D01*
X82153Y160984D01*
X83000Y160633D01*
Y162500D01*
D02*
G37*
G36*
X137847Y162020D02*
Y160153D01*
X139713D01*
X139362Y161001D01*
X138693Y161670D01*
X137847Y162020D01*
D02*
G37*
G36*
X136846D02*
X136000Y161670D01*
X135330Y161001D01*
X134980Y160153D01*
X136846D01*
Y162020D01*
D02*
G37*
G36*
X227893Y160478D02*
X227107D01*
X226380Y160177D01*
X225823Y159620D01*
X225820Y159614D01*
X180444Y159405D01*
X179896Y159952D01*
X179169Y160254D01*
X178382D01*
X177655Y159952D01*
X177099Y159396D01*
X176798Y158669D01*
Y157882D01*
X177099Y157155D01*
X177655Y156599D01*
X178382Y156298D01*
X179169D01*
X179896Y156599D01*
X180452Y157155D01*
X180455Y157162D01*
X225832Y157371D01*
X226380Y156823D01*
X227107Y156522D01*
X227893D01*
X228620Y156823D01*
X229177Y157380D01*
X229478Y158107D01*
Y158893D01*
X229177Y159620D01*
X228620Y160177D01*
X227893Y160478D01*
D02*
G37*
G36*
X68867Y161000D02*
X67000D01*
Y159133D01*
X67847Y159484D01*
X68516Y160153D01*
X68867Y161000D01*
D02*
G37*
G36*
X66000D02*
X64133D01*
X64484Y160153D01*
X65153Y159484D01*
X66000Y159133D01*
Y161000D01*
D02*
G37*
G36*
X290992D02*
X287500D01*
Y157508D01*
X287526D01*
X288541Y157780D01*
X289451Y158306D01*
X290195Y159049D01*
X290720Y159959D01*
X290992Y160974D01*
Y161000D01*
D02*
G37*
G36*
X286500D02*
X283008D01*
Y160974D01*
X283280Y159959D01*
X283805Y159049D01*
X284549Y158306D01*
X285459Y157780D01*
X286474Y157508D01*
X286500D01*
Y161000D01*
D02*
G37*
G36*
X139713Y159153D02*
X137847D01*
Y157287D01*
X138693Y157638D01*
X139362Y158307D01*
X139713Y159153D01*
D02*
G37*
G36*
X136846D02*
X134964D01*
X126932Y151122D01*
X119109D01*
X119016Y151347D01*
X118347Y152016D01*
X117500Y152367D01*
Y150000D01*
Y147633D01*
X118347Y147984D01*
X119016Y148653D01*
X119109Y148878D01*
X127397D01*
X127397Y148878D01*
X127826Y148964D01*
X128190Y149207D01*
X136439Y157456D01*
X136846Y157287D01*
Y159153D01*
D02*
G37*
G36*
X116500Y152367D02*
X115653Y152016D01*
X114984Y151347D01*
X114633Y150500D01*
X116500D01*
Y152367D01*
D02*
G37*
G36*
X243894Y150481D02*
Y148591D01*
X245784D01*
X245428Y149450D01*
X244753Y150125D01*
X243894Y150481D01*
D02*
G37*
G36*
X242894D02*
X242034Y150125D01*
X241359Y149450D01*
X241003Y148591D01*
X242894D01*
Y150481D01*
D02*
G37*
G36*
X204524D02*
Y148591D01*
X206414D01*
X206058Y149450D01*
X205383Y150125D01*
X204524Y150481D01*
D02*
G37*
G36*
X203524D02*
X202664Y150125D01*
X201989Y149450D01*
X201633Y148591D01*
X203524D01*
Y150481D01*
D02*
G37*
G36*
X165154D02*
Y148591D01*
X167044D01*
X166688Y149450D01*
X166013Y150125D01*
X165154Y150481D01*
D02*
G37*
G36*
X164154D02*
X163294Y150125D01*
X162619Y149450D01*
X162263Y148591D01*
X164154D01*
Y150481D01*
D02*
G37*
G36*
X106098D02*
Y148591D01*
X107989D01*
X107633Y149450D01*
X106958Y150125D01*
X106098Y150481D01*
D02*
G37*
G36*
X105098D02*
X104239Y150125D01*
X103564Y149450D01*
X103208Y148591D01*
X105098D01*
Y150481D01*
D02*
G37*
G36*
X86413D02*
Y148591D01*
X88304D01*
X87948Y149450D01*
X87273Y150125D01*
X86413Y150481D01*
D02*
G37*
G36*
X85413D02*
X84554Y150125D01*
X83879Y149450D01*
X83523Y148591D01*
X85413D01*
Y150481D01*
D02*
G37*
G36*
X66728D02*
Y148591D01*
X68619D01*
X68263Y149450D01*
X67588Y150125D01*
X66728Y150481D01*
D02*
G37*
G36*
X65728D02*
X64869Y150125D01*
X64194Y149450D01*
X63838Y148591D01*
X65728D01*
Y150481D01*
D02*
G37*
G36*
X27358D02*
Y148591D01*
X29249D01*
X28893Y149450D01*
X28218Y150125D01*
X27358Y150481D01*
D02*
G37*
G36*
X26358D02*
X25499Y150125D01*
X24824Y149450D01*
X24468Y148591D01*
X26358D01*
Y150481D01*
D02*
G37*
G36*
X290592Y155092D02*
X283408D01*
Y147908D01*
X290592D01*
Y155092D01*
D02*
G37*
G36*
X116500Y149500D02*
X114633D01*
X114984Y148653D01*
X115653Y147984D01*
X116500Y147633D01*
Y149500D01*
D02*
G37*
G36*
X245784Y147591D02*
X243894D01*
Y145700D01*
X244753Y146056D01*
X245428Y146731D01*
X245784Y147591D01*
D02*
G37*
G36*
X242894D02*
X241003D01*
X241359Y146731D01*
X242034Y146056D01*
X242894Y145700D01*
Y147591D01*
D02*
G37*
G36*
X206414D02*
X204524D01*
Y145700D01*
X205383Y146056D01*
X206058Y146731D01*
X206414Y147591D01*
D02*
G37*
G36*
X203524D02*
X201633D01*
X201989Y146731D01*
X202664Y146056D01*
X203524Y145700D01*
Y147591D01*
D02*
G37*
G36*
X167044D02*
X165154D01*
Y145700D01*
X166013Y146056D01*
X166688Y146731D01*
X167044Y147591D01*
D02*
G37*
G36*
X164154D02*
X162263D01*
X162619Y146731D01*
X163294Y146056D01*
X164154Y145700D01*
Y147591D01*
D02*
G37*
G36*
X107989D02*
X106098D01*
Y145700D01*
X106958Y146056D01*
X107633Y146731D01*
X107989Y147591D01*
D02*
G37*
G36*
X105098D02*
X103208D01*
X103564Y146731D01*
X104239Y146056D01*
X105098Y145700D01*
Y147591D01*
D02*
G37*
G36*
X88304D02*
X86413D01*
Y145700D01*
X87273Y146056D01*
X87948Y146731D01*
X88304Y147591D01*
D02*
G37*
G36*
X85413D02*
X83523D01*
X83879Y146731D01*
X84554Y146056D01*
X85413Y145700D01*
Y147591D01*
D02*
G37*
G36*
X68619D02*
X66728D01*
Y145700D01*
X67588Y146056D01*
X68263Y146731D01*
X68619Y147591D01*
D02*
G37*
G36*
X65728D02*
X63838D01*
X64194Y146731D01*
X64869Y146056D01*
X65728Y145700D01*
Y147591D01*
D02*
G37*
G36*
X29249D02*
X27358D01*
Y145700D01*
X28218Y146056D01*
X28893Y146731D01*
X29249Y147591D01*
D02*
G37*
G36*
X26358D02*
X24468D01*
X24824Y146731D01*
X25499Y146056D01*
X26358Y145700D01*
Y147591D01*
D02*
G37*
G36*
X105000Y138867D02*
X104153Y138516D01*
X103484Y137847D01*
X103403Y137650D01*
X103366Y137649D01*
X103306Y137622D01*
X88694D01*
X88634Y137649D01*
X88597Y137650D01*
X88516Y137847D01*
X87847Y138516D01*
X87000Y138867D01*
Y136500D01*
Y134133D01*
X87847Y134484D01*
X88516Y135153D01*
X88597Y135350D01*
X88634Y135351D01*
X88694Y135378D01*
X103306D01*
X103366Y135351D01*
X103403Y135350D01*
X103484Y135153D01*
X104153Y134484D01*
X105000Y134133D01*
Y136500D01*
Y138867D01*
D02*
G37*
G36*
X106000D02*
Y137000D01*
X107867D01*
X107516Y137847D01*
X106847Y138516D01*
X106000Y138867D01*
D02*
G37*
G36*
X86000D02*
X85153Y138516D01*
X84484Y137847D01*
X84133Y137000D01*
X86000D01*
Y138867D01*
D02*
G37*
G36*
X107867Y136000D02*
X106000D01*
Y134133D01*
X106847Y134484D01*
X107516Y135153D01*
X107867Y136000D01*
D02*
G37*
G36*
X86000D02*
X84133D01*
X84484Y135153D01*
X85153Y134484D01*
X86000Y134133D01*
Y136000D01*
D02*
G37*
G36*
X288546Y134150D02*
X288500D01*
Y130500D01*
X292150D01*
Y130546D01*
X291867Y131602D01*
X291320Y132548D01*
X290548Y133320D01*
X289602Y133867D01*
X288546Y134150D01*
D02*
G37*
G36*
X287500D02*
X287454D01*
X286398Y133867D01*
X285452Y133320D01*
X284680Y132548D01*
X284133Y131602D01*
X283850Y130546D01*
Y130500D01*
X287500D01*
Y134150D01*
D02*
G37*
G36*
X253736Y130796D02*
Y128905D01*
X255627D01*
X255271Y129765D01*
X254596Y130440D01*
X253736Y130796D01*
D02*
G37*
G36*
X252736D02*
X251877Y130440D01*
X251202Y129765D01*
X250846Y128905D01*
X252736D01*
Y130796D01*
D02*
G37*
G36*
X234051D02*
Y128905D01*
X235942D01*
X235586Y129765D01*
X234911Y130440D01*
X234051Y130796D01*
D02*
G37*
G36*
X233051D02*
X232192Y130440D01*
X231517Y129765D01*
X231161Y128905D01*
X233051D01*
Y130796D01*
D02*
G37*
G36*
X214366D02*
Y128905D01*
X216257D01*
X215901Y129765D01*
X215226Y130440D01*
X214366Y130796D01*
D02*
G37*
G36*
X194681D02*
Y128905D01*
X196572D01*
X196216Y129765D01*
X195541Y130440D01*
X194681Y130796D01*
D02*
G37*
G36*
X193681D02*
X192822Y130440D01*
X192147Y129765D01*
X191790Y128905D01*
X193681D01*
Y130796D01*
D02*
G37*
G36*
X174996D02*
Y128905D01*
X176887D01*
X176531Y129765D01*
X175856Y130440D01*
X174996Y130796D01*
D02*
G37*
G36*
X173996D02*
X173137Y130440D01*
X172461Y129765D01*
X172105Y128905D01*
X173996D01*
Y130796D01*
D02*
G37*
G36*
X155311D02*
Y128905D01*
X157202D01*
X156846Y129765D01*
X156170Y130440D01*
X155311Y130796D01*
D02*
G37*
G36*
X154311D02*
X153452Y130440D01*
X152776Y129765D01*
X152420Y128905D01*
X154311D01*
Y130796D01*
D02*
G37*
G36*
X135626D02*
Y128905D01*
X137517D01*
X137161Y129765D01*
X136486Y130440D01*
X135626Y130796D01*
D02*
G37*
G36*
X134626D02*
X133766Y130440D01*
X133091Y129765D01*
X132735Y128905D01*
X134626D01*
Y130796D01*
D02*
G37*
G36*
X115941D02*
Y128905D01*
X117832D01*
X117476Y129765D01*
X116800Y130440D01*
X115941Y130796D01*
D02*
G37*
G36*
X114941D02*
X114082Y130440D01*
X113406Y129765D01*
X113050Y128905D01*
X114941D01*
Y130796D01*
D02*
G37*
G36*
X56886D02*
Y128905D01*
X58776D01*
X58420Y129765D01*
X57745Y130440D01*
X56886Y130796D01*
D02*
G37*
G36*
X55886D02*
X55026Y130440D01*
X54351Y129765D01*
X53995Y128905D01*
X55886D01*
Y130796D01*
D02*
G37*
G36*
X37201D02*
Y128905D01*
X39091D01*
X38735Y129765D01*
X38060Y130440D01*
X37201Y130796D01*
D02*
G37*
G36*
X36201D02*
X35341Y130440D01*
X34666Y129765D01*
X34310Y128905D01*
X36201D01*
Y130796D01*
D02*
G37*
G36*
X17516D02*
Y128905D01*
X19406D01*
X19050Y129765D01*
X18375Y130440D01*
X17516Y130796D01*
D02*
G37*
G36*
X16516D02*
X15656Y130440D01*
X14981Y129765D01*
X14625Y128905D01*
X16516D01*
Y130796D01*
D02*
G37*
G36*
X255627Y127905D02*
X253736D01*
Y126015D01*
X254596Y126371D01*
X255271Y127046D01*
X255627Y127905D01*
D02*
G37*
G36*
X252736D02*
X250846D01*
X251202Y127046D01*
X251877Y126371D01*
X252736Y126015D01*
Y127905D01*
D02*
G37*
G36*
X235942D02*
X234051D01*
Y126015D01*
X234911Y126371D01*
X235586Y127046D01*
X235942Y127905D01*
D02*
G37*
G36*
X233051D02*
X231161D01*
X231517Y127046D01*
X232192Y126371D01*
X233051Y126015D01*
Y127905D01*
D02*
G37*
G36*
X216257D02*
X214366D01*
Y126015D01*
X215226Y126371D01*
X215901Y127046D01*
X216257Y127905D01*
D02*
G37*
G36*
X213366D02*
X211475D01*
X211831Y127046D01*
X212507Y126371D01*
X213366Y126015D01*
Y127905D01*
D02*
G37*
G36*
X196572D02*
X194681D01*
Y126015D01*
X195541Y126371D01*
X196216Y127046D01*
X196572Y127905D01*
D02*
G37*
G36*
X193681D02*
X191790D01*
X192147Y127046D01*
X192822Y126371D01*
X193681Y126015D01*
Y127905D01*
D02*
G37*
G36*
X176887D02*
X174996D01*
Y126015D01*
X175856Y126371D01*
X176531Y127046D01*
X176887Y127905D01*
D02*
G37*
G36*
X173996D02*
X172105D01*
X172461Y127046D01*
X173137Y126371D01*
X173996Y126015D01*
Y127905D01*
D02*
G37*
G36*
X157202D02*
X155311D01*
Y126015D01*
X156170Y126371D01*
X156846Y127046D01*
X157202Y127905D01*
D02*
G37*
G36*
X154311D02*
X152420D01*
X152776Y127046D01*
X153452Y126371D01*
X154311Y126015D01*
Y127905D01*
D02*
G37*
G36*
X137517D02*
X135626D01*
Y126015D01*
X136486Y126371D01*
X137161Y127046D01*
X137517Y127905D01*
D02*
G37*
G36*
X134626D02*
X132735D01*
X133091Y127046D01*
X133766Y126371D01*
X134626Y126015D01*
Y127905D01*
D02*
G37*
G36*
X117832D02*
X115941D01*
Y126015D01*
X116800Y126371D01*
X117476Y127046D01*
X117832Y127905D01*
D02*
G37*
G36*
X114941D02*
X113050D01*
X113406Y127046D01*
X114082Y126371D01*
X114941Y126015D01*
Y127905D01*
D02*
G37*
G36*
X58776D02*
X56886D01*
Y126015D01*
X57745Y126371D01*
X58420Y127046D01*
X58776Y127905D01*
D02*
G37*
G36*
X55886D02*
X53995D01*
X54351Y127046D01*
X55026Y126371D01*
X55886Y126015D01*
Y127905D01*
D02*
G37*
G36*
X39091D02*
X37201D01*
Y126015D01*
X38060Y126371D01*
X38735Y127046D01*
X39091Y127905D01*
D02*
G37*
G36*
X36201D02*
X34310D01*
X34666Y127046D01*
X35341Y126371D01*
X36201Y126015D01*
Y127905D01*
D02*
G37*
G36*
X19406D02*
X17516D01*
Y126015D01*
X18375Y126371D01*
X19050Y127046D01*
X19406Y127905D01*
D02*
G37*
G36*
X16516D02*
X14625D01*
X14981Y127046D01*
X15656Y126371D01*
X16516Y126015D01*
Y127905D01*
D02*
G37*
G36*
X292150Y129500D02*
X288500D01*
Y125850D01*
X288546D01*
X289602Y126133D01*
X290548Y126680D01*
X291320Y127452D01*
X291867Y128398D01*
X292150Y129454D01*
Y129500D01*
D02*
G37*
G36*
X287500D02*
X283850D01*
Y129454D01*
X284133Y128398D01*
X284382Y127968D01*
X277000Y120586D01*
X277000Y120586D01*
X276986Y120600D01*
X276522Y119905D01*
X276359Y119086D01*
X276378D01*
Y99609D01*
X276153Y99516D01*
X275484Y98847D01*
X275133Y98000D01*
X279867D01*
X279516Y98847D01*
X278847Y99516D01*
X278622Y99609D01*
Y118987D01*
X278656Y119070D01*
X285968Y126382D01*
X286398Y126133D01*
X287454Y125850D01*
X287500D01*
Y129500D01*
D02*
G37*
G36*
X288494Y123750D02*
X287506D01*
X286553Y123494D01*
X285698Y123000D01*
X285000Y122302D01*
X284506Y121447D01*
X284250Y120494D01*
Y119506D01*
X284506Y118553D01*
X285000Y117698D01*
X285698Y117000D01*
X286553Y116506D01*
X287506Y116250D01*
X288494D01*
X289447Y116506D01*
X290302Y117000D01*
X291000Y117698D01*
X291494Y118553D01*
X291750Y119506D01*
Y120494D01*
X291494Y121447D01*
X291000Y122302D01*
X290302Y123000D01*
X289447Y123494D01*
X288494Y123750D01*
D02*
G37*
G36*
X291750Y113750D02*
X284250D01*
Y111244D01*
X283750Y110910D01*
X283264Y111111D01*
Y108721D01*
Y106330D01*
X283750Y106531D01*
X284250Y106250D01*
Y106250D01*
X291750D01*
Y113750D01*
D02*
G37*
G36*
X282264Y111111D02*
X281404Y110755D01*
X280729Y110080D01*
X280373Y109221D01*
X282264D01*
Y111111D01*
D02*
G37*
G36*
X263579D02*
Y109221D01*
X265469D01*
X265113Y110080D01*
X264438Y110755D01*
X263579Y111111D01*
D02*
G37*
G36*
X262579D02*
X261719Y110755D01*
X261044Y110080D01*
X260688Y109221D01*
X262579D01*
Y111111D01*
D02*
G37*
G36*
X243894D02*
Y109221D01*
X245784D01*
X245428Y110080D01*
X244753Y110755D01*
X243894Y111111D01*
D02*
G37*
G36*
X242894D02*
X242034Y110755D01*
X241359Y110080D01*
X241003Y109221D01*
X242894D01*
Y111111D01*
D02*
G37*
G36*
X224209D02*
Y109221D01*
X226099D01*
X225743Y110080D01*
X225068Y110755D01*
X224209Y111111D01*
D02*
G37*
G36*
X223209D02*
X222349Y110755D01*
X221674Y110080D01*
X221318Y109221D01*
X223209D01*
Y111111D01*
D02*
G37*
G36*
X204524D02*
Y109221D01*
X206414D01*
X206058Y110080D01*
X205383Y110755D01*
X204524Y111111D01*
D02*
G37*
G36*
X203524D02*
X202664Y110755D01*
X201989Y110080D01*
X201633Y109221D01*
X203524D01*
Y111111D01*
D02*
G37*
G36*
X165154D02*
Y109221D01*
X167044D01*
X166688Y110080D01*
X166013Y110755D01*
X165154Y111111D01*
D02*
G37*
G36*
X164154D02*
X163294Y110755D01*
X162619Y110080D01*
X162263Y109221D01*
X164154D01*
Y111111D01*
D02*
G37*
G36*
X66728D02*
Y109221D01*
X68619D01*
X68263Y110080D01*
X67588Y110755D01*
X66728Y111111D01*
D02*
G37*
G36*
X65728D02*
X64869Y110755D01*
X64194Y110080D01*
X63838Y109221D01*
X65728D01*
Y111111D01*
D02*
G37*
G36*
X47043D02*
Y109221D01*
X48934D01*
X48578Y110080D01*
X47903Y110755D01*
X47043Y111111D01*
D02*
G37*
G36*
X46043D02*
X45184Y110755D01*
X44509Y110080D01*
X44153Y109221D01*
X46043D01*
Y111111D01*
D02*
G37*
G36*
X27358D02*
Y109221D01*
X29249D01*
X28893Y110080D01*
X28218Y110755D01*
X27358Y111111D01*
D02*
G37*
G36*
X26358D02*
X25499Y110755D01*
X24824Y110080D01*
X24468Y109221D01*
X26358D01*
Y111111D01*
D02*
G37*
G36*
X282264Y108221D02*
X280373D01*
X280729Y107361D01*
X281404Y106686D01*
X282264Y106330D01*
Y108221D01*
D02*
G37*
G36*
X265469D02*
X263579D01*
Y106330D01*
X264438Y106686D01*
X265113Y107361D01*
X265469Y108221D01*
D02*
G37*
G36*
X262579D02*
X260688D01*
X261044Y107361D01*
X261719Y106686D01*
X262579Y106330D01*
Y108221D01*
D02*
G37*
G36*
X245784D02*
X243894D01*
Y106330D01*
X244753Y106686D01*
X245428Y107361D01*
X245784Y108221D01*
D02*
G37*
G36*
X242894D02*
X241003D01*
X241359Y107361D01*
X242034Y106686D01*
X242894Y106330D01*
Y108221D01*
D02*
G37*
G36*
X226099D02*
X224209D01*
Y106330D01*
X225068Y106686D01*
X225743Y107361D01*
X226099Y108221D01*
D02*
G37*
G36*
X223209D02*
X221318D01*
X221674Y107361D01*
X222349Y106686D01*
X223209Y106330D01*
Y108221D01*
D02*
G37*
G36*
X206414D02*
X204524D01*
Y106330D01*
X205383Y106686D01*
X206058Y107361D01*
X206414Y108221D01*
D02*
G37*
G36*
X203524D02*
X201633D01*
X201989Y107361D01*
X202664Y106686D01*
X203524Y106330D01*
Y108221D01*
D02*
G37*
G36*
X167044D02*
X165154D01*
Y106330D01*
X166013Y106686D01*
X166688Y107361D01*
X167044Y108221D01*
D02*
G37*
G36*
X164154D02*
X162263D01*
X162619Y107361D01*
X163294Y106686D01*
X164154Y106330D01*
Y108221D01*
D02*
G37*
G36*
X68619D02*
X66728D01*
Y106330D01*
X67588Y106686D01*
X68263Y107361D01*
X68619Y108221D01*
D02*
G37*
G36*
X65728D02*
X63838D01*
X64194Y107361D01*
X64869Y106686D01*
X65728Y106330D01*
Y108221D01*
D02*
G37*
G36*
X48934D02*
X47043D01*
Y106330D01*
X47903Y106686D01*
X48578Y107361D01*
X48934Y108221D01*
D02*
G37*
G36*
X46043D02*
X44153D01*
X44509Y107361D01*
X45184Y106686D01*
X46043Y106330D01*
Y108221D01*
D02*
G37*
G36*
X29249D02*
X27358D01*
Y106330D01*
X28218Y106686D01*
X28893Y107361D01*
X29249Y108221D01*
D02*
G37*
G36*
X26358D02*
X24468D01*
X24824Y107361D01*
X25499Y106686D01*
X26358Y106330D01*
Y108221D01*
D02*
G37*
G36*
X117000Y104867D02*
Y103000D01*
X118867D01*
X118516Y103847D01*
X117847Y104516D01*
X117000Y104867D01*
D02*
G37*
G36*
X116000D02*
X115153Y104516D01*
X114484Y103847D01*
X114133Y103000D01*
X116000D01*
Y104867D01*
D02*
G37*
G36*
X258539Y100965D02*
X258500D01*
Y97374D01*
X262090D01*
Y97413D01*
X261812Y98453D01*
X261273Y99386D01*
X260512Y100147D01*
X259579Y100686D01*
X258539Y100965D01*
D02*
G37*
G36*
X257500D02*
X257462D01*
X256421Y100686D01*
X255488Y100147D01*
X254727Y99386D01*
X254188Y98453D01*
X253909Y97413D01*
Y97374D01*
X257500D01*
Y100965D01*
D02*
G37*
G36*
X248538D02*
X248500D01*
Y97374D01*
X252091D01*
Y97413D01*
X251812Y98453D01*
X251273Y99386D01*
X250512Y100147D01*
X249579Y100686D01*
X248538Y100965D01*
D02*
G37*
G36*
X247500D02*
X247462D01*
X246421Y100686D01*
X245488Y100147D01*
X244727Y99386D01*
X244188Y98453D01*
X243910Y97413D01*
Y97374D01*
X247500D01*
Y100965D01*
D02*
G37*
G36*
X238539D02*
X238500D01*
Y97374D01*
X242091D01*
Y97413D01*
X241812Y98453D01*
X241273Y99386D01*
X240512Y100147D01*
X239579Y100686D01*
X238539Y100965D01*
D02*
G37*
G36*
X237500D02*
X237461D01*
X236421Y100686D01*
X235488Y100147D01*
X234727Y99386D01*
X234188Y98453D01*
X233910Y97413D01*
Y97374D01*
X237500D01*
Y100965D01*
D02*
G37*
G36*
X279867Y97000D02*
X278000D01*
Y95133D01*
X278847Y95484D01*
X279516Y96153D01*
X279867Y97000D01*
D02*
G37*
G36*
X277000D02*
X275133D01*
X275484Y96153D01*
X276153Y95484D01*
X277000Y95133D01*
Y97000D01*
D02*
G37*
G36*
X118867Y102000D02*
X114133D01*
X114484Y101153D01*
X115153Y100484D01*
X115378Y100391D01*
Y98814D01*
X114407Y98412D01*
X113540Y97747D01*
X112875Y96880D01*
X112457Y95871D01*
X112315Y94787D01*
Y94500D01*
X116500D01*
X120685D01*
Y94787D01*
X120543Y95871D01*
X120125Y96880D01*
X119459Y97747D01*
X118593Y98412D01*
X117622Y98814D01*
Y100391D01*
X117847Y100484D01*
X118516Y101153D01*
X118867Y102000D01*
D02*
G37*
G36*
X228486Y100565D02*
X227514D01*
X226575Y100313D01*
X225734Y99827D01*
X225047Y99140D01*
X224561Y98299D01*
X224309Y97360D01*
Y96388D01*
X224561Y95450D01*
X225047Y94608D01*
X225734Y93921D01*
X226575Y93435D01*
X227514Y93183D01*
X228486D01*
X229425Y93435D01*
X230266Y93921D01*
X230953Y94608D01*
X231439Y95450D01*
X231691Y96388D01*
Y97360D01*
X231439Y98299D01*
X230953Y99140D01*
X230266Y99827D01*
X229425Y100313D01*
X228486Y100565D01*
D02*
G37*
G36*
X218486D02*
X217514D01*
X216576Y100313D01*
X215734Y99827D01*
X215047Y99140D01*
X214561Y98299D01*
X214310Y97360D01*
Y96388D01*
X214561Y95450D01*
X215047Y94608D01*
X215734Y93921D01*
X216576Y93435D01*
X217514Y93183D01*
X218486D01*
X219425Y93435D01*
X220266Y93921D01*
X220953Y94608D01*
X221439Y95450D01*
X221691Y96388D01*
Y97360D01*
X221439Y98299D01*
X220953Y99140D01*
X220266Y99827D01*
X219425Y100313D01*
X218486Y100565D01*
D02*
G37*
G36*
X211690D02*
X204309D01*
Y93183D01*
X211690D01*
Y100565D01*
D02*
G37*
G36*
X262090Y96374D02*
X258500D01*
Y92783D01*
X258539D01*
X259579Y93062D01*
X260512Y93601D01*
X261273Y94362D01*
X261812Y95295D01*
X262090Y96336D01*
Y96374D01*
D02*
G37*
G36*
X257500D02*
X253909D01*
Y96336D01*
X254188Y95295D01*
X254727Y94362D01*
X255488Y93601D01*
X256421Y93062D01*
X257462Y92783D01*
X257500D01*
Y96374D01*
D02*
G37*
G36*
X252091D02*
X248500D01*
Y92783D01*
X248538D01*
X249579Y93062D01*
X250512Y93601D01*
X251273Y94362D01*
X251812Y95295D01*
X252091Y96336D01*
Y96374D01*
D02*
G37*
G36*
X247500D02*
X243910D01*
Y96336D01*
X244188Y95295D01*
X244727Y94362D01*
X245488Y93601D01*
X246421Y93062D01*
X247462Y92783D01*
X247500D01*
Y96374D01*
D02*
G37*
G36*
X273421Y91426D02*
Y89535D01*
X275312D01*
X274956Y90395D01*
X274281Y91070D01*
X273421Y91426D01*
D02*
G37*
G36*
X272421D02*
X271562Y91070D01*
X270887Y90395D01*
X270531Y89535D01*
X272421D01*
Y91426D01*
D02*
G37*
G36*
X253736D02*
Y89535D01*
X255627D01*
X255271Y90395D01*
X254596Y91070D01*
X253736Y91426D01*
D02*
G37*
G36*
X252736D02*
X251877Y91070D01*
X251202Y90395D01*
X250846Y89535D01*
X252736D01*
Y91426D01*
D02*
G37*
G36*
X234051D02*
Y89535D01*
X235942D01*
X235586Y90395D01*
X234911Y91070D01*
X234051Y91426D01*
D02*
G37*
G36*
X233051D02*
X232192Y91070D01*
X231517Y90395D01*
X231161Y89535D01*
X233051D01*
Y91426D01*
D02*
G37*
G36*
X214366D02*
Y89535D01*
X216257D01*
X215901Y90395D01*
X215226Y91070D01*
X214366Y91426D01*
D02*
G37*
G36*
X213366D02*
X212507Y91070D01*
X211831Y90395D01*
X211475Y89535D01*
X213366D01*
Y91426D01*
D02*
G37*
G36*
X194681D02*
Y89535D01*
X196572D01*
X196216Y90395D01*
X195541Y91070D01*
X194681Y91426D01*
D02*
G37*
G36*
X193681D02*
X192822Y91070D01*
X192147Y90395D01*
X191790Y89535D01*
X193681D01*
Y91426D01*
D02*
G37*
G36*
X174996D02*
Y89535D01*
X176887D01*
X176531Y90395D01*
X175856Y91070D01*
X174996Y91426D01*
D02*
G37*
G36*
X173996D02*
X173137Y91070D01*
X172461Y90395D01*
X172105Y89535D01*
X173996D01*
Y91426D01*
D02*
G37*
G36*
X155311D02*
Y89535D01*
X157202D01*
X156846Y90395D01*
X156170Y91070D01*
X155311Y91426D01*
D02*
G37*
G36*
X154311D02*
X153452Y91070D01*
X152776Y90395D01*
X152420Y89535D01*
X154311D01*
Y91426D01*
D02*
G37*
G36*
X37201D02*
Y89535D01*
X39091D01*
X38735Y90395D01*
X38060Y91070D01*
X37201Y91426D01*
D02*
G37*
G36*
X36201D02*
X35341Y91070D01*
X34666Y90395D01*
X34310Y89535D01*
X36201D01*
Y91426D01*
D02*
G37*
G36*
X17516D02*
Y89535D01*
X19406D01*
X19050Y90395D01*
X18375Y91070D01*
X17516Y91426D01*
D02*
G37*
G36*
X150250Y98537D02*
X142750D01*
Y89463D01*
X150250D01*
Y98537D01*
D02*
G37*
G36*
X136500Y98569D02*
X135521Y98440D01*
X134609Y98063D01*
X133826Y97462D01*
X133225Y96678D01*
X132847Y95766D01*
X132718Y94787D01*
Y93213D01*
X132847Y92234D01*
X133225Y91322D01*
X133826Y90538D01*
X134609Y89937D01*
X135521Y89560D01*
X136500Y89431D01*
X137479Y89560D01*
X138391Y89937D01*
X139174Y90538D01*
X139775Y91322D01*
X140153Y92234D01*
X140282Y93213D01*
Y94787D01*
X140153Y95766D01*
X139775Y96678D01*
X139174Y97462D01*
X138391Y98063D01*
X137479Y98440D01*
X136500Y98569D01*
D02*
G37*
G36*
X126500D02*
X125521Y98440D01*
X124609Y98063D01*
X123826Y97462D01*
X123225Y96678D01*
X122847Y95766D01*
X122718Y94787D01*
Y93213D01*
X122847Y92234D01*
X123225Y91322D01*
X123826Y90538D01*
X124609Y89937D01*
X125521Y89560D01*
X126500Y89431D01*
X127479Y89560D01*
X128391Y89937D01*
X129174Y90538D01*
X129775Y91322D01*
X130153Y92234D01*
X130282Y93213D01*
Y94787D01*
X130153Y95766D01*
X129775Y96678D01*
X129174Y97462D01*
X128391Y98063D01*
X127479Y98440D01*
X126500Y98569D01*
D02*
G37*
G36*
X86500D02*
X85521Y98440D01*
X84609Y98063D01*
X83826Y97462D01*
X83225Y96678D01*
X82847Y95766D01*
X82718Y94787D01*
Y93213D01*
X82847Y92234D01*
X83225Y91322D01*
X83826Y90538D01*
X84609Y89937D01*
X85521Y89560D01*
X86500Y89431D01*
X87479Y89560D01*
X88391Y89937D01*
X89174Y90538D01*
X89775Y91322D01*
X90153Y92234D01*
X90282Y93213D01*
Y94787D01*
X90153Y95766D01*
X89775Y96678D01*
X89174Y97462D01*
X88391Y98063D01*
X87479Y98440D01*
X86500Y98569D01*
D02*
G37*
G36*
X76500D02*
X75521Y98440D01*
X74609Y98063D01*
X73826Y97462D01*
X73225Y96678D01*
X72847Y95766D01*
X72718Y94787D01*
Y93213D01*
X72847Y92234D01*
X73225Y91322D01*
X73826Y90538D01*
X74609Y89937D01*
X75521Y89560D01*
X76500Y89431D01*
X77479Y89560D01*
X78391Y89937D01*
X79174Y90538D01*
X79775Y91322D01*
X80153Y92234D01*
X80282Y93213D01*
Y94787D01*
X80153Y95766D01*
X79775Y96678D01*
X79174Y97462D01*
X78391Y98063D01*
X77479Y98440D01*
X76500Y98569D01*
D02*
G37*
G36*
X66500D02*
X65521Y98440D01*
X64609Y98063D01*
X63826Y97462D01*
X63225Y96678D01*
X62847Y95766D01*
X62718Y94787D01*
Y93213D01*
X62847Y92234D01*
X63225Y91322D01*
X63826Y90538D01*
X64609Y89937D01*
X65521Y89560D01*
X66500Y89431D01*
X67479Y89560D01*
X68391Y89937D01*
X69174Y90538D01*
X69775Y91322D01*
X70153Y92234D01*
X70282Y93213D01*
Y94787D01*
X70153Y95766D01*
X69775Y96678D01*
X69174Y97462D01*
X68391Y98063D01*
X67479Y98440D01*
X66500Y98569D01*
D02*
G37*
G36*
X56500D02*
X55521Y98440D01*
X54609Y98063D01*
X53826Y97462D01*
X53225Y96678D01*
X52847Y95766D01*
X52718Y94787D01*
Y93213D01*
X52847Y92234D01*
X53225Y91322D01*
X53826Y90538D01*
X54609Y89937D01*
X55521Y89560D01*
X56500Y89431D01*
X57479Y89560D01*
X58391Y89937D01*
X59174Y90538D01*
X59775Y91322D01*
X60153Y92234D01*
X60282Y93213D01*
Y94787D01*
X60153Y95766D01*
X59775Y96678D01*
X59174Y97462D01*
X58391Y98063D01*
X57479Y98440D01*
X56500Y98569D01*
D02*
G37*
G36*
X120685Y93500D02*
X117000D01*
Y89093D01*
X117583Y89170D01*
X118593Y89588D01*
X119459Y90253D01*
X120125Y91120D01*
X120543Y92129D01*
X120685Y93213D01*
Y93500D01*
D02*
G37*
G36*
X116000D02*
X112315D01*
Y93213D01*
X112457Y92129D01*
X112875Y91120D01*
X113540Y90253D01*
X114407Y89588D01*
X115417Y89170D01*
X116000Y89093D01*
Y93500D01*
D02*
G37*
G36*
X275312Y88535D02*
X273421D01*
Y86645D01*
X274281Y87001D01*
X274956Y87676D01*
X275312Y88535D01*
D02*
G37*
G36*
X272421D02*
X270531D01*
X270887Y87676D01*
X271562Y87001D01*
X272421Y86645D01*
Y88535D01*
D02*
G37*
G36*
X255627D02*
X253736D01*
Y86645D01*
X254596Y87001D01*
X255271Y87676D01*
X255627Y88535D01*
D02*
G37*
G36*
X252736D02*
X250846D01*
X251202Y87676D01*
X251877Y87001D01*
X252736Y86645D01*
Y88535D01*
D02*
G37*
G36*
X235942D02*
X234051D01*
Y86645D01*
X234911Y87001D01*
X235586Y87676D01*
X235942Y88535D01*
D02*
G37*
G36*
X233051D02*
X231161D01*
X231517Y87676D01*
X232192Y87001D01*
X233051Y86645D01*
Y88535D01*
D02*
G37*
G36*
X216257D02*
X214366D01*
Y86645D01*
X215226Y87001D01*
X215901Y87676D01*
X216257Y88535D01*
D02*
G37*
G36*
X213366D02*
X211475D01*
X211831Y87676D01*
X212507Y87001D01*
X213366Y86645D01*
Y88535D01*
D02*
G37*
G36*
X196572D02*
X194681D01*
Y86645D01*
X195541Y87001D01*
X196216Y87676D01*
X196572Y88535D01*
D02*
G37*
G36*
X193681D02*
X191790D01*
X192147Y87676D01*
X192822Y87001D01*
X193681Y86645D01*
Y88535D01*
D02*
G37*
G36*
X176887D02*
X174996D01*
Y86645D01*
X175856Y87001D01*
X176531Y87676D01*
X176887Y88535D01*
D02*
G37*
G36*
X173996D02*
X172105D01*
X172461Y87676D01*
X173137Y87001D01*
X173996Y86645D01*
Y88535D01*
D02*
G37*
G36*
X157202D02*
X155311D01*
Y86645D01*
X156170Y87001D01*
X156846Y87676D01*
X157202Y88535D01*
D02*
G37*
G36*
X154311D02*
X152420D01*
X152776Y87676D01*
X153452Y87001D01*
X154311Y86645D01*
Y88535D01*
D02*
G37*
G36*
X39091D02*
X37201D01*
Y86645D01*
X38060Y87001D01*
X38735Y87676D01*
X39091Y88535D01*
D02*
G37*
G36*
X36201D02*
X34310D01*
X34666Y87676D01*
X35341Y87001D01*
X36201Y86645D01*
Y88535D01*
D02*
G37*
G36*
X242091Y96374D02*
X233910D01*
Y96336D01*
X234188Y95295D01*
X234727Y94362D01*
X235488Y93601D01*
X236421Y93062D01*
X237128Y92873D01*
Y82491D01*
X236484Y81847D01*
X236133Y81000D01*
X240867D01*
X240516Y81847D01*
X239847Y82516D01*
X239371Y82713D01*
Y93007D01*
X239579Y93062D01*
X240512Y93601D01*
X241273Y94362D01*
X241812Y95295D01*
X242091Y96336D01*
Y96374D01*
D02*
G37*
G36*
X240867Y80000D02*
X239000D01*
Y78133D01*
X239847Y78484D01*
X240516Y79153D01*
X240867Y80000D01*
D02*
G37*
G36*
X238000D02*
X236133D01*
X236484Y79153D01*
X237153Y78484D01*
X238000Y78133D01*
Y80000D01*
D02*
G37*
G36*
X286239Y91500D02*
X284761D01*
X283312Y91212D01*
X281947Y90646D01*
X280719Y89826D01*
X279674Y88781D01*
X278854Y87553D01*
X278288Y86188D01*
X278000Y84739D01*
Y83261D01*
X278288Y81812D01*
X278854Y80447D01*
X279674Y79219D01*
X280719Y78174D01*
X281947Y77354D01*
X283312Y76788D01*
X284761Y76500D01*
X286239D01*
X287688Y76788D01*
X289053Y77354D01*
X290281Y78174D01*
X291326Y79219D01*
X292146Y80447D01*
X292712Y81812D01*
X293000Y83261D01*
Y84739D01*
X292712Y86188D01*
X292146Y87553D01*
X291326Y88781D01*
X290281Y89826D01*
X289053Y90646D01*
X287688Y91212D01*
X286239Y91500D01*
D02*
G37*
G36*
X10239D02*
X8761D01*
X7312Y91212D01*
X5947Y90646D01*
X4719Y89826D01*
X3674Y88781D01*
X2854Y87553D01*
X2288Y86188D01*
X2000Y84739D01*
Y83261D01*
X2288Y81812D01*
X2854Y80447D01*
X3674Y79219D01*
X4719Y78174D01*
X5947Y77354D01*
X7312Y76788D01*
X8761Y76500D01*
X10239D01*
X11688Y76788D01*
X13053Y77354D01*
X14281Y78174D01*
X15326Y79219D01*
X16146Y80447D01*
X16712Y81812D01*
X17000Y83261D01*
Y84739D01*
X16722Y86135D01*
X16741Y86225D01*
X17067Y86635D01*
X17493D01*
X18375Y87001D01*
X19050Y87676D01*
X19406Y88535D01*
X17016D01*
Y89035D01*
X16516D01*
Y91426D01*
X15656Y91070D01*
X14981Y90395D01*
X14816Y89997D01*
X14397Y89863D01*
X14221Y89866D01*
X13053Y90646D01*
X11688Y91212D01*
X10239Y91500D01*
D02*
G37*
%LPD*%
G36*
X54081Y361199D02*
X54053Y361107D01*
Y361001D01*
X54081Y360881D01*
X54138Y360746D01*
X54223Y360598D01*
X54336Y360435D01*
X54477Y360258D01*
X54845Y359862D01*
X54138Y359155D01*
X53932Y359353D01*
X53565Y359664D01*
X53402Y359778D01*
X53254Y359862D01*
X53119Y359919D01*
X52999Y359947D01*
X52893D01*
X52801Y359919D01*
X52723Y359862D01*
X54138Y361277D01*
X54081Y361199D01*
D02*
G37*
G36*
X85647Y328239D02*
X85639Y328257D01*
X85622Y328274D01*
X85596Y328289D01*
X85561Y328301D01*
X85517Y328312D01*
X85464Y328321D01*
X85403Y328327D01*
X85252Y328335D01*
X85164Y328336D01*
Y329336D01*
X85931Y329370D01*
X85647Y328239D01*
D02*
G37*
G36*
X128856Y293376D02*
X128763Y293464D01*
X128665Y293543D01*
X128563Y293613D01*
X128457Y293673D01*
X128347Y293724D01*
X128232Y293766D01*
X128113Y293798D01*
X127989Y293822D01*
X127861Y293835D01*
X127729Y293840D01*
Y294840D01*
X127861Y294845D01*
X127989Y294859D01*
X128113Y294882D01*
X128232Y294915D01*
X128347Y294956D01*
X128457Y295007D01*
X128563Y295068D01*
X128665Y295138D01*
X128763Y295216D01*
X128856Y295305D01*
Y293376D01*
D02*
G37*
G36*
X224160Y241269D02*
X224195Y241065D01*
X224254Y240856D01*
X224338Y240642D01*
X224446Y240424D01*
X224579Y240202D01*
X224736Y239975D01*
X224918Y239743D01*
X225124Y239507D01*
X225355Y239266D01*
X223234Y237145D01*
X222993Y237376D01*
X222525Y237764D01*
X222298Y237921D01*
X222076Y238054D01*
X221858Y238162D01*
X221644Y238246D01*
X221435Y238305D01*
X221231Y238340D01*
X221031Y238351D01*
X224149Y241469D01*
X224160Y241269D01*
D02*
G37*
G36*
X130876Y135423D02*
X130797Y135325D01*
X130728Y135223D01*
X130667Y135117D01*
X130616Y135007D01*
X130574Y134892D01*
X130542Y134773D01*
X130519Y134649D01*
X130505Y134521D01*
X130500Y134389D01*
X129500D01*
X129495Y134521D01*
X129481Y134649D01*
X129458Y134773D01*
X129426Y134892D01*
X129384Y135007D01*
X129333Y135117D01*
X129272Y135223D01*
X129203Y135325D01*
X129124Y135423D01*
X129035Y135516D01*
X130965D01*
X130876Y135423D01*
D02*
G37*
G36*
X222876Y296423D02*
X222797Y296325D01*
X222728Y296223D01*
X222667Y296117D01*
X222616Y296007D01*
X222574Y295892D01*
X222542Y295773D01*
X222519Y295649D01*
X222505Y295521D01*
X222500Y295389D01*
X221500D01*
X221495Y295521D01*
X221481Y295649D01*
X221458Y295773D01*
X221426Y295892D01*
X221384Y296007D01*
X221333Y296117D01*
X221272Y296223D01*
X221203Y296325D01*
X221124Y296423D01*
X221035Y296516D01*
X222965D01*
X222876Y296423D01*
D02*
G37*
G36*
X143876Y278923D02*
X143797Y278825D01*
X143728Y278723D01*
X143667Y278617D01*
X143616Y278507D01*
X143574Y278392D01*
X143542Y278273D01*
X143519Y278149D01*
X143505Y278021D01*
X143500Y277889D01*
X142500D01*
X142495Y278021D01*
X142481Y278149D01*
X142458Y278273D01*
X142426Y278392D01*
X142384Y278507D01*
X142333Y278617D01*
X142272Y278723D01*
X142203Y278825D01*
X142124Y278923D01*
X142035Y279016D01*
X143965D01*
X143876Y278923D01*
D02*
G37*
G36*
X149354Y267354D02*
X149707Y265586D01*
X149566Y265713D01*
X149424Y265812D01*
X149283Y265883D01*
X149141Y265925D01*
X149000Y265939D01*
X148859Y265925D01*
X148717Y265883D01*
X148576Y265812D01*
X148434Y265713D01*
X148293Y265586D01*
X147586Y266293D01*
X147713Y266434D01*
X147812Y266576D01*
X147883Y266717D01*
X147925Y266859D01*
X147939Y267000D01*
X147925Y267141D01*
X147883Y267283D01*
X147812Y267424D01*
X147713Y267566D01*
X147586Y267707D01*
X149354Y267354D01*
D02*
G37*
G36*
X146677Y263970D02*
X146591Y263879D01*
X146520Y263792D01*
X146462Y263708D01*
X146417Y263628D01*
X146387Y263551D01*
X146370Y263477D01*
X146367Y263407D01*
X146377Y263340D01*
X146401Y263277D01*
X146439Y263216D01*
X144890Y263511D01*
X145817Y264524D01*
X146677Y263970D01*
D02*
G37*
G36*
X205287Y265066D02*
X205188Y264924D01*
X205117Y264783D01*
X205075Y264641D01*
X205061Y264500D01*
X205075Y264359D01*
X205117Y264217D01*
X205188Y264076D01*
X205268Y263961D01*
X205282Y263949D01*
X205365Y263884D01*
X205529Y263774D01*
X205609Y263728D01*
X205688Y263689D01*
X205766Y263657D01*
X205842Y263630D01*
X204377Y262865D01*
X204398Y262948D01*
X204408Y263033D01*
X204405Y263117D01*
X204392Y263202D01*
X204367Y263288D01*
X204338Y263355D01*
X204283Y263383D01*
X204141Y263425D01*
X204000Y263439D01*
X203859Y263425D01*
X203717Y263383D01*
X203576Y263312D01*
X203434Y263213D01*
X203293Y263086D01*
X203646Y264854D01*
X205414Y265207D01*
X205287Y265066D01*
D02*
G37*
G36*
X191411Y263265D02*
X191483Y263209D01*
X191562Y263160D01*
X191647Y263118D01*
X191737Y263082D01*
X191834Y263052D01*
X191936Y263029D01*
X192044Y263013D01*
X192159Y263003D01*
X192279Y263000D01*
Y262000D01*
X192159Y261997D01*
X192044Y261987D01*
X191936Y261971D01*
X191834Y261948D01*
X191737Y261918D01*
X191647Y261882D01*
X191562Y261840D01*
X191483Y261791D01*
X191411Y261735D01*
X191343Y261673D01*
Y263327D01*
X191411Y263265D01*
D02*
G37*
G36*
X189656Y261673D02*
X189590Y261735D01*
X189517Y261791D01*
X189438Y261840D01*
X189353Y261882D01*
X189263Y261918D01*
X189166Y261948D01*
X189064Y261971D01*
X188955Y261987D01*
X188841Y261997D01*
X188721Y262000D01*
Y263000D01*
X188841Y263003D01*
X188955Y263013D01*
X189064Y263029D01*
X189166Y263052D01*
X189263Y263082D01*
X189353Y263118D01*
X189438Y263160D01*
X189517Y263209D01*
X189590Y263265D01*
X189656Y263327D01*
Y261673D01*
D02*
G37*
G36*
X144783Y261561D02*
X144723Y261599D01*
X144660Y261623D01*
X144593Y261633D01*
X144523Y261630D01*
X144449Y261613D01*
X144372Y261582D01*
X144292Y261538D01*
X144208Y261480D01*
X144121Y261408D01*
X144030Y261323D01*
X143476Y262183D01*
X144489Y263110D01*
X144783Y261561D01*
D02*
G37*
G36*
X206657Y262766D02*
X206689Y262688D01*
X206729Y262609D01*
X206774Y262529D01*
X206884Y262365D01*
X206949Y262282D01*
X207098Y262112D01*
X207182Y262025D01*
X206726Y261067D01*
X206638Y261150D01*
X206549Y261222D01*
X206462Y261281D01*
X206375Y261330D01*
X206288Y261367D01*
X206202Y261392D01*
X206117Y261405D01*
X206032Y261407D01*
X205948Y261398D01*
X205865Y261377D01*
X206630Y262842D01*
X206657Y262766D01*
D02*
G37*
G36*
X211517Y246278D02*
X211568Y246044D01*
X211653Y245799D01*
X211773Y245541D01*
X211926Y245272D01*
X212114Y244991D01*
X212335Y244699D01*
X212881Y244077D01*
X213205Y243749D01*
X208795D01*
X209119Y244077D01*
X209665Y244699D01*
X209886Y244991D01*
X210074Y245272D01*
X210227Y245541D01*
X210347Y245799D01*
X210432Y246044D01*
X210483Y246278D01*
X210500Y246499D01*
X211500D01*
X211517Y246278D01*
D02*
G37*
G36*
X124016Y242035D02*
X123923Y242124D01*
X123825Y242203D01*
X123723Y242272D01*
X123617Y242333D01*
X123507Y242384D01*
X123392Y242426D01*
X123273Y242458D01*
X123149Y242481D01*
X123021Y242495D01*
X122889Y242500D01*
Y243500D01*
X123021Y243505D01*
X123149Y243519D01*
X123273Y243542D01*
X123392Y243574D01*
X123507Y243616D01*
X123617Y243667D01*
X123723Y243728D01*
X123825Y243797D01*
X123923Y243876D01*
X124016Y243965D01*
Y242035D01*
D02*
G37*
G36*
X111005Y237479D02*
X111019Y237351D01*
X111042Y237227D01*
X111074Y237108D01*
X111116Y236993D01*
X111167Y236883D01*
X111228Y236777D01*
X111297Y236675D01*
X111376Y236577D01*
X111465Y236484D01*
X109535D01*
X109624Y236577D01*
X109703Y236675D01*
X109772Y236777D01*
X109833Y236883D01*
X109884Y236993D01*
X109926Y237108D01*
X109958Y237227D01*
X109981Y237351D01*
X109995Y237479D01*
X110000Y237611D01*
X111000D01*
X111005Y237479D01*
D02*
G37*
G36*
X207516Y221035D02*
X207423Y221124D01*
X207325Y221203D01*
X207223Y221272D01*
X207117Y221333D01*
X207007Y221384D01*
X206892Y221426D01*
X206773Y221458D01*
X206649Y221481D01*
X206521Y221495D01*
X206389Y221500D01*
Y222500D01*
X206521Y222505D01*
X206649Y222519D01*
X206773Y222542D01*
X206892Y222574D01*
X207007Y222616D01*
X207117Y222667D01*
X207223Y222728D01*
X207325Y222797D01*
X207423Y222876D01*
X207516Y222965D01*
Y221035D01*
D02*
G37*
G36*
X197577Y222876D02*
X197675Y222797D01*
X197777Y222728D01*
X197883Y222667D01*
X197993Y222616D01*
X198108Y222574D01*
X198227Y222542D01*
X198351Y222519D01*
X198479Y222505D01*
X198611Y222500D01*
Y221500D01*
X198479Y221495D01*
X198351Y221481D01*
X198227Y221458D01*
X198108Y221426D01*
X197993Y221384D01*
X197883Y221333D01*
X197777Y221272D01*
X197675Y221203D01*
X197577Y221124D01*
X197484Y221035D01*
Y222965D01*
X197577Y222876D01*
D02*
G37*
G36*
X138016Y219535D02*
X137923Y219624D01*
X137825Y219703D01*
X137723Y219772D01*
X137617Y219833D01*
X137507Y219884D01*
X137392Y219926D01*
X137273Y219958D01*
X137149Y219981D01*
X137021Y219995D01*
X136889Y220000D01*
Y221000D01*
X137021Y221005D01*
X137149Y221019D01*
X137273Y221042D01*
X137392Y221074D01*
X137507Y221116D01*
X137617Y221167D01*
X137723Y221228D01*
X137825Y221297D01*
X137923Y221376D01*
X138016Y221465D01*
Y219535D01*
D02*
G37*
G36*
X119577Y221376D02*
X119675Y221297D01*
X119777Y221228D01*
X119883Y221167D01*
X119993Y221116D01*
X120108Y221074D01*
X120227Y221042D01*
X120351Y221019D01*
X120479Y221005D01*
X120611Y221000D01*
Y220000D01*
X120479Y219995D01*
X120351Y219981D01*
X120227Y219958D01*
X120108Y219926D01*
X119993Y219884D01*
X119883Y219833D01*
X119777Y219772D01*
X119675Y219703D01*
X119577Y219624D01*
X119484Y219535D01*
Y221465D01*
X119577Y221376D01*
D02*
G37*
G36*
X202016Y209035D02*
X201923Y209124D01*
X201825Y209203D01*
X201723Y209272D01*
X201617Y209333D01*
X201507Y209384D01*
X201392Y209426D01*
X201273Y209458D01*
X201149Y209481D01*
X201021Y209495D01*
X200889Y209500D01*
Y210500D01*
X201021Y210505D01*
X201149Y210519D01*
X201273Y210542D01*
X201392Y210574D01*
X201507Y210616D01*
X201617Y210667D01*
X201723Y210728D01*
X201825Y210797D01*
X201923Y210876D01*
X202016Y210965D01*
Y209035D01*
D02*
G37*
G36*
X198881Y204858D02*
X198895Y204733D01*
X198917Y204612D01*
X198950Y204494D01*
X198992Y204380D01*
X199043Y204269D01*
X199105Y204162D01*
X199176Y204058D01*
X199256Y203958D01*
X199346Y203861D01*
X198639Y203154D01*
X198542Y203244D01*
X198442Y203325D01*
X198338Y203395D01*
X198231Y203457D01*
X198120Y203508D01*
X198006Y203550D01*
X197888Y203583D01*
X197767Y203606D01*
X197642Y203619D01*
X197514Y203622D01*
X198878Y204986D01*
X198881Y204858D01*
D02*
G37*
G36*
X201958Y201256D02*
X202058Y201175D01*
X202162Y201105D01*
X202269Y201043D01*
X202380Y200992D01*
X202494Y200950D01*
X202612Y200917D01*
X202733Y200894D01*
X202858Y200881D01*
X202986Y200878D01*
X201622Y199514D01*
X201619Y199642D01*
X201606Y199767D01*
X201583Y199888D01*
X201550Y200006D01*
X201508Y200120D01*
X201457Y200231D01*
X201395Y200338D01*
X201325Y200442D01*
X201244Y200542D01*
X201154Y200639D01*
X201861Y201346D01*
X201958Y201256D01*
D02*
G37*
G36*
X91376Y201423D02*
X91297Y201325D01*
X91228Y201223D01*
X91167Y201117D01*
X91116Y201007D01*
X91074Y200892D01*
X91042Y200773D01*
X91019Y200649D01*
X91005Y200521D01*
X91000Y200389D01*
X90000D01*
X89995Y200521D01*
X89981Y200649D01*
X89958Y200773D01*
X89926Y200892D01*
X89884Y201007D01*
X89833Y201117D01*
X89772Y201223D01*
X89703Y201325D01*
X89624Y201423D01*
X89535Y201516D01*
X91465D01*
X91376Y201423D01*
D02*
G37*
G36*
X136016Y185035D02*
X135923Y185124D01*
X135825Y185203D01*
X135723Y185272D01*
X135617Y185333D01*
X135507Y185384D01*
X135392Y185426D01*
X135273Y185458D01*
X135149Y185481D01*
X135021Y185495D01*
X134889Y185500D01*
Y186500D01*
X135021Y186505D01*
X135149Y186519D01*
X135273Y186542D01*
X135392Y186574D01*
X135507Y186616D01*
X135617Y186667D01*
X135723Y186728D01*
X135825Y186797D01*
X135923Y186876D01*
X136016Y186965D01*
Y185035D01*
D02*
G37*
G36*
X117876Y176923D02*
X117797Y176825D01*
X117728Y176723D01*
X117667Y176617D01*
X117616Y176507D01*
X117574Y176392D01*
X117542Y176273D01*
X117519Y176149D01*
X117505Y176021D01*
X117500Y175889D01*
X116500D01*
X116495Y176021D01*
X116481Y176149D01*
X116458Y176273D01*
X116426Y176392D01*
X116384Y176507D01*
X116333Y176617D01*
X116272Y176723D01*
X116203Y176825D01*
X116124Y176923D01*
X116035Y177016D01*
X117965D01*
X117876Y176923D01*
D02*
G37*
G36*
X96846Y152139D02*
X96756Y152042D01*
X96675Y151942D01*
X96605Y151838D01*
X96543Y151731D01*
X96492Y151620D01*
X96450Y151506D01*
X96417Y151388D01*
X96394Y151267D01*
X96381Y151142D01*
X96378Y151014D01*
X95014Y152378D01*
X95142Y152381D01*
X95267Y152394D01*
X95388Y152417D01*
X95506Y152450D01*
X95620Y152492D01*
X95731Y152543D01*
X95838Y152605D01*
X95942Y152675D01*
X96042Y152756D01*
X96139Y152846D01*
X96846Y152139D01*
D02*
G37*
G36*
X270381Y234858D02*
X270394Y234733D01*
X270417Y234612D01*
X270450Y234494D01*
X270492Y234380D01*
X270543Y234269D01*
X270605Y234162D01*
X270675Y234058D01*
X270756Y233958D01*
X270846Y233861D01*
X270139Y233154D01*
X270042Y233244D01*
X269942Y233325D01*
X269838Y233395D01*
X269731Y233457D01*
X269620Y233508D01*
X269506Y233550D01*
X269388Y233583D01*
X269267Y233606D01*
X269142Y233619D01*
X269014Y233622D01*
X270378Y234986D01*
X270381Y234858D01*
D02*
G37*
G36*
X284161Y185069D02*
X284354Y184944D01*
X284576Y184834D01*
X284828Y184739D01*
X285111Y184660D01*
X285423Y184596D01*
X285765Y184547D01*
X286539Y184495D01*
X286970Y184492D01*
X284008Y181530D01*
X284005Y181962D01*
X283953Y182735D01*
X283904Y183077D01*
X283840Y183389D01*
X283761Y183671D01*
X283666Y183924D01*
X283556Y184146D01*
X283431Y184339D01*
X283291Y184502D01*
X283998Y185209D01*
X284161Y185069D01*
D02*
G37*
G36*
X104516Y135535D02*
X104423Y135624D01*
X104325Y135703D01*
X104223Y135772D01*
X104117Y135833D01*
X104007Y135884D01*
X103892Y135926D01*
X103773Y135958D01*
X103649Y135981D01*
X103521Y135995D01*
X103389Y136000D01*
Y137000D01*
X103521Y137005D01*
X103649Y137019D01*
X103773Y137042D01*
X103892Y137074D01*
X104007Y137116D01*
X104117Y137167D01*
X104223Y137228D01*
X104325Y137297D01*
X104423Y137376D01*
X104516Y137465D01*
Y135535D01*
D02*
G37*
G36*
X87577Y137376D02*
X87675Y137297D01*
X87777Y137228D01*
X87883Y137167D01*
X87993Y137116D01*
X88108Y137074D01*
X88227Y137042D01*
X88351Y137019D01*
X88479Y137005D01*
X88611Y137000D01*
Y136000D01*
X88479Y135995D01*
X88351Y135981D01*
X88227Y135958D01*
X88108Y135926D01*
X87993Y135884D01*
X87883Y135833D01*
X87777Y135772D01*
X87675Y135703D01*
X87577Y135624D01*
X87484Y135535D01*
Y137465D01*
X87577Y137376D01*
D02*
G37*
D15*
X137346Y159653D02*
G03*
X136769Y159372I126J-992D01*
G01*
X277793Y119793D02*
G03*
X277500Y119086I707J-707D01*
G01*
X238250Y80750D02*
Y96624D01*
X238000Y96874D02*
X238250Y96624D01*
Y80750D02*
X238500Y80500D01*
X116500Y94000D02*
Y102500D01*
X277500Y97500D02*
Y119086D01*
X96250Y94250D02*
X96500Y94000D01*
X96250Y94250D02*
Y111750D01*
X96000Y112000D02*
X96250Y111750D01*
X117000Y150000D02*
X127397D01*
X136769Y159372D01*
X130000Y116500D02*
Y136500D01*
Y116500D02*
X130500Y116000D01*
X178776Y158276D02*
X227500Y158500D01*
X277793Y119793D02*
X288000Y130000D01*
X107000Y91500D02*
Y116000D01*
X97500Y90500D02*
X97750Y90750D01*
X86500Y136500D02*
X105500D01*
X100000Y186000D02*
X137000D01*
X90500Y195500D02*
X100000Y186000D01*
X90500Y195500D02*
Y202500D01*
X124660Y294340D02*
X129840D01*
X97000Y322000D02*
X124660Y294340D01*
X111086Y243000D02*
X125000D01*
X110500Y242414D02*
X111086Y243000D01*
X110500Y235500D02*
Y242414D01*
X204000Y264500D02*
X214500Y275000D01*
X202000Y262500D02*
X204000Y264500D01*
X211000Y241500D02*
Y257500D01*
X204000Y264500D02*
X211000Y257500D01*
X149000Y267000D02*
X153500Y262500D01*
X143000Y273000D02*
X149000Y267000D01*
X125000Y243000D02*
X149000Y267000D01*
X129840Y294340D02*
X142664Y281516D01*
X153500Y262500D02*
X202000D01*
X143000Y273000D02*
Y280000D01*
X214500Y275000D02*
X222000Y282500D01*
Y297500D01*
X51000Y363000D02*
X85164Y328836D01*
X86664D01*
X87000Y328500D01*
X118500Y220500D02*
X139000D01*
X197500Y205000D02*
X203000Y199500D01*
X187000Y210000D02*
X203000D01*
X182153Y205153D02*
X187000Y210000D01*
X196500Y222000D02*
X208500D01*
X269000Y235000D02*
X274000Y230000D01*
Y194500D02*
Y230000D01*
Y194500D02*
X287000Y181500D01*
X95000Y151000D02*
X117000Y173000D01*
Y178000D01*
D54*
X258000Y96874D02*
D03*
X248000D02*
D03*
X238000D02*
D03*
X228000D02*
D03*
X218000D02*
D03*
D55*
X208000D02*
D03*
D63*
X194559Y270323D02*
D03*
X189441D02*
D03*
X194559Y275441D02*
D03*
X189441D02*
D03*
X194559Y280559D02*
D03*
X189441D02*
D03*
X194559Y285677D02*
D03*
X189441D02*
D03*
D65*
X194500Y116000D02*
X241000Y162500D01*
X183000Y116000D02*
X194500D01*
X241000Y162500D02*
Y176500D01*
X107000Y116000D02*
X130500D01*
X83500D02*
X107000D01*
X130500D02*
X183000D01*
X66000Y133500D02*
X83500Y116000D01*
X48000Y151500D02*
X66000Y133500D01*
X72500Y257500D02*
X91379Y276379D01*
X68500Y253500D02*
X72500Y257500D01*
X48000Y163000D02*
Y233000D01*
Y153500D02*
Y163000D01*
Y233000D02*
X68500Y253500D01*
X91621Y276379D02*
X109500Y294257D01*
X91379Y276379D02*
X91621D01*
X48000Y151500D02*
Y153500D01*
X241000Y176500D02*
Y221500D01*
X109500Y294257D02*
Y298500D01*
X221000Y241500D02*
X241000Y221500D01*
D66*
X9500Y84000D02*
D03*
X285500D02*
D03*
Y367000D02*
D03*
X9500D02*
D03*
D67*
X56500Y94000D02*
D03*
X66500D02*
D03*
X76500D02*
D03*
X86500D02*
D03*
X96500D02*
D03*
X106500D02*
D03*
X116500D02*
D03*
X126500D02*
D03*
X136500D02*
D03*
D68*
X146500D02*
D03*
D69*
X41000Y349000D02*
D03*
X221000Y241500D02*
D03*
X211000D02*
D03*
X201000D02*
D03*
X288000Y120000D02*
D03*
Y130000D02*
D03*
X17500Y319000D02*
D03*
X7500D02*
D03*
X41000Y363000D02*
D03*
D70*
X51000Y349000D02*
D03*
X191000Y241500D02*
D03*
X27500Y319000D02*
D03*
X51000Y363000D02*
D03*
D71*
X230842Y345383D02*
D03*
D72*
X260842D02*
D03*
D73*
X287000Y211500D02*
D03*
Y171500D02*
D03*
Y161500D02*
D03*
Y181500D02*
D03*
Y191500D02*
D03*
Y201500D02*
D03*
Y221500D02*
D03*
Y231500D02*
D03*
Y241500D02*
D03*
X10500Y221000D02*
D03*
Y231000D02*
D03*
Y271000D02*
D03*
Y281000D02*
D03*
Y261000D02*
D03*
Y251000D02*
D03*
Y241000D02*
D03*
D74*
X287000Y151500D02*
D03*
X10500Y291000D02*
D03*
D75*
X288000Y110000D02*
D03*
D76*
X238500Y80500D02*
D03*
X116500Y102500D02*
D03*
X96000Y112000D02*
D03*
X117000Y150000D02*
D03*
X130000Y136500D02*
D03*
X178776Y158276D02*
D03*
X227500Y158500D02*
D03*
X277500Y97500D02*
D03*
X86500Y136500D02*
D03*
X105500D02*
D03*
X64000Y181000D02*
D03*
X64500Y207000D02*
D03*
X63500Y191500D02*
D03*
X89000Y169000D02*
D03*
X83500Y163000D02*
D03*
X66500Y161500D02*
D03*
X75500Y224000D02*
D03*
X66500Y223000D02*
D03*
X85000Y221000D02*
D03*
X94500Y247000D02*
D03*
X137000Y186000D02*
D03*
X90500Y202500D02*
D03*
X97000Y322000D02*
D03*
X110500Y235500D02*
D03*
X72500Y257500D02*
D03*
X125000Y243000D02*
D03*
X129840Y294340D02*
D03*
X143000Y280000D02*
D03*
X214500Y275000D02*
D03*
X222000Y297500D02*
D03*
X48153Y229500D02*
D03*
X183000Y116000D02*
D03*
X68500Y253500D02*
D03*
X48000Y153500D02*
D03*
X241000Y176500D02*
D03*
X66000Y133500D02*
D03*
X48000Y163000D02*
D03*
X109500Y294500D02*
D03*
X91500Y276500D02*
D03*
X87000Y328500D02*
D03*
X109500Y298500D02*
D03*
X137346Y159653D02*
D03*
X118500Y220500D02*
D03*
X139000D02*
D03*
X197500Y205000D02*
D03*
X203000Y210000D02*
D03*
X182153Y205153D02*
D03*
X203000Y199500D02*
D03*
X196500Y222000D02*
D03*
X208500D02*
D03*
X269000Y235000D02*
D03*
X117000Y178000D02*
D03*
X95000Y151000D02*
D03*
D77*
X272921Y364626D02*
D03*
Y325256D02*
D03*
Y246516D02*
D03*
X282764Y226831D02*
D03*
X272921Y167776D02*
D03*
X282764Y108721D02*
D03*
X272921Y89035D02*
D03*
X253236Y364626D02*
D03*
Y325256D02*
D03*
X263079Y305571D02*
D03*
Y226831D02*
D03*
Y187461D02*
D03*
X253236Y167776D02*
D03*
Y128405D02*
D03*
X263079Y108721D02*
D03*
X253236Y89035D02*
D03*
X233551Y364626D02*
D03*
X243394Y344941D02*
D03*
Y305571D02*
D03*
X233551Y285886D02*
D03*
X243394Y266201D02*
D03*
Y148091D02*
D03*
X233551Y128405D02*
D03*
X243394Y108721D02*
D03*
X233551Y89035D02*
D03*
X213866Y364626D02*
D03*
X223709Y344941D02*
D03*
X213866Y285886D02*
D03*
X223709Y266201D02*
D03*
Y226831D02*
D03*
X213866Y167776D02*
D03*
Y128405D02*
D03*
X223709Y108721D02*
D03*
X213866Y89035D02*
D03*
X204024Y226831D02*
D03*
Y187461D02*
D03*
Y148091D02*
D03*
X194181Y128405D02*
D03*
X204024Y108721D02*
D03*
X194181Y89035D02*
D03*
X184339Y305571D02*
D03*
X174496Y207146D02*
D03*
X184339Y187461D02*
D03*
X174496Y167776D02*
D03*
Y128405D02*
D03*
Y89035D02*
D03*
X154811Y246516D02*
D03*
Y207146D02*
D03*
X164654Y187461D02*
D03*
X154811Y167776D02*
D03*
X164654Y148091D02*
D03*
X154811Y128405D02*
D03*
X164654Y108721D02*
D03*
X154811Y89035D02*
D03*
X135126Y364626D02*
D03*
X144968Y226831D02*
D03*
X135126Y207146D02*
D03*
X144968Y187461D02*
D03*
X135126Y128405D02*
D03*
X115441Y325256D02*
D03*
Y285886D02*
D03*
Y128405D02*
D03*
X95756Y364626D02*
D03*
Y285886D02*
D03*
X105598Y266201D02*
D03*
Y148091D02*
D03*
X76071Y325256D02*
D03*
Y285886D02*
D03*
X85913Y187461D02*
D03*
Y148091D02*
D03*
X56386Y364626D02*
D03*
Y325256D02*
D03*
Y285886D02*
D03*
X66228Y266201D02*
D03*
X56386Y246516D02*
D03*
X66228Y148091D02*
D03*
X56386Y128405D02*
D03*
X66228Y108721D02*
D03*
X36701Y325256D02*
D03*
X46543Y266201D02*
D03*
X36701Y246516D02*
D03*
Y207146D02*
D03*
Y167776D02*
D03*
Y128405D02*
D03*
X46543Y108721D02*
D03*
X36701Y89035D02*
D03*
X26858Y344941D02*
D03*
Y266201D02*
D03*
X17016Y246516D02*
D03*
X26858Y226831D02*
D03*
X17016Y207146D02*
D03*
Y167776D02*
D03*
X26858Y148091D02*
D03*
X17016Y128405D02*
D03*
X26858Y108721D02*
D03*
X17016Y89035D02*
D03*
M02*
