G04*
G04 #@! TF.GenerationSoftware,Altium Limited,Altium Designer,24.1.2 (44)*
G04*
G04 Layer_Color=32896*
%FSLAX25Y25*%
%MOIN*%
G70*
G04*
G04 #@! TF.SameCoordinates,9E04AB5A-7F44-4484-A11C-FDF8A6245F59*
G04*
G04*
G04 #@! TF.FilePolarity,Positive*
G04*
G01*
G75*
%ADD15C,0.01000*%
D15*
X116500Y268498D02*
X115500Y269498D01*
X113501D01*
X112501Y268498D01*
Y264500D01*
X113501Y263500D01*
X115500D01*
X116500Y264500D01*
Y268498D01*
X110502D02*
X109502Y269498D01*
X107503D01*
X106503Y268498D01*
Y267499D01*
X107503Y266499D01*
X106503Y265499D01*
Y264500D01*
X107503Y263500D01*
X109502D01*
X110502Y264500D01*
Y265499D01*
X109502Y266499D01*
X110502Y267499D01*
Y268498D01*
X109502Y266499D02*
X107503D01*
X104504Y263500D02*
X100505Y267499D01*
X94507Y263500D02*
X98506D01*
X94507Y267499D01*
Y268498D01*
X95507Y269498D01*
X97506D01*
X98506Y268498D01*
X92508D02*
X91508Y269498D01*
X89509D01*
X88509Y268498D01*
Y264500D01*
X89509Y263500D01*
X91508D01*
X92508Y264500D01*
Y268498D01*
X82511Y263500D02*
X86510D01*
X82511Y267499D01*
Y268498D01*
X83511Y269498D01*
X85510D01*
X86510Y268498D01*
X77513Y263500D02*
Y269498D01*
X80512Y266499D01*
X76513D01*
X112001Y278498D02*
X113001Y279498D01*
X115000D01*
X116000Y278498D01*
Y277499D01*
X115000Y276499D01*
X113001D01*
X112001Y275499D01*
Y274500D01*
X113001Y273500D01*
X115000D01*
X116000Y274500D01*
X110002Y279498D02*
X106003D01*
X108003D01*
Y273500D01*
X104004D02*
Y279498D01*
X102005Y277499D01*
X100005Y279498D01*
Y273500D01*
X98006Y278498D02*
X97006Y279498D01*
X95007D01*
X94007Y278498D01*
Y277499D01*
X95007Y276499D01*
X96007D01*
X95007D01*
X94007Y275499D01*
Y274500D01*
X95007Y273500D01*
X97006D01*
X98006Y274500D01*
X88009Y273500D02*
X92008D01*
X88009Y277499D01*
Y278498D01*
X89009Y279498D01*
X91008D01*
X92008Y278498D01*
X82011Y279498D02*
X86010D01*
Y276499D01*
X84010D01*
X86010D01*
Y273500D01*
X77013D02*
Y279498D01*
X80012Y276499D01*
X76013D01*
X74014Y278498D02*
X73014Y279498D01*
X71014D01*
X70015Y278498D01*
Y274500D01*
X71014Y273500D01*
X73014D01*
X74014Y274500D01*
Y278498D01*
X68015Y279498D02*
X64017D01*
Y278498D01*
X68015Y274500D01*
Y273500D01*
X62018Y279498D02*
Y275499D01*
X60018Y273500D01*
X58019Y275499D01*
Y279498D01*
X52021D02*
X56019D01*
Y273500D01*
X52021D01*
X56019Y276499D02*
X54020D01*
X50021Y279498D02*
X46023D01*
X48022D01*
Y273500D01*
X40025Y279498D02*
X42024Y278498D01*
X44023Y276499D01*
Y274500D01*
X43024Y273500D01*
X41024D01*
X40025Y274500D01*
Y275499D01*
X41024Y276499D01*
X44023D01*
M02*
