G04*
G04 #@! TF.GenerationSoftware,Altium Limited,Altium Designer,24.1.2 (44)*
G04*
G04 Layer_Color=8388736*
%FSLAX25Y25*%
%MOIN*%
G70*
G04*
G04 #@! TF.SameCoordinates,9E04AB5A-7F44-4484-A11C-FDF8A6245F59*
G04*
G04*
G04 #@! TF.FilePolarity,Positive*
G04*
G01*
G75*
%ADD80C,0.00394*%
D80*
X261673Y310488D02*
Y321512D01*
X283327Y310488D02*
Y321512D01*
X261673D02*
X283327D01*
X261673Y310488D02*
X283327D01*
X264586D02*
Y321512D01*
X264290Y310488D02*
Y321512D01*
X263995Y310488D02*
Y321512D01*
X263700Y310488D02*
Y321512D01*
X263109Y310488D02*
Y321512D01*
X262814Y310488D02*
Y321512D01*
X262519Y310488D02*
Y321512D01*
X262223Y310488D02*
Y321512D01*
X262027Y310488D02*
Y321512D01*
X263404Y310488D02*
Y321512D01*
X220488Y306488D02*
Y317512D01*
X198835Y306488D02*
Y317512D01*
Y306488D02*
X220488D01*
X198835Y317512D02*
X220488D01*
X217576Y306488D02*
Y317512D01*
X217871Y306488D02*
Y317512D01*
X218166Y306488D02*
Y317512D01*
X218462Y306488D02*
Y317512D01*
X219052Y306488D02*
Y317512D01*
X219347Y306488D02*
Y317512D01*
X219643Y306488D02*
Y317512D01*
X219938Y306488D02*
Y317512D01*
X220135Y306488D02*
Y317512D01*
X218757Y306488D02*
Y317512D01*
M02*
