G04*
G04 #@! TF.GenerationSoftware,Altium Limited,Altium Designer,24.1.2 (44)*
G04*
G04 Layer_Color=16711935*
%FSLAX25Y25*%
%MOIN*%
G70*
G04*
G04 #@! TF.SameCoordinates,9E04AB5A-7F44-4484-A11C-FDF8A6245F59*
G04*
G04*
G04 #@! TF.FilePolarity,Negative*
G04*
G01*
G75*
%ADD51C,0.14600*%
%ADD52O,0.07099X0.08674*%
%ADD53R,0.07099X0.08674*%
%ADD54C,0.06181*%
%ADD55R,0.06181X0.06181*%
%ADD56C,0.07099*%
%ADD57R,0.07099X0.07099*%
G04:AMPARAMS|DCode=58|XSize=67.06mil|YSize=67.06mil|CornerRadius=18.76mil|HoleSize=0mil|Usage=FLASHONLY|Rotation=0.000|XOffset=0mil|YOffset=0mil|HoleType=Round|Shape=RoundedRectangle|*
%AMROUNDEDRECTD58*
21,1,0.06706,0.02953,0,0,0.0*
21,1,0.02953,0.06706,0,0,0.0*
1,1,0.03753,0.01476,-0.01476*
1,1,0.03753,-0.01476,-0.01476*
1,1,0.03753,-0.01476,0.01476*
1,1,0.03753,0.01476,0.01476*
%
%ADD58ROUNDEDRECTD58*%
%ADD59C,0.06706*%
%ADD60C,0.06784*%
%ADD61R,0.06784X0.06784*%
%ADD62R,0.07099X0.07099*%
%ADD63C,0.01968*%
D51*
X9500Y84000D02*
D03*
X285500D02*
D03*
Y367000D02*
D03*
X9500D02*
D03*
D52*
X56500Y94000D02*
D03*
X66500D02*
D03*
X76500D02*
D03*
X86500D02*
D03*
X96500D02*
D03*
X106500D02*
D03*
X116500D02*
D03*
X126500D02*
D03*
X136500D02*
D03*
D53*
X146500D02*
D03*
D54*
X258000Y96874D02*
D03*
X248000D02*
D03*
X238000D02*
D03*
X228000D02*
D03*
X218000D02*
D03*
D55*
X208000D02*
D03*
D56*
X41000Y349000D02*
D03*
X221000Y241500D02*
D03*
X211000D02*
D03*
X201000D02*
D03*
X288000Y120000D02*
D03*
Y130000D02*
D03*
X17500Y319000D02*
D03*
X7500D02*
D03*
X41000Y363000D02*
D03*
D57*
X51000Y349000D02*
D03*
X191000Y241500D02*
D03*
X27500Y319000D02*
D03*
X51000Y363000D02*
D03*
D58*
X230842Y345383D02*
D03*
D59*
X260842D02*
D03*
D60*
X287000Y211500D02*
D03*
Y171500D02*
D03*
Y161500D02*
D03*
Y181500D02*
D03*
Y191500D02*
D03*
Y201500D02*
D03*
Y221500D02*
D03*
Y231500D02*
D03*
Y241500D02*
D03*
X10500Y221000D02*
D03*
Y231000D02*
D03*
Y271000D02*
D03*
Y281000D02*
D03*
Y261000D02*
D03*
Y251000D02*
D03*
Y241000D02*
D03*
D61*
X287000Y151500D02*
D03*
X10500Y291000D02*
D03*
D62*
X288000Y110000D02*
D03*
D63*
X194559Y270323D02*
D03*
X189441D02*
D03*
X194559Y275441D02*
D03*
X189441D02*
D03*
X194559Y280559D02*
D03*
X189441D02*
D03*
X194559Y285677D02*
D03*
X189441D02*
D03*
M02*
