M48
;Layer_Color=9474304
;FILE_FORMAT=2:4
INCH,TZ
;TYPE=PLATED
T01F00S00C0.0079
T02F00S00C0.0118
T03F00S00C0.0394
T04F00S00C0.0402
T05F00S00C0.0433
T06F00S00C0.1181
%
T01
X18944Y27032
Y27544
Y28056
X19456
Y27544
Y27032
Y28568
X18944
T02
X27292Y8904
X27750Y9750
X28276Y10872
X27292Y16778
X25324
X24100Y17650
X24339Y14809
X22750Y15850
X21387Y16778
X20402Y14809
X21387Y12841
X23355
X25324
X26308Y10872
X24339
X22371
X20402
X18300Y11600
X17450Y12841
X19418
Y8904
X21387
X23355
X23850Y8050
X25324Y8904
X17450
X15481
X16465Y10872
X15481Y12841
X13513
X13000Y13650
X11544Y12841
X11700Y15000
Y17800
X13735Y15965
X15481Y16778
X17450
X17878Y15828
X16465Y14809
X11650Y10250
X9600Y11200
X6623Y10872
X4654
X2686
X3670Y12841
X5639
X6600Y13350
X6623Y14809
X6650Y16150
X8350Y16300
X8900Y16900
X8591Y14809
X9500Y15100
X10560Y14809
X10550Y13650
X8650
X4800Y15350
Y16300
X3670Y16778
X1702
X2686Y14809
X1702Y12841
Y8904
X3670
X6400Y18100
X6350Y19150
X6450Y20700
X6650Y22300
X7550Y22400
X8500Y22100
X9050Y20250
X8591Y18746
X9450Y24700
X11050Y23550
X10560Y26620
X9150Y27650
X9576Y28589
X7607
X5639
X6623Y26620
X7250Y25750
X6850Y25350
X5639Y24652
X3670
X1702
X2686Y26620
X4654
X4815Y22950
X2686Y22683
X3670Y20715
X1702
X3670Y32526
X5639
X7607
X8700Y32850
X9700Y32200
X10950Y29850
Y29450
X11544Y28589
X12984Y29434
X14300Y28000
X15481Y24652
X14497Y22683
X13900Y22050
X13513Y20715
X15481
X17450
X18215Y20515
X19750Y20500
X20300Y21000
Y19950
X20402Y18746
X18434
X16465
X14497
X13700Y18600
X11850Y22050
X12500Y24300
X11544Y32526
X18434Y30557
X22200Y29750
X21387Y28589
X21450Y27500
X22371Y26620
X24339
X23355Y28589
X24339Y30557
X26308
X25324Y32526
X26308Y22683
Y18746
X22371Y22683
X20402
X20850Y22200
X19650
X26900Y23500
X27292Y24652
X28276Y22683
X27292Y32526
Y36463
X25324
X23355
X21387
X22371Y34494
X24339
X13513Y36463
X9576
X5639
X2686Y34494
T03
X23084Y34538
X26084
T04
X28700Y15150
Y16150
Y17150
Y18150
X25800Y9687
X24800
X23800
X22800
X21800
X20800
X1050Y22100
Y23100
Y24100
Y25100
Y26100
Y27100
Y28100
Y29100
X28700Y24150
Y23150
Y22150
Y21150
Y20150
Y19150
T05
X28800Y11000
Y12000
Y13000
X14650Y9400
X13650
X12650
X11650
X10650
X9650
X8650
X7650
X6650
X5650
X2750Y31900
X1750
X750
X19100Y24150
X20100
X21100
X22100
X5100Y34900
X4100
Y36300
X5100
T06
X28550Y8400
X950
X28550Y36700
X950
M30
